G04 EAGLE Gerber X2 export*
%TF.Part,Single*%
%TF.FileFunction,Copper,L2,Bot,Mixed*%
%TF.FilePolarity,Positive*%
%TF.GenerationSoftware,Autodesk,EAGLE,9.0.0*%
%TF.CreationDate,2022-05-13T19:47:05Z*%
G75*
%MOMM*%
%FSLAX34Y34*%
%LPD*%
%AMOC8*
5,1,8,0,0,1.08239X$1,22.5*%
G01*
%ADD10C,1.524000*%
%ADD11C,1.308000*%
%ADD12P,1.429621X8X112.500000*%
%ADD13C,5.334000*%
%ADD14P,1.429621X8X22.500000*%
%ADD15P,2.336880X8X22.500000*%
%ADD16R,3.000000X3.000000*%
%ADD17P,1.429621X8X202.500000*%
%ADD18P,1.429621X8X292.500000*%
%ADD19C,0.609600*%
%ADD20C,0.508000*%

G36*
X568795Y10164D02*
X568795Y10164D01*
X568829Y10162D01*
X569018Y10184D01*
X569209Y10201D01*
X569242Y10210D01*
X569276Y10214D01*
X569459Y10269D01*
X569643Y10319D01*
X569674Y10334D01*
X569707Y10344D01*
X569878Y10431D01*
X570050Y10513D01*
X570078Y10533D01*
X570109Y10548D01*
X570261Y10664D01*
X570416Y10775D01*
X570440Y10800D01*
X570467Y10820D01*
X570596Y10960D01*
X570730Y11097D01*
X570749Y11126D01*
X570773Y11152D01*
X570875Y11313D01*
X570982Y11470D01*
X570996Y11502D01*
X571014Y11531D01*
X571087Y11708D01*
X571164Y11882D01*
X571172Y11916D01*
X571185Y11948D01*
X571225Y12135D01*
X571271Y12320D01*
X571273Y12354D01*
X571280Y12388D01*
X571299Y12700D01*
X571299Y310885D01*
X571288Y311015D01*
X571286Y311145D01*
X571268Y311239D01*
X571259Y311334D01*
X571225Y311459D01*
X571200Y311587D01*
X571166Y311676D01*
X571141Y311768D01*
X571085Y311885D01*
X571038Y312007D01*
X570988Y312089D01*
X570947Y312175D01*
X570872Y312280D01*
X570804Y312392D01*
X570741Y312463D01*
X570685Y312541D01*
X570592Y312632D01*
X570506Y312729D01*
X570431Y312788D01*
X570363Y312855D01*
X570255Y312928D01*
X570153Y313009D01*
X570069Y313054D01*
X569990Y313107D01*
X569871Y313160D01*
X569756Y313221D01*
X569665Y313251D01*
X569578Y313289D01*
X569451Y313320D01*
X569328Y313360D01*
X569233Y313373D01*
X569140Y313396D01*
X569011Y313404D01*
X568882Y313422D01*
X568786Y313418D01*
X568691Y313424D01*
X568562Y313409D01*
X568432Y313403D01*
X568339Y313383D01*
X568244Y313372D01*
X568119Y313334D01*
X567992Y313306D01*
X567904Y313269D01*
X567813Y313241D01*
X567697Y313182D01*
X567577Y313132D01*
X567497Y313080D01*
X567411Y313037D01*
X567308Y312958D01*
X567199Y312888D01*
X567101Y312802D01*
X567053Y312765D01*
X567022Y312732D01*
X566964Y312681D01*
X566689Y312405D01*
X552432Y298149D01*
X552327Y298022D01*
X552215Y297902D01*
X552183Y297850D01*
X552144Y297803D01*
X552062Y297661D01*
X551974Y297522D01*
X551950Y297465D01*
X551920Y297412D01*
X551865Y297258D01*
X551803Y297105D01*
X551790Y297046D01*
X551769Y296988D01*
X551743Y296826D01*
X551708Y296665D01*
X551703Y296588D01*
X551696Y296544D01*
X551697Y296483D01*
X551689Y296353D01*
X551689Y292876D01*
X551703Y292712D01*
X551710Y292547D01*
X551723Y292488D01*
X551729Y292427D01*
X551772Y292268D01*
X551808Y292108D01*
X551831Y292052D01*
X551847Y291993D01*
X551918Y291844D01*
X551981Y291692D01*
X552014Y291641D01*
X552041Y291586D01*
X552136Y291453D01*
X552226Y291314D01*
X552277Y291257D01*
X552303Y291220D01*
X552346Y291177D01*
X552432Y291080D01*
X555245Y288268D01*
X555245Y280692D01*
X549888Y275335D01*
X542312Y275335D01*
X536955Y280692D01*
X536955Y288268D01*
X539768Y291080D01*
X539873Y291206D01*
X539985Y291327D01*
X540017Y291379D01*
X540056Y291425D01*
X540138Y291568D01*
X540226Y291707D01*
X540250Y291763D01*
X540280Y291816D01*
X540335Y291971D01*
X540397Y292124D01*
X540410Y292183D01*
X540431Y292241D01*
X540457Y292403D01*
X540492Y292564D01*
X540497Y292641D01*
X540504Y292685D01*
X540503Y292746D01*
X540511Y292876D01*
X540511Y300832D01*
X541362Y302886D01*
X557548Y319071D01*
X557653Y319198D01*
X557765Y319318D01*
X557797Y319370D01*
X557836Y319417D01*
X557918Y319559D01*
X558006Y319698D01*
X558030Y319755D01*
X558060Y319808D01*
X558115Y319962D01*
X558177Y320115D01*
X558190Y320174D01*
X558211Y320232D01*
X558237Y320394D01*
X558272Y320555D01*
X558277Y320632D01*
X558284Y320676D01*
X558283Y320737D01*
X558291Y320867D01*
X558291Y332052D01*
X558280Y332181D01*
X558278Y332311D01*
X558260Y332405D01*
X558251Y332500D01*
X558217Y332626D01*
X558192Y332753D01*
X558158Y332842D01*
X558133Y332934D01*
X558077Y333052D01*
X558030Y333173D01*
X557980Y333255D01*
X557939Y333341D01*
X557864Y333447D01*
X557796Y333558D01*
X557733Y333629D01*
X557677Y333707D01*
X557584Y333798D01*
X557498Y333895D01*
X557423Y333955D01*
X557355Y334021D01*
X557247Y334094D01*
X557145Y334175D01*
X557061Y334220D01*
X556982Y334273D01*
X556863Y334326D01*
X556748Y334387D01*
X556657Y334417D01*
X556570Y334456D01*
X556443Y334486D01*
X556320Y334526D01*
X556225Y334540D01*
X556132Y334562D01*
X556003Y334570D01*
X555874Y334588D01*
X555778Y334584D01*
X555683Y334590D01*
X555554Y334575D01*
X555424Y334570D01*
X555331Y334549D01*
X555236Y334538D01*
X555111Y334500D01*
X554984Y334472D01*
X554896Y334435D01*
X554805Y334407D01*
X554689Y334348D01*
X554569Y334298D01*
X554489Y334246D01*
X554403Y334203D01*
X554300Y334125D01*
X554191Y334054D01*
X554093Y333968D01*
X554045Y333931D01*
X554014Y333898D01*
X553956Y333847D01*
X551856Y331746D01*
X548121Y330199D01*
X537275Y330199D01*
X537111Y330185D01*
X536947Y330178D01*
X536887Y330165D01*
X536826Y330159D01*
X536667Y330116D01*
X536507Y330080D01*
X536451Y330057D01*
X536392Y330041D01*
X536244Y329970D01*
X536092Y329907D01*
X536040Y329874D01*
X535985Y329847D01*
X535852Y329752D01*
X535713Y329662D01*
X535656Y329611D01*
X535619Y329585D01*
X535577Y329542D01*
X535479Y329456D01*
X514332Y308309D01*
X514227Y308182D01*
X514115Y308062D01*
X514083Y308010D01*
X514044Y307963D01*
X513962Y307821D01*
X513874Y307682D01*
X513850Y307625D01*
X513820Y307572D01*
X513765Y307418D01*
X513703Y307265D01*
X513690Y307206D01*
X513669Y307148D01*
X513643Y306986D01*
X513608Y306825D01*
X513603Y306748D01*
X513596Y306704D01*
X513597Y306643D01*
X513589Y306513D01*
X513589Y165312D01*
X513602Y165160D01*
X513607Y165007D01*
X513622Y164936D01*
X513629Y164864D01*
X513669Y164716D01*
X513701Y164566D01*
X513728Y164499D01*
X513747Y164429D01*
X513813Y164291D01*
X513871Y164149D01*
X513909Y164088D01*
X513941Y164023D01*
X514029Y163899D01*
X514111Y163769D01*
X514160Y163715D01*
X514203Y163657D01*
X514313Y163550D01*
X514416Y163437D01*
X514473Y163393D01*
X514525Y163342D01*
X514652Y163257D01*
X514774Y163164D01*
X514838Y163131D01*
X514898Y163090D01*
X515038Y163028D01*
X515174Y162959D01*
X515263Y162929D01*
X515310Y162908D01*
X515366Y162895D01*
X515471Y162859D01*
X519275Y161840D01*
X525936Y157994D01*
X531374Y152556D01*
X535220Y145895D01*
X537211Y138466D01*
X537211Y130774D01*
X535220Y123345D01*
X531374Y116684D01*
X525936Y111246D01*
X519275Y107400D01*
X511846Y105409D01*
X504154Y105409D01*
X496725Y107400D01*
X491704Y110299D01*
X491565Y110363D01*
X491430Y110435D01*
X491361Y110458D01*
X491296Y110488D01*
X491148Y110527D01*
X491002Y110575D01*
X490930Y110585D01*
X490860Y110603D01*
X490708Y110615D01*
X490556Y110636D01*
X490484Y110633D01*
X490411Y110639D01*
X490259Y110624D01*
X490106Y110618D01*
X490035Y110602D01*
X489963Y110595D01*
X489816Y110553D01*
X489667Y110520D01*
X489600Y110492D01*
X489530Y110472D01*
X489393Y110406D01*
X489251Y110347D01*
X489190Y110307D01*
X489125Y110275D01*
X489002Y110185D01*
X488873Y110102D01*
X488803Y110040D01*
X488761Y110010D01*
X488722Y109969D01*
X488639Y109895D01*
X468612Y89869D01*
X468507Y89742D01*
X468395Y89622D01*
X468363Y89570D01*
X468324Y89523D01*
X468242Y89381D01*
X468154Y89242D01*
X468130Y89185D01*
X468100Y89132D01*
X468045Y88978D01*
X467983Y88825D01*
X467970Y88766D01*
X467949Y88708D01*
X467922Y88545D01*
X467888Y88385D01*
X467883Y88308D01*
X467876Y88264D01*
X467877Y88203D01*
X467869Y88073D01*
X467869Y47148D01*
X467018Y45094D01*
X465446Y43522D01*
X463392Y42671D01*
X430087Y42671D01*
X429923Y42657D01*
X429759Y42650D01*
X429699Y42637D01*
X429638Y42631D01*
X429479Y42588D01*
X429319Y42552D01*
X429263Y42529D01*
X429204Y42513D01*
X429056Y42442D01*
X428904Y42379D01*
X428852Y42346D01*
X428797Y42319D01*
X428663Y42224D01*
X428525Y42134D01*
X428468Y42083D01*
X428431Y42057D01*
X428389Y42014D01*
X428291Y41928D01*
X425243Y38880D01*
X425160Y38780D01*
X425069Y38687D01*
X425015Y38607D01*
X424954Y38534D01*
X424890Y38421D01*
X424817Y38314D01*
X424778Y38226D01*
X424731Y38143D01*
X424687Y38021D01*
X424635Y37902D01*
X424612Y37809D01*
X424580Y37719D01*
X424559Y37591D01*
X424528Y37464D01*
X424522Y37369D01*
X424507Y37275D01*
X424508Y37145D01*
X424500Y37015D01*
X424511Y36920D01*
X424513Y36824D01*
X424537Y36697D01*
X424552Y36568D01*
X424580Y36476D01*
X424598Y36382D01*
X424645Y36261D01*
X424683Y36137D01*
X424726Y36051D01*
X424761Y35962D01*
X424828Y35851D01*
X424887Y35735D01*
X424945Y35659D01*
X424994Y35578D01*
X425081Y35480D01*
X425159Y35377D01*
X425229Y35312D01*
X425293Y35240D01*
X425395Y35160D01*
X425490Y35071D01*
X425571Y35020D01*
X425646Y34961D01*
X425760Y34900D01*
X425870Y34830D01*
X425958Y34793D01*
X426043Y34748D01*
X426166Y34708D01*
X426287Y34659D01*
X426380Y34639D01*
X426471Y34609D01*
X426600Y34591D01*
X426721Y34565D01*
X426721Y27939D01*
X420115Y27939D01*
X420115Y28235D01*
X420108Y28317D01*
X420110Y28400D01*
X420088Y28541D01*
X420075Y28684D01*
X420054Y28763D01*
X420041Y28845D01*
X419995Y28980D01*
X419957Y29118D01*
X419922Y29192D01*
X419895Y29271D01*
X419825Y29396D01*
X419763Y29525D01*
X419716Y29592D01*
X419675Y29664D01*
X419585Y29775D01*
X419501Y29891D01*
X419442Y29948D01*
X419390Y30012D01*
X419281Y30105D01*
X419179Y30205D01*
X419110Y30251D01*
X419048Y30305D01*
X418924Y30377D01*
X418806Y30457D01*
X418730Y30490D01*
X418659Y30532D01*
X418525Y30581D01*
X418394Y30639D01*
X418314Y30659D01*
X418236Y30687D01*
X418095Y30712D01*
X417956Y30746D01*
X417874Y30751D01*
X417793Y30765D01*
X417650Y30765D01*
X417507Y30774D01*
X417425Y30764D01*
X417343Y30764D01*
X417202Y30738D01*
X417060Y30722D01*
X416981Y30698D01*
X416900Y30683D01*
X416666Y30603D01*
X416629Y30591D01*
X416619Y30586D01*
X416604Y30581D01*
X415132Y29971D01*
X113188Y29971D01*
X111134Y30822D01*
X82249Y59708D01*
X82122Y59813D01*
X82002Y59925D01*
X81950Y59957D01*
X81903Y59996D01*
X81761Y60078D01*
X81622Y60166D01*
X81565Y60190D01*
X81512Y60220D01*
X81358Y60275D01*
X81205Y60337D01*
X81146Y60350D01*
X81088Y60371D01*
X80926Y60397D01*
X80765Y60432D01*
X80688Y60437D01*
X80644Y60444D01*
X80583Y60443D01*
X80453Y60451D01*
X70880Y60451D01*
X70845Y60448D01*
X70811Y60450D01*
X70622Y60428D01*
X70431Y60411D01*
X70398Y60402D01*
X70364Y60398D01*
X70181Y60343D01*
X69997Y60293D01*
X69966Y60278D01*
X69933Y60268D01*
X69762Y60181D01*
X69590Y60099D01*
X69562Y60079D01*
X69531Y60064D01*
X69379Y59948D01*
X69224Y59837D01*
X69200Y59812D01*
X69173Y59792D01*
X69044Y59652D01*
X68910Y59515D01*
X68891Y59486D01*
X68867Y59460D01*
X68765Y59299D01*
X68658Y59142D01*
X68644Y59110D01*
X68626Y59081D01*
X68553Y58904D01*
X68476Y58730D01*
X68468Y58696D01*
X68455Y58664D01*
X68415Y58477D01*
X68369Y58292D01*
X68367Y58258D01*
X68360Y58224D01*
X68341Y57912D01*
X68341Y49988D01*
X66852Y48499D01*
X34748Y48499D01*
X33259Y49988D01*
X33259Y82092D01*
X34748Y83581D01*
X66852Y83581D01*
X68341Y82092D01*
X68341Y74168D01*
X68344Y74133D01*
X68342Y74099D01*
X68364Y73910D01*
X68381Y73719D01*
X68390Y73686D01*
X68394Y73652D01*
X68449Y73469D01*
X68499Y73285D01*
X68514Y73254D01*
X68524Y73221D01*
X68611Y73050D01*
X68693Y72878D01*
X68713Y72850D01*
X68728Y72819D01*
X68844Y72667D01*
X68955Y72512D01*
X68980Y72488D01*
X69000Y72461D01*
X69140Y72332D01*
X69277Y72198D01*
X69306Y72179D01*
X69332Y72155D01*
X69493Y72053D01*
X69650Y71946D01*
X69682Y71932D01*
X69711Y71914D01*
X69888Y71841D01*
X70062Y71764D01*
X70096Y71756D01*
X70128Y71743D01*
X70315Y71703D01*
X70500Y71657D01*
X70534Y71655D01*
X70568Y71648D01*
X70880Y71629D01*
X80453Y71629D01*
X80617Y71643D01*
X80781Y71650D01*
X80841Y71663D01*
X80902Y71669D01*
X81061Y71712D01*
X81221Y71748D01*
X81277Y71771D01*
X81336Y71787D01*
X81484Y71858D01*
X81636Y71921D01*
X81688Y71954D01*
X81743Y71981D01*
X81876Y72076D01*
X82015Y72166D01*
X82072Y72217D01*
X82109Y72243D01*
X82151Y72286D01*
X82249Y72372D01*
X90188Y80311D01*
X90293Y80438D01*
X90405Y80558D01*
X90437Y80610D01*
X90476Y80657D01*
X90558Y80799D01*
X90646Y80938D01*
X90670Y80995D01*
X90700Y81048D01*
X90755Y81202D01*
X90817Y81355D01*
X90830Y81414D01*
X90851Y81472D01*
X90877Y81634D01*
X90912Y81795D01*
X90917Y81872D01*
X90924Y81916D01*
X90923Y81977D01*
X90931Y82107D01*
X90931Y227824D01*
X90917Y227988D01*
X90910Y228152D01*
X90897Y228212D01*
X90891Y228273D01*
X90848Y228432D01*
X90812Y228592D01*
X90789Y228648D01*
X90773Y228707D01*
X90702Y228855D01*
X90639Y229007D01*
X90606Y229059D01*
X90579Y229114D01*
X90484Y229247D01*
X90394Y229386D01*
X90343Y229443D01*
X90317Y229480D01*
X90274Y229522D01*
X90188Y229620D01*
X87375Y232432D01*
X87375Y240008D01*
X90188Y242820D01*
X90293Y242946D01*
X90405Y243067D01*
X90437Y243119D01*
X90476Y243166D01*
X90558Y243308D01*
X90646Y243447D01*
X90670Y243504D01*
X90700Y243556D01*
X90755Y243711D01*
X90817Y243864D01*
X90830Y243923D01*
X90851Y243981D01*
X90877Y244143D01*
X90912Y244304D01*
X90917Y244381D01*
X90924Y244425D01*
X90923Y244486D01*
X90931Y244616D01*
X90931Y260954D01*
X91782Y263008D01*
X93933Y265158D01*
X94016Y265258D01*
X94107Y265351D01*
X94160Y265431D01*
X94222Y265504D01*
X94286Y265617D01*
X94359Y265724D01*
X94398Y265812D01*
X94445Y265895D01*
X94489Y266017D01*
X94541Y266136D01*
X94564Y266229D01*
X94596Y266319D01*
X94617Y266447D01*
X94648Y266574D01*
X94654Y266669D01*
X94669Y266763D01*
X94668Y266893D01*
X94676Y267023D01*
X94665Y267118D01*
X94663Y267214D01*
X94639Y267341D01*
X94624Y267470D01*
X94596Y267562D01*
X94578Y267656D01*
X94531Y267777D01*
X94493Y267901D01*
X94450Y267987D01*
X94415Y268076D01*
X94348Y268187D01*
X94289Y268303D01*
X94231Y268379D01*
X94182Y268460D01*
X94095Y268558D01*
X94017Y268661D01*
X93947Y268726D01*
X93883Y268798D01*
X93781Y268878D01*
X93686Y268967D01*
X93605Y269018D01*
X93530Y269077D01*
X93416Y269138D01*
X93306Y269208D01*
X93218Y269245D01*
X93133Y269290D01*
X93010Y269330D01*
X92889Y269379D01*
X92796Y269399D01*
X92705Y269429D01*
X92576Y269447D01*
X92449Y269474D01*
X92320Y269482D01*
X92259Y269490D01*
X92214Y269489D01*
X92137Y269493D01*
X52228Y269493D01*
X50174Y270344D01*
X23202Y297316D01*
X22351Y299370D01*
X22351Y697072D01*
X23202Y699126D01*
X25672Y701595D01*
X25757Y701698D01*
X25831Y701773D01*
X25847Y701797D01*
X25889Y701842D01*
X25921Y701894D01*
X25960Y701941D01*
X26042Y702083D01*
X26069Y702126D01*
X26083Y702146D01*
X26085Y702150D01*
X26130Y702222D01*
X26154Y702279D01*
X26184Y702332D01*
X26239Y702486D01*
X26301Y702639D01*
X26314Y702698D01*
X26335Y702756D01*
X26361Y702918D01*
X26396Y703079D01*
X26401Y703156D01*
X26408Y703200D01*
X26407Y703261D01*
X26415Y703391D01*
X26415Y707368D01*
X31772Y712725D01*
X35749Y712725D01*
X35913Y712739D01*
X36077Y712746D01*
X36137Y712759D01*
X36198Y712765D01*
X36357Y712808D01*
X36517Y712844D01*
X36573Y712867D01*
X36632Y712883D01*
X36780Y712954D01*
X36932Y713017D01*
X36984Y713050D01*
X37039Y713077D01*
X37172Y713172D01*
X37311Y713262D01*
X37368Y713313D01*
X37405Y713339D01*
X37447Y713382D01*
X37545Y713468D01*
X67954Y743878D01*
X70008Y744729D01*
X437992Y744729D01*
X440046Y743878D01*
X470455Y713468D01*
X470582Y713363D01*
X470702Y713251D01*
X470754Y713219D01*
X470801Y713180D01*
X470943Y713098D01*
X471082Y713010D01*
X471139Y712986D01*
X471192Y712956D01*
X471346Y712901D01*
X471499Y712839D01*
X471558Y712826D01*
X471616Y712805D01*
X471778Y712779D01*
X471939Y712744D01*
X472016Y712739D01*
X472060Y712732D01*
X472121Y712733D01*
X472251Y712725D01*
X476228Y712725D01*
X481585Y707368D01*
X481585Y699792D01*
X478772Y696980D01*
X478667Y696854D01*
X478555Y696733D01*
X478523Y696681D01*
X478484Y696635D01*
X478402Y696492D01*
X478314Y696353D01*
X478290Y696297D01*
X478260Y696244D01*
X478205Y696089D01*
X478143Y695936D01*
X478130Y695877D01*
X478109Y695819D01*
X478083Y695657D01*
X478048Y695496D01*
X478043Y695419D01*
X478036Y695375D01*
X478037Y695314D01*
X478029Y695184D01*
X478029Y678688D01*
X478032Y678653D01*
X478030Y678619D01*
X478052Y678430D01*
X478069Y678239D01*
X478078Y678206D01*
X478082Y678172D01*
X478137Y677989D01*
X478187Y677805D01*
X478202Y677774D01*
X478212Y677741D01*
X478299Y677570D01*
X478381Y677398D01*
X478401Y677370D01*
X478416Y677339D01*
X478532Y677187D01*
X478643Y677032D01*
X478668Y677008D01*
X478688Y676981D01*
X478828Y676852D01*
X478965Y676718D01*
X478994Y676699D01*
X479020Y676675D01*
X479181Y676573D01*
X479338Y676466D01*
X479370Y676452D01*
X479399Y676434D01*
X479576Y676361D01*
X479750Y676284D01*
X479784Y676276D01*
X479816Y676263D01*
X480003Y676223D01*
X480188Y676177D01*
X480222Y676175D01*
X480256Y676168D01*
X480568Y676149D01*
X513408Y676149D01*
X513571Y676163D01*
X513736Y676170D01*
X513795Y676183D01*
X513856Y676189D01*
X514015Y676232D01*
X514175Y676268D01*
X514232Y676291D01*
X514290Y676307D01*
X514439Y676378D01*
X514591Y676441D01*
X514642Y676474D01*
X514697Y676501D01*
X514831Y676596D01*
X514969Y676686D01*
X515027Y676737D01*
X515063Y676763D01*
X515106Y676806D01*
X515203Y676892D01*
X517484Y679174D01*
X521219Y680721D01*
X540501Y680721D01*
X544236Y679174D01*
X547094Y676316D01*
X548641Y672581D01*
X548641Y668539D01*
X547094Y664804D01*
X544236Y661946D01*
X540501Y660399D01*
X521219Y660399D01*
X517484Y661946D01*
X515203Y664228D01*
X515077Y664333D01*
X514956Y664445D01*
X514904Y664477D01*
X514858Y664516D01*
X514715Y664598D01*
X514576Y664686D01*
X514520Y664710D01*
X514467Y664740D01*
X514312Y664795D01*
X514160Y664857D01*
X514100Y664870D01*
X514042Y664891D01*
X513880Y664917D01*
X513719Y664952D01*
X513642Y664957D01*
X513598Y664964D01*
X513538Y664963D01*
X513408Y664971D01*
X480568Y664971D01*
X480533Y664968D01*
X480499Y664970D01*
X480310Y664948D01*
X480119Y664931D01*
X480086Y664922D01*
X480052Y664918D01*
X479869Y664863D01*
X479685Y664813D01*
X479654Y664798D01*
X479621Y664788D01*
X479450Y664701D01*
X479278Y664619D01*
X479250Y664599D01*
X479219Y664584D01*
X479067Y664468D01*
X478912Y664357D01*
X478888Y664332D01*
X478861Y664312D01*
X478732Y664172D01*
X478598Y664035D01*
X478579Y664006D01*
X478555Y663980D01*
X478453Y663819D01*
X478346Y663662D01*
X478332Y663630D01*
X478314Y663601D01*
X478241Y663424D01*
X478164Y663250D01*
X478156Y663216D01*
X478143Y663184D01*
X478103Y662997D01*
X478057Y662812D01*
X478055Y662778D01*
X478048Y662744D01*
X478029Y662432D01*
X478029Y595788D01*
X477178Y593734D01*
X475606Y592162D01*
X473552Y591311D01*
X446712Y591311D01*
X446549Y591297D01*
X446384Y591290D01*
X446325Y591277D01*
X446264Y591271D01*
X446105Y591228D01*
X445945Y591192D01*
X445888Y591169D01*
X445830Y591153D01*
X445681Y591082D01*
X445529Y591019D01*
X445478Y590986D01*
X445423Y590959D01*
X445289Y590864D01*
X445151Y590774D01*
X445093Y590723D01*
X445057Y590697D01*
X445014Y590654D01*
X444917Y590568D01*
X442636Y588286D01*
X438901Y586739D01*
X419619Y586739D01*
X415884Y588286D01*
X413026Y591144D01*
X411479Y594879D01*
X411479Y598921D01*
X413026Y602656D01*
X415884Y605514D01*
X419619Y607061D01*
X438901Y607061D01*
X442636Y605514D01*
X444917Y603232D01*
X445043Y603127D01*
X445164Y603015D01*
X445216Y602983D01*
X445262Y602944D01*
X445405Y602862D01*
X445544Y602774D01*
X445600Y602750D01*
X445653Y602720D01*
X445808Y602665D01*
X445960Y602603D01*
X446020Y602590D01*
X446078Y602569D01*
X446240Y602543D01*
X446401Y602508D01*
X446478Y602503D01*
X446522Y602496D01*
X446582Y602497D01*
X446712Y602489D01*
X464312Y602489D01*
X464347Y602492D01*
X464381Y602490D01*
X464570Y602512D01*
X464761Y602529D01*
X464794Y602538D01*
X464828Y602542D01*
X465011Y602597D01*
X465195Y602647D01*
X465226Y602662D01*
X465259Y602672D01*
X465430Y602759D01*
X465602Y602841D01*
X465630Y602861D01*
X465661Y602876D01*
X465813Y602992D01*
X465968Y603103D01*
X465992Y603128D01*
X466019Y603148D01*
X466148Y603288D01*
X466282Y603425D01*
X466301Y603454D01*
X466325Y603480D01*
X466427Y603641D01*
X466534Y603798D01*
X466548Y603830D01*
X466566Y603859D01*
X466639Y604036D01*
X466716Y604210D01*
X466724Y604244D01*
X466737Y604276D01*
X466777Y604463D01*
X466823Y604648D01*
X466825Y604682D01*
X466832Y604716D01*
X466851Y605028D01*
X466851Y695184D01*
X466837Y695348D01*
X466830Y695513D01*
X466817Y695572D01*
X466811Y695633D01*
X466768Y695792D01*
X466732Y695952D01*
X466709Y696008D01*
X466693Y696067D01*
X466622Y696216D01*
X466559Y696368D01*
X466526Y696419D01*
X466499Y696474D01*
X466404Y696607D01*
X466314Y696746D01*
X466263Y696803D01*
X466237Y696840D01*
X466194Y696883D01*
X466108Y696980D01*
X463295Y699792D01*
X463295Y703769D01*
X463281Y703933D01*
X463274Y704097D01*
X463261Y704157D01*
X463255Y704218D01*
X463212Y704377D01*
X463176Y704537D01*
X463153Y704593D01*
X463137Y704652D01*
X463066Y704800D01*
X463003Y704952D01*
X462970Y705004D01*
X462943Y705059D01*
X462848Y705192D01*
X462758Y705331D01*
X462707Y705388D01*
X462681Y705425D01*
X462638Y705467D01*
X462552Y705565D01*
X435309Y732808D01*
X435182Y732913D01*
X435062Y733025D01*
X435010Y733057D01*
X434963Y733096D01*
X434821Y733178D01*
X434682Y733266D01*
X434625Y733290D01*
X434572Y733320D01*
X434418Y733375D01*
X434265Y733437D01*
X434206Y733450D01*
X434148Y733471D01*
X433986Y733497D01*
X433825Y733532D01*
X433748Y733537D01*
X433704Y733544D01*
X433643Y733543D01*
X433513Y733551D01*
X288144Y733551D01*
X288015Y733540D01*
X287885Y733538D01*
X287791Y733520D01*
X287696Y733511D01*
X287570Y733477D01*
X287443Y733452D01*
X287353Y733418D01*
X287261Y733393D01*
X287144Y733337D01*
X287023Y733290D01*
X286941Y733240D01*
X286855Y733199D01*
X286749Y733124D01*
X286638Y733056D01*
X286566Y732993D01*
X286489Y732937D01*
X286398Y732844D01*
X286300Y732758D01*
X286241Y732683D01*
X286175Y732615D01*
X286102Y732507D01*
X286021Y732405D01*
X285976Y732321D01*
X285923Y732242D01*
X285870Y732123D01*
X285808Y732008D01*
X285779Y731917D01*
X285740Y731830D01*
X285709Y731703D01*
X285669Y731580D01*
X285656Y731485D01*
X285634Y731392D01*
X285626Y731263D01*
X285608Y731134D01*
X285612Y731038D01*
X285606Y730943D01*
X285621Y730814D01*
X285626Y730684D01*
X285647Y730591D01*
X285658Y730496D01*
X285696Y730371D01*
X285724Y730244D01*
X285761Y730156D01*
X285788Y730065D01*
X285847Y729949D01*
X285898Y729829D01*
X285949Y729749D01*
X285993Y729663D01*
X286071Y729560D01*
X286142Y729451D01*
X286228Y729353D01*
X286265Y729305D01*
X286298Y729274D01*
X286349Y729216D01*
X286604Y728961D01*
X301487Y714078D01*
X302261Y712211D01*
X302261Y622916D01*
X302275Y622753D01*
X302282Y622588D01*
X302295Y622529D01*
X302301Y622468D01*
X302344Y622309D01*
X302380Y622149D01*
X302403Y622092D01*
X302419Y622033D01*
X302490Y621885D01*
X302553Y621733D01*
X302586Y621682D01*
X302613Y621627D01*
X302708Y621493D01*
X302798Y621355D01*
X302849Y621297D01*
X302875Y621261D01*
X302918Y621218D01*
X303004Y621121D01*
X315956Y608169D01*
X315983Y608147D01*
X316006Y608121D01*
X316155Y608003D01*
X316301Y607880D01*
X316331Y607863D01*
X316359Y607842D01*
X316527Y607752D01*
X316692Y607657D01*
X316725Y607645D01*
X316756Y607629D01*
X316936Y607570D01*
X317117Y607506D01*
X317151Y607500D01*
X317184Y607490D01*
X317372Y607464D01*
X317561Y607433D01*
X317596Y607433D01*
X317630Y607428D01*
X317820Y607436D01*
X318011Y607439D01*
X318045Y607445D01*
X318080Y607447D01*
X318266Y607488D01*
X318453Y607524D01*
X318486Y607537D01*
X318519Y607544D01*
X318695Y607618D01*
X318873Y607687D01*
X318903Y607705D01*
X318935Y607718D01*
X319094Y607821D01*
X319258Y607920D01*
X319284Y607943D01*
X319313Y607962D01*
X319547Y608169D01*
X321056Y609678D01*
X324394Y611061D01*
X341086Y611061D01*
X344424Y609678D01*
X346978Y607124D01*
X348361Y603786D01*
X348361Y600174D01*
X346978Y596836D01*
X344424Y594282D01*
X341086Y592899D01*
X324394Y592899D01*
X321056Y594282D01*
X319182Y596156D01*
X319056Y596261D01*
X318935Y596373D01*
X318884Y596405D01*
X318837Y596444D01*
X318694Y596526D01*
X318556Y596614D01*
X318499Y596638D01*
X318446Y596668D01*
X318291Y596723D01*
X318139Y596785D01*
X318079Y596798D01*
X318022Y596819D01*
X317860Y596845D01*
X317699Y596880D01*
X317622Y596885D01*
X317578Y596892D01*
X317517Y596891D01*
X317387Y596899D01*
X313949Y596899D01*
X312082Y597673D01*
X292873Y616882D01*
X292099Y618749D01*
X292099Y708044D01*
X292085Y708207D01*
X292078Y708372D01*
X292065Y708431D01*
X292059Y708492D01*
X292016Y708651D01*
X291980Y708811D01*
X291957Y708868D01*
X291941Y708927D01*
X291870Y709075D01*
X291807Y709227D01*
X291774Y709278D01*
X291747Y709333D01*
X291652Y709467D01*
X291562Y709605D01*
X291511Y709663D01*
X291485Y709699D01*
X291442Y709742D01*
X291356Y709839D01*
X280579Y720616D01*
X280453Y720721D01*
X280332Y720833D01*
X280281Y720865D01*
X280234Y720904D01*
X280091Y720986D01*
X279952Y721074D01*
X279896Y721098D01*
X279843Y721128D01*
X279688Y721183D01*
X279536Y721245D01*
X279476Y721258D01*
X279419Y721279D01*
X279256Y721305D01*
X279096Y721340D01*
X279019Y721345D01*
X278974Y721352D01*
X278913Y721351D01*
X278784Y721359D01*
X195633Y721359D01*
X195503Y721348D01*
X195373Y721346D01*
X195280Y721328D01*
X195184Y721319D01*
X195059Y721285D01*
X194931Y721260D01*
X194842Y721226D01*
X194750Y721201D01*
X194633Y721145D01*
X194511Y721098D01*
X194429Y721048D01*
X194343Y721007D01*
X194238Y720932D01*
X194126Y720864D01*
X194055Y720801D01*
X193977Y720745D01*
X193887Y720652D01*
X193789Y720566D01*
X193730Y720491D01*
X193663Y720423D01*
X193590Y720315D01*
X193510Y720213D01*
X193465Y720129D01*
X193411Y720050D01*
X193358Y719931D01*
X193297Y719816D01*
X193268Y719725D01*
X193229Y719638D01*
X193198Y719511D01*
X193158Y719388D01*
X193145Y719293D01*
X193122Y719200D01*
X193114Y719071D01*
X193096Y718942D01*
X193100Y718846D01*
X193095Y718751D01*
X193110Y718622D01*
X193115Y718492D01*
X193136Y718399D01*
X193147Y718304D01*
X193184Y718179D01*
X193212Y718052D01*
X193249Y717964D01*
X193277Y717873D01*
X193336Y717757D01*
X193386Y717637D01*
X193438Y717557D01*
X193481Y717471D01*
X193560Y717368D01*
X193630Y717259D01*
X193716Y717161D01*
X193753Y717113D01*
X193786Y717082D01*
X193837Y717024D01*
X196490Y714371D01*
X199391Y707369D01*
X199391Y699791D01*
X196490Y692789D01*
X192597Y688896D01*
X192575Y688869D01*
X192549Y688846D01*
X192430Y688696D01*
X192309Y688550D01*
X192291Y688520D01*
X192270Y688493D01*
X192180Y688325D01*
X192085Y688159D01*
X192074Y688127D01*
X192057Y688096D01*
X191998Y687915D01*
X191934Y687735D01*
X191929Y687701D01*
X191918Y687668D01*
X191892Y687479D01*
X191861Y687291D01*
X191861Y687256D01*
X191857Y687222D01*
X191864Y687031D01*
X191867Y686841D01*
X191874Y686807D01*
X191875Y686772D01*
X191916Y686586D01*
X191953Y686399D01*
X191965Y686366D01*
X191973Y686332D01*
X192046Y686157D01*
X192115Y685979D01*
X192133Y685949D01*
X192146Y685917D01*
X192250Y685757D01*
X192349Y685594D01*
X192372Y685568D01*
X192391Y685539D01*
X192597Y685305D01*
X194578Y683324D01*
X195961Y679986D01*
X195961Y676374D01*
X194578Y673036D01*
X192024Y670482D01*
X188686Y669099D01*
X171994Y669099D01*
X168656Y670482D01*
X166102Y673036D01*
X164719Y676374D01*
X164719Y679986D01*
X166102Y683324D01*
X168083Y685305D01*
X168105Y685331D01*
X168131Y685354D01*
X168249Y685504D01*
X168371Y685650D01*
X168389Y685680D01*
X168410Y685707D01*
X168500Y685875D01*
X168595Y686041D01*
X168606Y686074D01*
X168623Y686104D01*
X168682Y686285D01*
X168746Y686465D01*
X168751Y686499D01*
X168762Y686532D01*
X168788Y686721D01*
X168819Y686909D01*
X168819Y686944D01*
X168823Y686978D01*
X168816Y687169D01*
X168813Y687360D01*
X168806Y687394D01*
X168805Y687428D01*
X168764Y687615D01*
X168727Y687802D01*
X168715Y687834D01*
X168707Y687868D01*
X168634Y688044D01*
X168565Y688222D01*
X168547Y688251D01*
X168534Y688283D01*
X168430Y688443D01*
X168331Y688606D01*
X168308Y688632D01*
X168289Y688662D01*
X168083Y688896D01*
X164190Y692789D01*
X161289Y699791D01*
X161289Y707369D01*
X164190Y714371D01*
X166843Y717024D01*
X166926Y717124D01*
X167017Y717217D01*
X167070Y717297D01*
X167132Y717370D01*
X167196Y717483D01*
X167269Y717590D01*
X167308Y717678D01*
X167355Y717761D01*
X167398Y717883D01*
X167451Y718002D01*
X167474Y718095D01*
X167506Y718185D01*
X167527Y718313D01*
X167558Y718440D01*
X167564Y718535D01*
X167579Y718629D01*
X167577Y718759D01*
X167585Y718889D01*
X167574Y718984D01*
X167573Y719080D01*
X167548Y719207D01*
X167533Y719336D01*
X167506Y719428D01*
X167488Y719522D01*
X167441Y719643D01*
X167403Y719767D01*
X167360Y719853D01*
X167325Y719942D01*
X167258Y720053D01*
X167199Y720169D01*
X167141Y720245D01*
X167091Y720326D01*
X167005Y720424D01*
X166927Y720527D01*
X166857Y720592D01*
X166793Y720664D01*
X166691Y720744D01*
X166596Y720833D01*
X166515Y720884D01*
X166440Y720943D01*
X166326Y721004D01*
X166216Y721074D01*
X166127Y721111D01*
X166043Y721156D01*
X165920Y721196D01*
X165799Y721245D01*
X165706Y721265D01*
X165615Y721295D01*
X165486Y721313D01*
X165359Y721340D01*
X165229Y721348D01*
X165169Y721356D01*
X165124Y721355D01*
X165047Y721359D01*
X163176Y721359D01*
X163013Y721345D01*
X162848Y721338D01*
X162789Y721325D01*
X162728Y721319D01*
X162569Y721276D01*
X162409Y721240D01*
X162352Y721217D01*
X162293Y721201D01*
X162145Y721130D01*
X161993Y721067D01*
X161942Y721034D01*
X161887Y721007D01*
X161753Y720912D01*
X161615Y720822D01*
X161557Y720771D01*
X161521Y720745D01*
X161478Y720702D01*
X161381Y720616D01*
X147048Y706283D01*
X146943Y706157D01*
X146831Y706036D01*
X146799Y705985D01*
X146760Y705938D01*
X146678Y705795D01*
X146590Y705656D01*
X146566Y705600D01*
X146536Y705547D01*
X146481Y705392D01*
X146419Y705240D01*
X146406Y705180D01*
X146385Y705123D01*
X146359Y704960D01*
X146324Y704800D01*
X146319Y704723D01*
X146312Y704678D01*
X146313Y704617D01*
X146305Y704488D01*
X146305Y699792D01*
X142984Y696472D01*
X142879Y696346D01*
X142767Y696225D01*
X142735Y696173D01*
X142696Y696126D01*
X142614Y695984D01*
X142526Y695845D01*
X142502Y695788D01*
X142472Y695736D01*
X142417Y695581D01*
X142355Y695428D01*
X142342Y695369D01*
X142321Y695311D01*
X142295Y695149D01*
X142260Y694988D01*
X142255Y694911D01*
X142248Y694867D01*
X142249Y694806D01*
X142241Y694676D01*
X142241Y611129D01*
X141467Y609262D01*
X119718Y587513D01*
X117851Y586739D01*
X99240Y586739D01*
X99077Y586725D01*
X98912Y586718D01*
X98853Y586705D01*
X98792Y586699D01*
X98633Y586656D01*
X98473Y586620D01*
X98416Y586597D01*
X98358Y586581D01*
X98209Y586510D01*
X98057Y586447D01*
X98006Y586414D01*
X97951Y586387D01*
X97817Y586292D01*
X97679Y586202D01*
X97621Y586151D01*
X97585Y586125D01*
X97542Y586082D01*
X97445Y585996D01*
X94656Y583206D01*
X90921Y581659D01*
X71639Y581659D01*
X67904Y583206D01*
X65046Y586064D01*
X63499Y589799D01*
X63499Y593841D01*
X65046Y597576D01*
X67904Y600434D01*
X71639Y601981D01*
X90921Y601981D01*
X94656Y600434D01*
X97445Y597644D01*
X97571Y597539D01*
X97692Y597427D01*
X97744Y597395D01*
X97790Y597356D01*
X97933Y597274D01*
X98072Y597186D01*
X98128Y597162D01*
X98181Y597132D01*
X98336Y597077D01*
X98488Y597015D01*
X98548Y597002D01*
X98606Y596981D01*
X98768Y596955D01*
X98929Y596920D01*
X99006Y596915D01*
X99050Y596908D01*
X99110Y596909D01*
X99240Y596901D01*
X113684Y596901D01*
X113847Y596915D01*
X114012Y596922D01*
X114071Y596935D01*
X114132Y596941D01*
X114291Y596984D01*
X114451Y597020D01*
X114508Y597043D01*
X114567Y597059D01*
X114715Y597130D01*
X114867Y597193D01*
X114918Y597226D01*
X114973Y597253D01*
X115107Y597348D01*
X115245Y597438D01*
X115303Y597489D01*
X115339Y597515D01*
X115382Y597558D01*
X115479Y597644D01*
X131336Y613501D01*
X131441Y613627D01*
X131553Y613748D01*
X131585Y613799D01*
X131624Y613846D01*
X131706Y613989D01*
X131794Y614128D01*
X131818Y614184D01*
X131848Y614237D01*
X131903Y614392D01*
X131965Y614544D01*
X131978Y614604D01*
X131999Y614661D01*
X132025Y614824D01*
X132060Y614984D01*
X132065Y615061D01*
X132072Y615106D01*
X132071Y615167D01*
X132079Y615296D01*
X132079Y694676D01*
X132065Y694840D01*
X132058Y695004D01*
X132045Y695064D01*
X132039Y695125D01*
X131996Y695284D01*
X131960Y695444D01*
X131937Y695500D01*
X131921Y695559D01*
X131850Y695707D01*
X131787Y695859D01*
X131754Y695911D01*
X131727Y695966D01*
X131632Y696099D01*
X131542Y696238D01*
X131491Y696295D01*
X131465Y696332D01*
X131422Y696374D01*
X131336Y696472D01*
X128015Y699792D01*
X128015Y707368D01*
X133372Y712725D01*
X138068Y712725D01*
X138231Y712739D01*
X138396Y712746D01*
X138455Y712759D01*
X138516Y712765D01*
X138675Y712808D01*
X138835Y712844D01*
X138892Y712867D01*
X138951Y712883D01*
X139099Y712954D01*
X139251Y713017D01*
X139302Y713050D01*
X139357Y713077D01*
X139491Y713172D01*
X139629Y713262D01*
X139687Y713313D01*
X139723Y713339D01*
X139766Y713382D01*
X139863Y713468D01*
X155611Y729216D01*
X155695Y729316D01*
X155785Y729409D01*
X155839Y729489D01*
X155900Y729562D01*
X155965Y729675D01*
X156037Y729782D01*
X156076Y729870D01*
X156124Y729953D01*
X156167Y730075D01*
X156220Y730194D01*
X156242Y730287D01*
X156274Y730377D01*
X156296Y730506D01*
X156326Y730632D01*
X156332Y730727D01*
X156348Y730821D01*
X156346Y730952D01*
X156354Y731081D01*
X156343Y731176D01*
X156342Y731272D01*
X156317Y731399D01*
X156302Y731528D01*
X156274Y731620D01*
X156256Y731714D01*
X156209Y731834D01*
X156172Y731959D01*
X156128Y732044D01*
X156094Y732134D01*
X156026Y732245D01*
X155967Y732361D01*
X155910Y732437D01*
X155860Y732518D01*
X155774Y732616D01*
X155695Y732719D01*
X155625Y732784D01*
X155562Y732856D01*
X155460Y732936D01*
X155364Y733025D01*
X155284Y733076D01*
X155209Y733135D01*
X155094Y733196D01*
X154984Y733266D01*
X154896Y733303D01*
X154812Y733348D01*
X154688Y733388D01*
X154568Y733437D01*
X154474Y733457D01*
X154384Y733487D01*
X154255Y733505D01*
X154128Y733532D01*
X153998Y733540D01*
X153937Y733548D01*
X153893Y733547D01*
X153816Y733551D01*
X74487Y733551D01*
X74323Y733537D01*
X74159Y733530D01*
X74099Y733517D01*
X74038Y733511D01*
X73879Y733468D01*
X73719Y733432D01*
X73663Y733409D01*
X73604Y733393D01*
X73456Y733322D01*
X73304Y733259D01*
X73252Y733226D01*
X73197Y733199D01*
X73064Y733104D01*
X72925Y733014D01*
X72868Y732963D01*
X72831Y732937D01*
X72789Y732894D01*
X72691Y732808D01*
X45448Y705565D01*
X45343Y705438D01*
X45231Y705318D01*
X45199Y705266D01*
X45160Y705219D01*
X45078Y705077D01*
X44990Y704938D01*
X44966Y704881D01*
X44936Y704828D01*
X44881Y704674D01*
X44819Y704521D01*
X44806Y704462D01*
X44785Y704404D01*
X44759Y704242D01*
X44724Y704081D01*
X44719Y704004D01*
X44712Y703960D01*
X44713Y703899D01*
X44705Y703769D01*
X44705Y699792D01*
X39348Y694435D01*
X36068Y694435D01*
X36033Y694432D01*
X35999Y694434D01*
X35810Y694412D01*
X35619Y694395D01*
X35586Y694386D01*
X35552Y694382D01*
X35369Y694327D01*
X35185Y694277D01*
X35154Y694262D01*
X35121Y694252D01*
X34950Y694165D01*
X34778Y694083D01*
X34750Y694063D01*
X34719Y694048D01*
X34567Y693932D01*
X34412Y693821D01*
X34388Y693796D01*
X34361Y693776D01*
X34232Y693636D01*
X34098Y693499D01*
X34079Y693470D01*
X34055Y693444D01*
X33953Y693283D01*
X33846Y693126D01*
X33832Y693094D01*
X33814Y693065D01*
X33741Y692888D01*
X33664Y692714D01*
X33656Y692680D01*
X33643Y692648D01*
X33603Y692461D01*
X33557Y692276D01*
X33555Y692242D01*
X33548Y692208D01*
X33529Y691896D01*
X33529Y650748D01*
X33532Y650713D01*
X33530Y650679D01*
X33552Y650490D01*
X33569Y650299D01*
X33578Y650266D01*
X33582Y650232D01*
X33637Y650049D01*
X33687Y649865D01*
X33702Y649834D01*
X33712Y649801D01*
X33799Y649630D01*
X33881Y649458D01*
X33901Y649430D01*
X33916Y649399D01*
X34032Y649247D01*
X34143Y649092D01*
X34168Y649068D01*
X34188Y649041D01*
X34328Y648912D01*
X34465Y648778D01*
X34494Y648759D01*
X34520Y648735D01*
X34681Y648633D01*
X34838Y648526D01*
X34870Y648512D01*
X34899Y648494D01*
X35076Y648421D01*
X35250Y648344D01*
X35284Y648336D01*
X35316Y648323D01*
X35503Y648283D01*
X35688Y648237D01*
X35722Y648235D01*
X35756Y648228D01*
X36068Y648209D01*
X63828Y648209D01*
X63991Y648223D01*
X64156Y648230D01*
X64215Y648243D01*
X64276Y648249D01*
X64435Y648292D01*
X64595Y648328D01*
X64652Y648351D01*
X64710Y648367D01*
X64859Y648438D01*
X65011Y648501D01*
X65062Y648534D01*
X65117Y648561D01*
X65251Y648656D01*
X65389Y648746D01*
X65447Y648797D01*
X65483Y648823D01*
X65526Y648866D01*
X65623Y648952D01*
X67904Y651234D01*
X71639Y652781D01*
X90921Y652781D01*
X94656Y651234D01*
X97514Y648376D01*
X99061Y644641D01*
X99061Y640599D01*
X97514Y636864D01*
X94656Y634006D01*
X90921Y632459D01*
X71639Y632459D01*
X67904Y634006D01*
X65623Y636288D01*
X65497Y636393D01*
X65376Y636505D01*
X65324Y636537D01*
X65278Y636576D01*
X65135Y636658D01*
X64996Y636746D01*
X64940Y636770D01*
X64887Y636800D01*
X64732Y636855D01*
X64580Y636917D01*
X64520Y636930D01*
X64462Y636951D01*
X64300Y636977D01*
X64139Y637012D01*
X64062Y637017D01*
X64018Y637024D01*
X63958Y637023D01*
X63828Y637031D01*
X36068Y637031D01*
X36033Y637028D01*
X35999Y637030D01*
X35810Y637008D01*
X35619Y636991D01*
X35586Y636982D01*
X35552Y636978D01*
X35369Y636923D01*
X35185Y636873D01*
X35154Y636858D01*
X35121Y636848D01*
X34950Y636761D01*
X34778Y636679D01*
X34750Y636659D01*
X34719Y636644D01*
X34567Y636528D01*
X34412Y636417D01*
X34388Y636392D01*
X34361Y636372D01*
X34232Y636232D01*
X34098Y636095D01*
X34079Y636066D01*
X34055Y636040D01*
X33953Y635879D01*
X33846Y635722D01*
X33832Y635690D01*
X33814Y635661D01*
X33741Y635484D01*
X33664Y635310D01*
X33656Y635276D01*
X33643Y635244D01*
X33603Y635057D01*
X33557Y634872D01*
X33555Y634838D01*
X33548Y634804D01*
X33529Y634492D01*
X33529Y508508D01*
X33532Y508473D01*
X33530Y508439D01*
X33552Y508250D01*
X33569Y508059D01*
X33578Y508026D01*
X33582Y507992D01*
X33637Y507809D01*
X33687Y507625D01*
X33702Y507594D01*
X33712Y507561D01*
X33799Y507390D01*
X33881Y507218D01*
X33901Y507190D01*
X33916Y507159D01*
X34032Y507007D01*
X34143Y506852D01*
X34168Y506828D01*
X34188Y506801D01*
X34328Y506672D01*
X34465Y506538D01*
X34494Y506519D01*
X34520Y506495D01*
X34681Y506393D01*
X34838Y506286D01*
X34870Y506272D01*
X34899Y506254D01*
X35076Y506181D01*
X35250Y506104D01*
X35284Y506096D01*
X35316Y506083D01*
X35503Y506043D01*
X35688Y505997D01*
X35722Y505995D01*
X35756Y505988D01*
X36068Y505969D01*
X63827Y505969D01*
X63991Y505983D01*
X64156Y505990D01*
X64215Y506003D01*
X64276Y506009D01*
X64435Y506052D01*
X64595Y506088D01*
X64652Y506111D01*
X64710Y506127D01*
X64858Y506198D01*
X65011Y506261D01*
X65062Y506294D01*
X65117Y506321D01*
X65250Y506416D01*
X65389Y506506D01*
X65447Y506557D01*
X65483Y506583D01*
X65526Y506626D01*
X65623Y506712D01*
X67904Y508994D01*
X71639Y510541D01*
X90921Y510541D01*
X94656Y508994D01*
X97514Y506136D01*
X99061Y502401D01*
X99061Y498359D01*
X97514Y494624D01*
X94656Y491766D01*
X90921Y490219D01*
X71639Y490219D01*
X67904Y491766D01*
X65623Y494048D01*
X65497Y494153D01*
X65376Y494265D01*
X65324Y494297D01*
X65278Y494336D01*
X65135Y494418D01*
X64996Y494506D01*
X64940Y494530D01*
X64887Y494560D01*
X64732Y494615D01*
X64580Y494677D01*
X64520Y494690D01*
X64462Y494711D01*
X64300Y494737D01*
X64139Y494772D01*
X64062Y494777D01*
X64018Y494784D01*
X63957Y494783D01*
X63827Y494791D01*
X36068Y494791D01*
X36033Y494788D01*
X35999Y494790D01*
X35810Y494768D01*
X35619Y494751D01*
X35586Y494742D01*
X35552Y494738D01*
X35369Y494683D01*
X35185Y494633D01*
X35154Y494618D01*
X35121Y494608D01*
X34950Y494521D01*
X34778Y494439D01*
X34750Y494419D01*
X34719Y494404D01*
X34567Y494288D01*
X34412Y494177D01*
X34388Y494152D01*
X34361Y494132D01*
X34232Y493992D01*
X34098Y493855D01*
X34079Y493826D01*
X34055Y493800D01*
X33953Y493639D01*
X33846Y493482D01*
X33832Y493450D01*
X33814Y493421D01*
X33741Y493244D01*
X33664Y493070D01*
X33656Y493036D01*
X33643Y493004D01*
X33603Y492817D01*
X33557Y492632D01*
X33555Y492598D01*
X33548Y492564D01*
X33529Y492252D01*
X33529Y368808D01*
X33532Y368773D01*
X33530Y368739D01*
X33552Y368550D01*
X33569Y368359D01*
X33578Y368326D01*
X33582Y368292D01*
X33637Y368109D01*
X33687Y367925D01*
X33702Y367894D01*
X33712Y367861D01*
X33799Y367690D01*
X33881Y367518D01*
X33901Y367490D01*
X33916Y367459D01*
X34032Y367307D01*
X34143Y367152D01*
X34168Y367128D01*
X34188Y367101D01*
X34328Y366972D01*
X34465Y366838D01*
X34494Y366819D01*
X34520Y366795D01*
X34681Y366693D01*
X34838Y366586D01*
X34870Y366572D01*
X34899Y366554D01*
X35076Y366481D01*
X35250Y366404D01*
X35284Y366396D01*
X35316Y366383D01*
X35503Y366343D01*
X35688Y366297D01*
X35722Y366295D01*
X35756Y366288D01*
X36068Y366269D01*
X66367Y366269D01*
X66531Y366283D01*
X66696Y366290D01*
X66755Y366303D01*
X66816Y366309D01*
X66975Y366352D01*
X67135Y366388D01*
X67192Y366411D01*
X67250Y366427D01*
X67398Y366498D01*
X67551Y366561D01*
X67602Y366594D01*
X67657Y366621D01*
X67790Y366716D01*
X67929Y366806D01*
X67987Y366857D01*
X68023Y366883D01*
X68066Y366926D01*
X68163Y367012D01*
X70444Y369294D01*
X74179Y370841D01*
X93461Y370841D01*
X97196Y369294D01*
X100054Y366436D01*
X101601Y362701D01*
X101601Y358659D01*
X100054Y354924D01*
X97196Y352066D01*
X93461Y350519D01*
X74179Y350519D01*
X70444Y352066D01*
X68163Y354348D01*
X68037Y354453D01*
X67916Y354565D01*
X67864Y354597D01*
X67818Y354636D01*
X67675Y354718D01*
X67536Y354806D01*
X67480Y354830D01*
X67427Y354860D01*
X67272Y354915D01*
X67120Y354977D01*
X67060Y354990D01*
X67002Y355011D01*
X66840Y355037D01*
X66679Y355072D01*
X66602Y355077D01*
X66558Y355084D01*
X66497Y355083D01*
X66367Y355091D01*
X36068Y355091D01*
X36033Y355088D01*
X35999Y355090D01*
X35810Y355068D01*
X35619Y355051D01*
X35586Y355042D01*
X35552Y355038D01*
X35369Y354983D01*
X35185Y354933D01*
X35154Y354918D01*
X35121Y354908D01*
X34950Y354821D01*
X34778Y354739D01*
X34750Y354719D01*
X34719Y354704D01*
X34567Y354588D01*
X34412Y354477D01*
X34388Y354452D01*
X34361Y354432D01*
X34232Y354292D01*
X34098Y354155D01*
X34079Y354126D01*
X34055Y354100D01*
X33953Y353939D01*
X33846Y353782D01*
X33832Y353750D01*
X33814Y353721D01*
X33741Y353544D01*
X33664Y353370D01*
X33656Y353336D01*
X33643Y353304D01*
X33603Y353117D01*
X33557Y352932D01*
X33555Y352898D01*
X33548Y352864D01*
X33529Y352552D01*
X33529Y303849D01*
X33543Y303685D01*
X33550Y303521D01*
X33563Y303461D01*
X33569Y303400D01*
X33612Y303241D01*
X33648Y303081D01*
X33671Y303025D01*
X33687Y302966D01*
X33758Y302818D01*
X33821Y302666D01*
X33854Y302614D01*
X33881Y302559D01*
X33976Y302426D01*
X34066Y302287D01*
X34117Y302230D01*
X34143Y302193D01*
X34186Y302151D01*
X34272Y302053D01*
X54911Y281414D01*
X55038Y281309D01*
X55158Y281197D01*
X55210Y281165D01*
X55257Y281126D01*
X55399Y281044D01*
X55538Y280956D01*
X55595Y280932D01*
X55648Y280902D01*
X55802Y280847D01*
X55955Y280785D01*
X56014Y280772D01*
X56072Y280751D01*
X56234Y280725D01*
X56395Y280690D01*
X56472Y280685D01*
X56516Y280678D01*
X56577Y280679D01*
X56707Y280671D01*
X163777Y280671D01*
X163907Y280682D01*
X164037Y280684D01*
X164130Y280702D01*
X164226Y280711D01*
X164351Y280745D01*
X164479Y280770D01*
X164568Y280804D01*
X164660Y280829D01*
X164777Y280885D01*
X164899Y280932D01*
X164981Y280982D01*
X165067Y281023D01*
X165172Y281098D01*
X165284Y281166D01*
X165355Y281229D01*
X165433Y281285D01*
X165523Y281378D01*
X165621Y281464D01*
X165680Y281539D01*
X165747Y281607D01*
X165820Y281715D01*
X165900Y281817D01*
X165945Y281901D01*
X165999Y281980D01*
X166052Y282099D01*
X166113Y282214D01*
X166142Y282305D01*
X166181Y282392D01*
X166212Y282518D01*
X166252Y282642D01*
X166265Y282737D01*
X166288Y282830D01*
X166296Y282959D01*
X166314Y283088D01*
X166310Y283184D01*
X166315Y283279D01*
X166300Y283408D01*
X166295Y283538D01*
X166274Y283631D01*
X166263Y283726D01*
X166226Y283851D01*
X166198Y283978D01*
X166161Y284066D01*
X166133Y284157D01*
X166074Y284273D01*
X166024Y284393D01*
X165972Y284473D01*
X165929Y284559D01*
X165850Y284662D01*
X165780Y284771D01*
X165693Y284869D01*
X165657Y284917D01*
X165624Y284948D01*
X165573Y285006D01*
X164190Y286389D01*
X161289Y293391D01*
X161289Y300969D01*
X164190Y307971D01*
X168083Y311864D01*
X168105Y311891D01*
X168131Y311914D01*
X168250Y312064D01*
X168371Y312210D01*
X168389Y312240D01*
X168410Y312267D01*
X168500Y312435D01*
X168595Y312601D01*
X168606Y312633D01*
X168623Y312664D01*
X168682Y312845D01*
X168746Y313025D01*
X168751Y313059D01*
X168762Y313092D01*
X168788Y313281D01*
X168819Y313469D01*
X168819Y313504D01*
X168823Y313538D01*
X168816Y313729D01*
X168813Y313919D01*
X168806Y313953D01*
X168805Y313988D01*
X168764Y314174D01*
X168727Y314361D01*
X168715Y314394D01*
X168707Y314428D01*
X168634Y314603D01*
X168565Y314781D01*
X168547Y314811D01*
X168534Y314843D01*
X168430Y315003D01*
X168331Y315166D01*
X168308Y315192D01*
X168289Y315221D01*
X168083Y315455D01*
X166102Y317436D01*
X164719Y320774D01*
X164719Y324386D01*
X166102Y327724D01*
X168656Y330278D01*
X171994Y331661D01*
X188686Y331661D01*
X192024Y330278D01*
X194578Y327724D01*
X195961Y324386D01*
X195961Y320774D01*
X194578Y317436D01*
X192597Y315455D01*
X192575Y315429D01*
X192549Y315406D01*
X192431Y315256D01*
X192309Y315110D01*
X192291Y315080D01*
X192270Y315053D01*
X192180Y314885D01*
X192085Y314719D01*
X192074Y314686D01*
X192057Y314656D01*
X191998Y314475D01*
X191934Y314295D01*
X191929Y314261D01*
X191918Y314228D01*
X191892Y314039D01*
X191861Y313851D01*
X191861Y313816D01*
X191857Y313782D01*
X191864Y313591D01*
X191867Y313400D01*
X191874Y313366D01*
X191875Y313332D01*
X191916Y313145D01*
X191953Y312958D01*
X191965Y312926D01*
X191973Y312892D01*
X192046Y312716D01*
X192115Y312538D01*
X192133Y312509D01*
X192146Y312477D01*
X192250Y312317D01*
X192349Y312154D01*
X192372Y312128D01*
X192391Y312098D01*
X192597Y311864D01*
X196490Y307971D01*
X199391Y300969D01*
X199391Y293391D01*
X196490Y286389D01*
X195107Y285006D01*
X195024Y284906D01*
X194933Y284813D01*
X194880Y284733D01*
X194818Y284660D01*
X194754Y284547D01*
X194681Y284440D01*
X194642Y284352D01*
X194595Y284269D01*
X194551Y284147D01*
X194499Y284028D01*
X194476Y283935D01*
X194444Y283845D01*
X194423Y283717D01*
X194392Y283590D01*
X194386Y283495D01*
X194371Y283401D01*
X194373Y283271D01*
X194365Y283141D01*
X194376Y283046D01*
X194377Y282950D01*
X194402Y282823D01*
X194417Y282694D01*
X194444Y282602D01*
X194462Y282508D01*
X194509Y282387D01*
X194547Y282263D01*
X194590Y282177D01*
X194625Y282088D01*
X194692Y281977D01*
X194751Y281861D01*
X194809Y281785D01*
X194859Y281704D01*
X194945Y281606D01*
X195023Y281503D01*
X195093Y281438D01*
X195157Y281366D01*
X195259Y281286D01*
X195354Y281197D01*
X195435Y281146D01*
X195510Y281087D01*
X195624Y281025D01*
X195734Y280956D01*
X195822Y280919D01*
X195907Y280874D01*
X196031Y280834D01*
X196151Y280785D01*
X196244Y280765D01*
X196335Y280735D01*
X196464Y280717D01*
X196591Y280690D01*
X196721Y280682D01*
X196781Y280674D01*
X196826Y280675D01*
X196903Y280671D01*
X198055Y280671D01*
X198219Y280685D01*
X198383Y280692D01*
X198443Y280705D01*
X198504Y280711D01*
X198663Y280754D01*
X198823Y280790D01*
X198879Y280813D01*
X198938Y280829D01*
X199086Y280900D01*
X199238Y280963D01*
X199290Y280996D01*
X199345Y281023D01*
X199478Y281118D01*
X199617Y281208D01*
X199674Y281259D01*
X199711Y281285D01*
X199753Y281328D01*
X199851Y281414D01*
X204488Y286051D01*
X204593Y286178D01*
X204705Y286298D01*
X204737Y286350D01*
X204776Y286397D01*
X204858Y286539D01*
X204946Y286678D01*
X204970Y286735D01*
X205000Y286788D01*
X205055Y286942D01*
X205117Y287095D01*
X205130Y287154D01*
X205151Y287212D01*
X205177Y287374D01*
X205212Y287535D01*
X205217Y287612D01*
X205224Y287656D01*
X205223Y287717D01*
X205231Y287847D01*
X205231Y390333D01*
X205217Y390497D01*
X205210Y390662D01*
X205197Y390721D01*
X205191Y390782D01*
X205148Y390941D01*
X205112Y391101D01*
X205089Y391157D01*
X205073Y391216D01*
X205002Y391364D01*
X204939Y391517D01*
X204906Y391568D01*
X204879Y391623D01*
X204784Y391756D01*
X204694Y391895D01*
X204643Y391953D01*
X204617Y391989D01*
X204574Y392031D01*
X204487Y392129D01*
X204169Y392448D01*
X204043Y392553D01*
X203922Y392665D01*
X203870Y392697D01*
X203823Y392737D01*
X203681Y392818D01*
X203542Y392906D01*
X203485Y392930D01*
X203432Y392960D01*
X203277Y393015D01*
X203125Y393077D01*
X203066Y393090D01*
X203008Y393111D01*
X202846Y393137D01*
X202685Y393172D01*
X202608Y393177D01*
X202564Y393184D01*
X202503Y393183D01*
X202373Y393191D01*
X195185Y393191D01*
X195021Y393177D01*
X194857Y393170D01*
X194798Y393157D01*
X194737Y393151D01*
X194578Y393108D01*
X194417Y393072D01*
X194361Y393049D01*
X194302Y393033D01*
X194154Y392962D01*
X194002Y392899D01*
X193951Y392866D01*
X193896Y392839D01*
X193762Y392744D01*
X193624Y392654D01*
X193566Y392603D01*
X193530Y392577D01*
X193487Y392534D01*
X193390Y392448D01*
X192024Y391082D01*
X188686Y389699D01*
X171994Y389699D01*
X168656Y391082D01*
X166102Y393636D01*
X164719Y396974D01*
X164719Y400586D01*
X166102Y403924D01*
X168656Y406478D01*
X171994Y407861D01*
X188686Y407861D01*
X192024Y406478D01*
X193390Y405112D01*
X193516Y405007D01*
X193637Y404895D01*
X193688Y404863D01*
X193735Y404824D01*
X193878Y404742D01*
X194017Y404654D01*
X194073Y404630D01*
X194126Y404600D01*
X194281Y404545D01*
X194433Y404483D01*
X194493Y404470D01*
X194550Y404449D01*
X194713Y404423D01*
X194873Y404388D01*
X194950Y404383D01*
X194994Y404376D01*
X195056Y404377D01*
X195185Y404369D01*
X206852Y404369D01*
X208906Y403518D01*
X213629Y398795D01*
X215558Y396866D01*
X216409Y394812D01*
X216409Y283368D01*
X215558Y281314D01*
X204588Y270344D01*
X202534Y269493D01*
X115127Y269493D01*
X114963Y269479D01*
X114799Y269472D01*
X114739Y269459D01*
X114678Y269453D01*
X114519Y269410D01*
X114359Y269374D01*
X114303Y269351D01*
X114244Y269335D01*
X114096Y269264D01*
X113944Y269201D01*
X113892Y269168D01*
X113837Y269141D01*
X113704Y269046D01*
X113565Y268956D01*
X113508Y268905D01*
X113471Y268879D01*
X113429Y268836D01*
X113331Y268750D01*
X102852Y258271D01*
X102747Y258144D01*
X102685Y258077D01*
X102678Y258071D01*
X102677Y258069D01*
X102635Y258024D01*
X102603Y257972D01*
X102564Y257925D01*
X102482Y257783D01*
X102452Y257736D01*
X102426Y257698D01*
X102423Y257690D01*
X102394Y257644D01*
X102370Y257587D01*
X102340Y257534D01*
X102285Y257380D01*
X102280Y257367D01*
X102244Y257286D01*
X102240Y257270D01*
X102223Y257227D01*
X102210Y257168D01*
X102189Y257110D01*
X102164Y256959D01*
X102137Y256848D01*
X102136Y256824D01*
X102128Y256787D01*
X102123Y256710D01*
X102116Y256666D01*
X102117Y256605D01*
X102109Y256475D01*
X102109Y244616D01*
X102123Y244452D01*
X102130Y244288D01*
X102143Y244228D01*
X102149Y244167D01*
X102192Y244008D01*
X102228Y243848D01*
X102251Y243792D01*
X102267Y243733D01*
X102338Y243585D01*
X102401Y243433D01*
X102434Y243381D01*
X102461Y243326D01*
X102556Y243193D01*
X102646Y243054D01*
X102697Y242997D01*
X102723Y242960D01*
X102766Y242918D01*
X102852Y242820D01*
X103120Y242552D01*
X103246Y242447D01*
X103367Y242335D01*
X103419Y242303D01*
X103466Y242264D01*
X103608Y242182D01*
X103747Y242094D01*
X103804Y242070D01*
X103856Y242040D01*
X104011Y241985D01*
X104164Y241923D01*
X104223Y241910D01*
X104281Y241889D01*
X104443Y241863D01*
X104604Y241828D01*
X104681Y241823D01*
X104725Y241816D01*
X104786Y241817D01*
X104916Y241809D01*
X133844Y241809D01*
X134008Y241823D01*
X134172Y241830D01*
X134232Y241843D01*
X134293Y241849D01*
X134452Y241892D01*
X134612Y241928D01*
X134668Y241951D01*
X134727Y241967D01*
X134875Y242038D01*
X135027Y242101D01*
X135079Y242134D01*
X135134Y242161D01*
X135267Y242256D01*
X135406Y242346D01*
X135463Y242397D01*
X135500Y242423D01*
X135542Y242466D01*
X135640Y242552D01*
X138452Y245365D01*
X146028Y245365D01*
X151385Y240008D01*
X151385Y232432D01*
X146028Y227075D01*
X138452Y227075D01*
X135640Y229888D01*
X135514Y229993D01*
X135393Y230105D01*
X135341Y230137D01*
X135294Y230176D01*
X135152Y230258D01*
X135013Y230346D01*
X134956Y230370D01*
X134904Y230400D01*
X134749Y230455D01*
X134596Y230517D01*
X134537Y230530D01*
X134479Y230551D01*
X134317Y230577D01*
X134156Y230612D01*
X134079Y230617D01*
X134035Y230624D01*
X133974Y230623D01*
X133844Y230631D01*
X104916Y230631D01*
X104752Y230617D01*
X104588Y230610D01*
X104528Y230597D01*
X104467Y230591D01*
X104308Y230548D01*
X104148Y230512D01*
X104092Y230489D01*
X104033Y230473D01*
X103885Y230402D01*
X103733Y230339D01*
X103681Y230306D01*
X103626Y230279D01*
X103493Y230184D01*
X103354Y230094D01*
X103297Y230043D01*
X103260Y230017D01*
X103218Y229974D01*
X103120Y229888D01*
X102852Y229620D01*
X102747Y229494D01*
X102635Y229373D01*
X102603Y229321D01*
X102564Y229274D01*
X102482Y229132D01*
X102394Y228993D01*
X102370Y228936D01*
X102340Y228884D01*
X102285Y228729D01*
X102223Y228576D01*
X102210Y228517D01*
X102189Y228459D01*
X102163Y228297D01*
X102128Y228136D01*
X102123Y228059D01*
X102116Y228015D01*
X102117Y227954D01*
X102109Y227824D01*
X102109Y77628D01*
X101258Y75574D01*
X93519Y67836D01*
X93497Y67809D01*
X93471Y67786D01*
X93353Y67637D01*
X93230Y67490D01*
X93213Y67460D01*
X93192Y67433D01*
X93102Y67265D01*
X93007Y67099D01*
X92995Y67067D01*
X92979Y67036D01*
X92920Y66855D01*
X92856Y66675D01*
X92850Y66641D01*
X92840Y66608D01*
X92814Y66419D01*
X92783Y66231D01*
X92783Y66196D01*
X92778Y66162D01*
X92786Y65971D01*
X92789Y65781D01*
X92795Y65746D01*
X92797Y65712D01*
X92838Y65526D01*
X92874Y65338D01*
X92887Y65306D01*
X92894Y65272D01*
X92968Y65096D01*
X92972Y65086D01*
X92975Y65077D01*
X92978Y65070D01*
X93037Y64918D01*
X93055Y64889D01*
X93068Y64857D01*
X93156Y64720D01*
X93179Y64676D01*
X93205Y64641D01*
X93270Y64534D01*
X93293Y64508D01*
X93312Y64479D01*
X93425Y64351D01*
X93451Y64317D01*
X93474Y64296D01*
X93519Y64244D01*
X115871Y41892D01*
X115998Y41787D01*
X116118Y41675D01*
X116170Y41643D01*
X116217Y41604D01*
X116359Y41522D01*
X116498Y41434D01*
X116555Y41410D01*
X116608Y41380D01*
X116762Y41325D01*
X116915Y41263D01*
X116974Y41250D01*
X117032Y41229D01*
X117194Y41203D01*
X117355Y41168D01*
X117432Y41163D01*
X117476Y41156D01*
X117537Y41157D01*
X117667Y41149D01*
X410653Y41149D01*
X410817Y41163D01*
X410981Y41170D01*
X411041Y41183D01*
X411102Y41189D01*
X411261Y41232D01*
X411421Y41268D01*
X411477Y41291D01*
X411536Y41307D01*
X411684Y41378D01*
X411836Y41441D01*
X411888Y41474D01*
X411943Y41501D01*
X412076Y41596D01*
X412215Y41686D01*
X412272Y41737D01*
X412309Y41763D01*
X412351Y41806D01*
X412449Y41892D01*
X423554Y52998D01*
X425608Y53849D01*
X454152Y53849D01*
X454187Y53852D01*
X454221Y53850D01*
X454410Y53872D01*
X454601Y53889D01*
X454634Y53898D01*
X454668Y53902D01*
X454851Y53957D01*
X455035Y54007D01*
X455066Y54022D01*
X455099Y54032D01*
X455270Y54119D01*
X455442Y54201D01*
X455470Y54221D01*
X455501Y54236D01*
X455653Y54352D01*
X455808Y54463D01*
X455832Y54488D01*
X455859Y54508D01*
X455988Y54648D01*
X456122Y54785D01*
X456141Y54814D01*
X456165Y54840D01*
X456267Y55001D01*
X456374Y55158D01*
X456388Y55190D01*
X456406Y55219D01*
X456479Y55396D01*
X456556Y55570D01*
X456564Y55604D01*
X456577Y55636D01*
X456617Y55823D01*
X456663Y56008D01*
X456665Y56042D01*
X456672Y56076D01*
X456691Y56388D01*
X456691Y92552D01*
X457542Y94606D01*
X459471Y96535D01*
X481416Y118480D01*
X481514Y118597D01*
X481619Y118708D01*
X481658Y118769D01*
X481705Y118825D01*
X481781Y118958D01*
X481864Y119086D01*
X481892Y119153D01*
X481928Y119216D01*
X481979Y119360D01*
X482039Y119501D01*
X482055Y119572D01*
X482079Y119640D01*
X482104Y119791D01*
X482137Y119940D01*
X482141Y120013D01*
X482152Y120084D01*
X482150Y120238D01*
X482157Y120390D01*
X482147Y120462D01*
X482146Y120535D01*
X482117Y120685D01*
X482097Y120836D01*
X482075Y120905D01*
X482061Y120977D01*
X482006Y121119D01*
X481959Y121265D01*
X481917Y121349D01*
X481898Y121397D01*
X481869Y121445D01*
X481819Y121545D01*
X480780Y123345D01*
X478789Y130774D01*
X478789Y138466D01*
X480780Y145895D01*
X484626Y152556D01*
X490064Y157994D01*
X496725Y161840D01*
X500529Y162859D01*
X500673Y162912D01*
X500819Y162956D01*
X500884Y162989D01*
X500952Y163014D01*
X501084Y163091D01*
X501221Y163161D01*
X501278Y163204D01*
X501341Y163241D01*
X501457Y163340D01*
X501579Y163433D01*
X501629Y163486D01*
X501684Y163533D01*
X501781Y163651D01*
X501885Y163764D01*
X501924Y163825D01*
X501970Y163881D01*
X502044Y164014D01*
X502126Y164143D01*
X502154Y164211D01*
X502189Y164274D01*
X502239Y164419D01*
X502297Y164560D01*
X502313Y164631D01*
X502336Y164699D01*
X502360Y164851D01*
X502392Y165000D01*
X502398Y165094D01*
X502406Y165144D01*
X502404Y165201D01*
X502411Y165312D01*
X502411Y344613D01*
X502397Y344777D01*
X502390Y344941D01*
X502377Y345001D01*
X502371Y345062D01*
X502328Y345221D01*
X502292Y345381D01*
X502269Y345437D01*
X502253Y345496D01*
X502182Y345644D01*
X502119Y345796D01*
X502086Y345848D01*
X502059Y345903D01*
X501964Y346036D01*
X501874Y346175D01*
X501823Y346232D01*
X501797Y346269D01*
X501754Y346311D01*
X501668Y346409D01*
X495642Y352434D01*
X494791Y354488D01*
X494791Y360581D01*
X494788Y360614D01*
X494790Y360646D01*
X494779Y360741D01*
X494778Y360841D01*
X494760Y360935D01*
X494751Y361030D01*
X494741Y361066D01*
X494738Y361094D01*
X494713Y361178D01*
X494692Y361283D01*
X494658Y361372D01*
X494633Y361464D01*
X494615Y361503D01*
X494608Y361525D01*
X494571Y361597D01*
X494530Y361703D01*
X494480Y361785D01*
X494439Y361871D01*
X494412Y361909D01*
X494404Y361926D01*
X494359Y361985D01*
X494296Y362088D01*
X494233Y362159D01*
X494177Y362237D01*
X494140Y362273D01*
X494132Y362285D01*
X494081Y362331D01*
X493998Y362425D01*
X493923Y362484D01*
X493855Y362551D01*
X493809Y362582D01*
X493800Y362590D01*
X493747Y362624D01*
X493645Y362705D01*
X493561Y362750D01*
X493482Y362803D01*
X493428Y362827D01*
X493421Y362832D01*
X493374Y362851D01*
X493363Y362856D01*
X493248Y362917D01*
X493157Y362947D01*
X493070Y362985D01*
X493011Y363000D01*
X493004Y363003D01*
X492964Y363011D01*
X492943Y363016D01*
X492820Y363056D01*
X492725Y363069D01*
X492632Y363092D01*
X492571Y363096D01*
X492564Y363097D01*
X492489Y363102D01*
X492374Y363118D01*
X492288Y363114D01*
X492252Y363116D01*
X492248Y363116D01*
X492243Y363116D01*
X492183Y363120D01*
X492054Y363105D01*
X491924Y363099D01*
X491836Y363080D01*
X491799Y363077D01*
X491790Y363074D01*
X491736Y363068D01*
X491611Y363030D01*
X491484Y363002D01*
X491407Y362970D01*
X491365Y362958D01*
X491351Y362951D01*
X491305Y362937D01*
X491189Y362878D01*
X491069Y362828D01*
X491005Y362787D01*
X490958Y362765D01*
X490940Y362752D01*
X490903Y362733D01*
X490800Y362654D01*
X490691Y362584D01*
X490626Y362527D01*
X490592Y362503D01*
X490572Y362482D01*
X490545Y362461D01*
X490514Y362428D01*
X490456Y362377D01*
X483044Y354964D01*
X471601Y354964D01*
X471569Y354977D01*
X471510Y354990D01*
X471452Y355011D01*
X471290Y355037D01*
X471129Y355072D01*
X471052Y355077D01*
X471008Y355084D01*
X470947Y355083D01*
X470817Y355091D01*
X446713Y355091D01*
X446549Y355077D01*
X446384Y355070D01*
X446325Y355057D01*
X446264Y355051D01*
X446105Y355008D01*
X445945Y354972D01*
X445888Y354949D01*
X445830Y354933D01*
X445682Y354862D01*
X445529Y354799D01*
X445478Y354766D01*
X445423Y354739D01*
X445290Y354644D01*
X445151Y354554D01*
X445093Y354503D01*
X445057Y354477D01*
X445014Y354434D01*
X444917Y354348D01*
X442636Y352066D01*
X438901Y350519D01*
X419619Y350519D01*
X415884Y352066D01*
X413493Y354457D01*
X413467Y354479D01*
X413444Y354505D01*
X413295Y354623D01*
X413148Y354746D01*
X413118Y354763D01*
X413091Y354785D01*
X412923Y354875D01*
X412757Y354969D01*
X412725Y354981D01*
X412694Y354997D01*
X412513Y355056D01*
X412333Y355120D01*
X412299Y355126D01*
X412266Y355137D01*
X412077Y355162D01*
X411889Y355194D01*
X411854Y355193D01*
X411820Y355198D01*
X411629Y355190D01*
X411438Y355188D01*
X411404Y355181D01*
X411370Y355180D01*
X411184Y355138D01*
X410996Y355102D01*
X410964Y355090D01*
X410930Y355082D01*
X410754Y355008D01*
X410576Y354940D01*
X410547Y354922D01*
X410515Y354908D01*
X410354Y354805D01*
X410192Y354706D01*
X410166Y354683D01*
X410137Y354664D01*
X409902Y354457D01*
X379204Y323759D01*
X379099Y323633D01*
X378987Y323512D01*
X378955Y323461D01*
X378916Y323414D01*
X378834Y323271D01*
X378746Y323132D01*
X378722Y323076D01*
X378692Y323023D01*
X378637Y322868D01*
X378575Y322716D01*
X378562Y322656D01*
X378541Y322599D01*
X378515Y322436D01*
X378480Y322276D01*
X378475Y322199D01*
X378468Y322154D01*
X378469Y322093D01*
X378461Y321964D01*
X378461Y318784D01*
X378475Y318620D01*
X378482Y318456D01*
X378495Y318396D01*
X378501Y318335D01*
X378544Y318176D01*
X378580Y318016D01*
X378603Y317960D01*
X378619Y317901D01*
X378690Y317753D01*
X378753Y317601D01*
X378786Y317549D01*
X378813Y317494D01*
X378908Y317361D01*
X378998Y317222D01*
X379049Y317165D01*
X379075Y317128D01*
X379118Y317086D01*
X379204Y316988D01*
X382525Y313668D01*
X382525Y306092D01*
X377168Y300735D01*
X369375Y300735D01*
X369359Y300744D01*
X369237Y300788D01*
X369118Y300840D01*
X369025Y300863D01*
X368935Y300895D01*
X368807Y300916D01*
X368680Y300947D01*
X368585Y300953D01*
X368491Y300968D01*
X368361Y300967D01*
X368231Y300975D01*
X368136Y300964D01*
X368041Y300962D01*
X367913Y300938D01*
X367784Y300923D01*
X367692Y300895D01*
X367599Y300877D01*
X367477Y300830D01*
X367353Y300792D01*
X367267Y300749D01*
X367179Y300715D01*
X367067Y300647D01*
X366951Y300588D01*
X366875Y300530D01*
X366794Y300481D01*
X366696Y300394D01*
X366593Y300316D01*
X366528Y300246D01*
X366456Y300183D01*
X366376Y300081D01*
X366287Y299985D01*
X366236Y299904D01*
X366177Y299829D01*
X366116Y299715D01*
X366046Y299605D01*
X366009Y299517D01*
X365964Y299433D01*
X365924Y299309D01*
X365875Y299188D01*
X365855Y299095D01*
X365825Y299004D01*
X365807Y298876D01*
X365780Y298748D01*
X365772Y298618D01*
X365764Y298558D01*
X365765Y298514D01*
X365761Y298436D01*
X365761Y291089D01*
X364987Y289222D01*
X348318Y272553D01*
X346451Y271779D01*
X328944Y271779D01*
X328814Y271768D01*
X328684Y271766D01*
X328590Y271748D01*
X328495Y271739D01*
X328370Y271705D01*
X328242Y271680D01*
X328153Y271646D01*
X328061Y271621D01*
X327944Y271565D01*
X327822Y271518D01*
X327740Y271468D01*
X327654Y271427D01*
X327549Y271352D01*
X327437Y271284D01*
X327366Y271221D01*
X327288Y271165D01*
X327197Y271072D01*
X327100Y270986D01*
X327041Y270911D01*
X326974Y270843D01*
X326901Y270735D01*
X326821Y270633D01*
X326775Y270549D01*
X326722Y270470D01*
X326669Y270351D01*
X326608Y270236D01*
X326578Y270145D01*
X326540Y270058D01*
X326509Y269931D01*
X326469Y269808D01*
X326456Y269713D01*
X326433Y269620D01*
X326425Y269491D01*
X326407Y269362D01*
X326411Y269266D01*
X326405Y269171D01*
X326420Y269042D01*
X326426Y268912D01*
X326446Y268819D01*
X326457Y268724D01*
X326495Y268599D01*
X326523Y268472D01*
X326560Y268384D01*
X326588Y268293D01*
X326647Y268177D01*
X326697Y268057D01*
X326749Y267977D01*
X326792Y267891D01*
X326871Y267788D01*
X326941Y267679D01*
X327027Y267581D01*
X327064Y267533D01*
X327097Y267502D01*
X327148Y267444D01*
X331725Y262868D01*
X331725Y261619D01*
X322580Y261619D01*
X313435Y261619D01*
X313435Y262868D01*
X318012Y267444D01*
X318095Y267544D01*
X318186Y267637D01*
X318240Y267717D01*
X318301Y267790D01*
X318365Y267903D01*
X318438Y268010D01*
X318477Y268098D01*
X318524Y268181D01*
X318568Y268303D01*
X318620Y268422D01*
X318643Y268515D01*
X318675Y268605D01*
X318696Y268733D01*
X318727Y268860D01*
X318733Y268955D01*
X318748Y269049D01*
X318747Y269179D01*
X318755Y269309D01*
X318744Y269404D01*
X318742Y269500D01*
X318718Y269627D01*
X318703Y269756D01*
X318675Y269848D01*
X318657Y269942D01*
X318610Y270063D01*
X318572Y270187D01*
X318529Y270272D01*
X318495Y270362D01*
X318427Y270473D01*
X318368Y270589D01*
X318310Y270665D01*
X318261Y270746D01*
X318174Y270844D01*
X318096Y270947D01*
X318026Y271012D01*
X317962Y271084D01*
X317860Y271164D01*
X317765Y271253D01*
X317684Y271304D01*
X317609Y271363D01*
X317495Y271424D01*
X317385Y271494D01*
X317297Y271531D01*
X317212Y271576D01*
X317089Y271616D01*
X316968Y271665D01*
X316875Y271685D01*
X316784Y271715D01*
X316656Y271733D01*
X316528Y271760D01*
X316399Y271768D01*
X316338Y271776D01*
X316293Y271775D01*
X316216Y271779D01*
X268229Y271779D01*
X266362Y272553D01*
X249693Y289222D01*
X248919Y291089D01*
X248919Y507384D01*
X248905Y507547D01*
X248898Y507712D01*
X248885Y507771D01*
X248879Y507832D01*
X248836Y507991D01*
X248800Y508151D01*
X248777Y508208D01*
X248761Y508267D01*
X248690Y508415D01*
X248627Y508567D01*
X248594Y508618D01*
X248567Y508673D01*
X248472Y508807D01*
X248382Y508945D01*
X248331Y509003D01*
X248305Y509039D01*
X248262Y509082D01*
X248176Y509179D01*
X211999Y545356D01*
X211873Y545461D01*
X211752Y545573D01*
X211701Y545605D01*
X211654Y545644D01*
X211511Y545726D01*
X211372Y545814D01*
X211316Y545838D01*
X211263Y545868D01*
X211108Y545923D01*
X210956Y545985D01*
X210896Y545998D01*
X210839Y546019D01*
X210676Y546045D01*
X210516Y546080D01*
X210439Y546085D01*
X210394Y546092D01*
X210333Y546091D01*
X210204Y546099D01*
X195693Y546099D01*
X195529Y546085D01*
X195365Y546078D01*
X195305Y546065D01*
X195245Y546059D01*
X195086Y546016D01*
X194925Y545980D01*
X194869Y545957D01*
X194810Y545941D01*
X194662Y545870D01*
X194510Y545807D01*
X194459Y545774D01*
X194404Y545747D01*
X194270Y545652D01*
X194132Y545562D01*
X194074Y545511D01*
X194038Y545485D01*
X193995Y545442D01*
X193898Y545356D01*
X192024Y543482D01*
X188686Y542099D01*
X171994Y542099D01*
X168656Y543482D01*
X166102Y546036D01*
X164719Y549374D01*
X164719Y552986D01*
X166102Y556324D01*
X168656Y558878D01*
X171994Y560261D01*
X188686Y560261D01*
X192024Y558878D01*
X193898Y557004D01*
X194024Y556899D01*
X194145Y556787D01*
X194196Y556755D01*
X194243Y556716D01*
X194386Y556634D01*
X194524Y556546D01*
X194581Y556522D01*
X194634Y556492D01*
X194789Y556437D01*
X194941Y556375D01*
X195001Y556362D01*
X195058Y556341D01*
X195220Y556315D01*
X195381Y556280D01*
X195458Y556275D01*
X195502Y556268D01*
X195563Y556269D01*
X195693Y556261D01*
X214371Y556261D01*
X216238Y555487D01*
X258307Y513418D01*
X259081Y511551D01*
X259081Y295256D01*
X259095Y295093D01*
X259102Y294928D01*
X259115Y294869D01*
X259121Y294808D01*
X259164Y294649D01*
X259200Y294489D01*
X259223Y294432D01*
X259239Y294373D01*
X259310Y294225D01*
X259373Y294073D01*
X259406Y294022D01*
X259433Y293967D01*
X259528Y293833D01*
X259618Y293695D01*
X259669Y293637D01*
X259695Y293601D01*
X259738Y293558D01*
X259824Y293461D01*
X270601Y282684D01*
X270727Y282579D01*
X270848Y282467D01*
X270899Y282435D01*
X270946Y282396D01*
X271089Y282314D01*
X271228Y282226D01*
X271284Y282202D01*
X271337Y282172D01*
X271492Y282117D01*
X271644Y282055D01*
X271704Y282042D01*
X271761Y282021D01*
X271924Y281995D01*
X272084Y281960D01*
X272161Y281955D01*
X272206Y281948D01*
X272267Y281949D01*
X272396Y281941D01*
X314907Y281941D01*
X315037Y281952D01*
X315167Y281954D01*
X315260Y281972D01*
X315356Y281981D01*
X315481Y282015D01*
X315609Y282040D01*
X315698Y282074D01*
X315790Y282099D01*
X315907Y282155D01*
X316029Y282202D01*
X316111Y282252D01*
X316197Y282293D01*
X316302Y282368D01*
X316414Y282436D01*
X316485Y282499D01*
X316563Y282555D01*
X316654Y282648D01*
X316751Y282734D01*
X316810Y282809D01*
X316877Y282877D01*
X316950Y282985D01*
X317030Y283087D01*
X317075Y283171D01*
X317129Y283250D01*
X317182Y283369D01*
X317243Y283484D01*
X317272Y283575D01*
X317311Y283662D01*
X317342Y283789D01*
X317382Y283912D01*
X317395Y284007D01*
X317418Y284100D01*
X317426Y284229D01*
X317444Y284358D01*
X317440Y284454D01*
X317445Y284549D01*
X317430Y284678D01*
X317425Y284808D01*
X317404Y284901D01*
X317393Y284996D01*
X317356Y285121D01*
X317328Y285248D01*
X317291Y285336D01*
X317263Y285427D01*
X317204Y285543D01*
X317154Y285663D01*
X317102Y285743D01*
X317059Y285829D01*
X316980Y285932D01*
X316910Y286041D01*
X316824Y286139D01*
X316787Y286187D01*
X316754Y286218D01*
X316703Y286276D01*
X316590Y286389D01*
X313689Y293391D01*
X313689Y300969D01*
X316590Y307971D01*
X320483Y311864D01*
X320505Y311891D01*
X320531Y311914D01*
X320650Y312064D01*
X320771Y312210D01*
X320789Y312240D01*
X320810Y312267D01*
X320900Y312435D01*
X320995Y312601D01*
X321006Y312633D01*
X321023Y312664D01*
X321082Y312845D01*
X321146Y313025D01*
X321151Y313059D01*
X321162Y313092D01*
X321188Y313281D01*
X321219Y313469D01*
X321219Y313504D01*
X321223Y313538D01*
X321216Y313729D01*
X321213Y313919D01*
X321206Y313953D01*
X321205Y313988D01*
X321164Y314174D01*
X321127Y314361D01*
X321115Y314394D01*
X321107Y314428D01*
X321034Y314603D01*
X320965Y314781D01*
X320947Y314811D01*
X320934Y314843D01*
X320830Y315003D01*
X320731Y315166D01*
X320708Y315192D01*
X320689Y315221D01*
X320483Y315455D01*
X318502Y317436D01*
X317119Y320774D01*
X317119Y324386D01*
X318502Y327724D01*
X321056Y330278D01*
X324394Y331661D01*
X341086Y331661D01*
X344424Y330278D01*
X346978Y327724D01*
X348361Y324386D01*
X348361Y320774D01*
X346978Y317436D01*
X344997Y315455D01*
X344975Y315429D01*
X344949Y315406D01*
X344831Y315256D01*
X344709Y315110D01*
X344691Y315080D01*
X344670Y315053D01*
X344580Y314885D01*
X344485Y314719D01*
X344474Y314686D01*
X344457Y314656D01*
X344398Y314475D01*
X344334Y314295D01*
X344329Y314261D01*
X344318Y314228D01*
X344292Y314039D01*
X344261Y313851D01*
X344261Y313816D01*
X344257Y313782D01*
X344264Y313591D01*
X344267Y313400D01*
X344274Y313366D01*
X344275Y313332D01*
X344316Y313145D01*
X344353Y312958D01*
X344365Y312926D01*
X344373Y312892D01*
X344446Y312716D01*
X344515Y312538D01*
X344533Y312509D01*
X344546Y312477D01*
X344650Y312317D01*
X344749Y312154D01*
X344772Y312128D01*
X344791Y312098D01*
X344997Y311864D01*
X348890Y307971D01*
X350714Y303569D01*
X350797Y303411D01*
X350873Y303251D01*
X350900Y303212D01*
X350923Y303170D01*
X351032Y303029D01*
X351135Y302885D01*
X351169Y302852D01*
X351198Y302814D01*
X351330Y302695D01*
X351457Y302571D01*
X351497Y302544D01*
X351533Y302512D01*
X351683Y302418D01*
X351830Y302319D01*
X351874Y302299D01*
X351915Y302274D01*
X352080Y302208D01*
X352242Y302136D01*
X352289Y302125D01*
X352333Y302107D01*
X352507Y302072D01*
X352680Y302030D01*
X352727Y302027D01*
X352774Y302017D01*
X352952Y302013D01*
X353129Y302002D01*
X353177Y302008D01*
X353224Y302007D01*
X353400Y302034D01*
X353576Y302054D01*
X353622Y302068D01*
X353669Y302075D01*
X353837Y302133D01*
X354007Y302185D01*
X354050Y302206D01*
X354095Y302222D01*
X354250Y302308D01*
X354409Y302389D01*
X354447Y302418D01*
X354488Y302441D01*
X354626Y302554D01*
X354767Y302661D01*
X354800Y302696D01*
X354837Y302726D01*
X354952Y302861D01*
X355073Y302992D01*
X355098Y303032D01*
X355129Y303069D01*
X355219Y303222D01*
X355314Y303372D01*
X355333Y303416D01*
X355357Y303457D01*
X355418Y303624D01*
X355485Y303788D01*
X355495Y303835D01*
X355512Y303880D01*
X355543Y304055D01*
X355580Y304229D01*
X355584Y304288D01*
X355590Y304323D01*
X355590Y304386D01*
X355599Y304540D01*
X355599Y488691D01*
X356373Y490558D01*
X370502Y504687D01*
X372369Y505461D01*
X411300Y505461D01*
X411463Y505475D01*
X411628Y505482D01*
X411687Y505495D01*
X411748Y505501D01*
X411907Y505544D01*
X412067Y505580D01*
X412124Y505603D01*
X412182Y505619D01*
X412331Y505690D01*
X412483Y505753D01*
X412534Y505786D01*
X412589Y505813D01*
X412723Y505908D01*
X412861Y505998D01*
X412919Y506049D01*
X412955Y506075D01*
X412998Y506118D01*
X413095Y506204D01*
X415884Y508994D01*
X419619Y510541D01*
X438901Y510541D01*
X442636Y508994D01*
X445494Y506136D01*
X447041Y502401D01*
X447041Y498359D01*
X445494Y494624D01*
X442636Y491766D01*
X438901Y490219D01*
X419619Y490219D01*
X415884Y491766D01*
X413095Y494556D01*
X412969Y494661D01*
X412848Y494773D01*
X412796Y494805D01*
X412750Y494844D01*
X412607Y494926D01*
X412468Y495014D01*
X412412Y495038D01*
X412359Y495068D01*
X412204Y495123D01*
X412052Y495185D01*
X411992Y495198D01*
X411934Y495219D01*
X411772Y495245D01*
X411611Y495280D01*
X411534Y495285D01*
X411490Y495292D01*
X411430Y495291D01*
X411300Y495299D01*
X376536Y495299D01*
X376373Y495285D01*
X376208Y495278D01*
X376149Y495265D01*
X376088Y495259D01*
X375929Y495216D01*
X375769Y495180D01*
X375712Y495157D01*
X375653Y495141D01*
X375505Y495070D01*
X375353Y495007D01*
X375302Y494974D01*
X375247Y494947D01*
X375113Y494852D01*
X374975Y494762D01*
X374917Y494711D01*
X374881Y494685D01*
X374838Y494642D01*
X374741Y494556D01*
X366504Y486319D01*
X366399Y486193D01*
X366287Y486072D01*
X366255Y486021D01*
X366216Y485974D01*
X366134Y485831D01*
X366046Y485692D01*
X366022Y485636D01*
X365992Y485583D01*
X365937Y485428D01*
X365875Y485276D01*
X365862Y485216D01*
X365841Y485159D01*
X365815Y484996D01*
X365780Y484836D01*
X365775Y484759D01*
X365768Y484714D01*
X365769Y484653D01*
X365761Y484524D01*
X365761Y330816D01*
X365772Y330687D01*
X365774Y330557D01*
X365792Y330463D01*
X365801Y330368D01*
X365835Y330242D01*
X365860Y330115D01*
X365894Y330025D01*
X365919Y329933D01*
X365975Y329816D01*
X366022Y329695D01*
X366072Y329613D01*
X366113Y329527D01*
X366188Y329421D01*
X366256Y329310D01*
X366319Y329238D01*
X366375Y329161D01*
X366468Y329070D01*
X366554Y328973D01*
X366629Y328913D01*
X366697Y328847D01*
X366805Y328774D01*
X366907Y328693D01*
X366991Y328648D01*
X367070Y328595D01*
X367189Y328542D01*
X367304Y328481D01*
X367395Y328451D01*
X367482Y328412D01*
X367609Y328381D01*
X367732Y328341D01*
X367827Y328328D01*
X367920Y328306D01*
X368049Y328298D01*
X368178Y328280D01*
X368274Y328284D01*
X368369Y328278D01*
X368498Y328293D01*
X368628Y328298D01*
X368721Y328319D01*
X368816Y328330D01*
X368941Y328368D01*
X369068Y328396D01*
X369156Y328433D01*
X369247Y328460D01*
X369363Y328519D01*
X369483Y328569D01*
X369564Y328621D01*
X369649Y328665D01*
X369752Y328743D01*
X369861Y328814D01*
X369959Y328900D01*
X370007Y328937D01*
X370038Y328970D01*
X370096Y329021D01*
X406062Y364987D01*
X407929Y365761D01*
X411299Y365761D01*
X411463Y365775D01*
X411628Y365782D01*
X411687Y365795D01*
X411748Y365801D01*
X411907Y365844D01*
X412067Y365880D01*
X412124Y365903D01*
X412182Y365919D01*
X412330Y365990D01*
X412483Y366053D01*
X412534Y366086D01*
X412589Y366113D01*
X412722Y366208D01*
X412861Y366298D01*
X412919Y366349D01*
X412955Y366375D01*
X412998Y366418D01*
X413095Y366504D01*
X415884Y369294D01*
X419619Y370841D01*
X438901Y370841D01*
X442636Y369294D01*
X444917Y367012D01*
X445043Y366907D01*
X445164Y366795D01*
X445216Y366763D01*
X445262Y366724D01*
X445405Y366642D01*
X445544Y366554D01*
X445600Y366530D01*
X445653Y366500D01*
X445808Y366445D01*
X445960Y366383D01*
X446020Y366370D01*
X446078Y366349D01*
X446240Y366323D01*
X446401Y366288D01*
X446478Y366283D01*
X446522Y366276D01*
X446583Y366277D01*
X446713Y366269D01*
X461645Y366269D01*
X461680Y366272D01*
X461714Y366270D01*
X461903Y366292D01*
X462094Y366309D01*
X462127Y366318D01*
X462161Y366322D01*
X462344Y366377D01*
X462528Y366427D01*
X462559Y366442D01*
X462592Y366452D01*
X462763Y366539D01*
X462935Y366621D01*
X462963Y366641D01*
X462994Y366656D01*
X463146Y366772D01*
X463301Y366883D01*
X463325Y366908D01*
X463352Y366928D01*
X463481Y367068D01*
X463615Y367205D01*
X463634Y367234D01*
X463658Y367260D01*
X463760Y367421D01*
X463867Y367578D01*
X463881Y367610D01*
X463899Y367639D01*
X463972Y367816D01*
X464049Y367990D01*
X464057Y368024D01*
X464070Y368056D01*
X464110Y368243D01*
X464156Y368428D01*
X464158Y368462D01*
X464165Y368496D01*
X464184Y368808D01*
X464184Y373824D01*
X471996Y381636D01*
X483044Y381636D01*
X490456Y374223D01*
X490556Y374140D01*
X490649Y374049D01*
X490729Y373995D01*
X490802Y373934D01*
X490915Y373870D01*
X491022Y373797D01*
X491110Y373758D01*
X491193Y373711D01*
X491315Y373667D01*
X491434Y373615D01*
X491527Y373592D01*
X491617Y373560D01*
X491745Y373539D01*
X491872Y373508D01*
X491967Y373502D01*
X492061Y373487D01*
X492191Y373488D01*
X492321Y373480D01*
X492416Y373491D01*
X492512Y373493D01*
X492639Y373517D01*
X492768Y373532D01*
X492860Y373560D01*
X492954Y373578D01*
X493075Y373625D01*
X493199Y373663D01*
X493284Y373706D01*
X493374Y373740D01*
X493485Y373808D01*
X493601Y373867D01*
X493677Y373925D01*
X493758Y373974D01*
X493856Y374061D01*
X493959Y374139D01*
X494024Y374209D01*
X494096Y374273D01*
X494176Y374375D01*
X494265Y374470D01*
X494316Y374551D01*
X494375Y374626D01*
X494436Y374740D01*
X494506Y374850D01*
X494543Y374938D01*
X494588Y375023D01*
X494628Y375146D01*
X494677Y375266D01*
X494697Y375360D01*
X494727Y375451D01*
X494745Y375579D01*
X494772Y375707D01*
X494780Y375836D01*
X494788Y375897D01*
X494787Y375942D01*
X494791Y376019D01*
X494791Y423353D01*
X494777Y423517D01*
X494770Y423681D01*
X494757Y423741D01*
X494751Y423802D01*
X494708Y423961D01*
X494672Y424121D01*
X494649Y424177D01*
X494633Y424236D01*
X494562Y424384D01*
X494499Y424536D01*
X494466Y424588D01*
X494439Y424643D01*
X494344Y424776D01*
X494254Y424915D01*
X494203Y424972D01*
X494177Y425009D01*
X494134Y425051D01*
X494048Y425149D01*
X483696Y435501D01*
X483569Y435606D01*
X483449Y435718D01*
X483397Y435750D01*
X483350Y435789D01*
X483208Y435871D01*
X483069Y435959D01*
X483012Y435983D01*
X482959Y436013D01*
X482805Y436068D01*
X482652Y436130D01*
X482593Y436143D01*
X482535Y436164D01*
X482373Y436190D01*
X482212Y436225D01*
X482135Y436230D01*
X482091Y436237D01*
X482030Y436236D01*
X481900Y436244D01*
X471996Y436244D01*
X464993Y443248D01*
X464867Y443353D01*
X464746Y443465D01*
X464694Y443497D01*
X464648Y443536D01*
X464505Y443618D01*
X464366Y443706D01*
X464310Y443730D01*
X464257Y443760D01*
X464102Y443815D01*
X463949Y443877D01*
X463890Y443890D01*
X463832Y443911D01*
X463670Y443937D01*
X463509Y443972D01*
X463432Y443977D01*
X463388Y443984D01*
X463327Y443983D01*
X463197Y443991D01*
X446712Y443991D01*
X446549Y443977D01*
X446384Y443970D01*
X446325Y443957D01*
X446264Y443951D01*
X446105Y443908D01*
X445945Y443872D01*
X445888Y443849D01*
X445830Y443833D01*
X445681Y443762D01*
X445529Y443699D01*
X445478Y443666D01*
X445423Y443639D01*
X445289Y443544D01*
X445151Y443454D01*
X445093Y443403D01*
X445057Y443377D01*
X445014Y443334D01*
X444917Y443248D01*
X442636Y440966D01*
X438901Y439419D01*
X419619Y439419D01*
X415884Y440966D01*
X413026Y443824D01*
X411479Y447559D01*
X411479Y451601D01*
X413026Y455336D01*
X415884Y458194D01*
X419619Y459741D01*
X438901Y459741D01*
X442636Y458194D01*
X444917Y455912D01*
X445043Y455807D01*
X445164Y455695D01*
X445216Y455663D01*
X445262Y455624D01*
X445405Y455542D01*
X445544Y455454D01*
X445600Y455430D01*
X445653Y455400D01*
X445808Y455345D01*
X445960Y455283D01*
X446020Y455270D01*
X446078Y455249D01*
X446240Y455223D01*
X446401Y455188D01*
X446478Y455183D01*
X446522Y455176D01*
X446582Y455177D01*
X446712Y455169D01*
X463197Y455169D01*
X463361Y455183D01*
X463526Y455190D01*
X463585Y455203D01*
X463646Y455209D01*
X463805Y455252D01*
X463965Y455288D01*
X464021Y455311D01*
X464080Y455327D01*
X464229Y455398D01*
X464381Y455461D01*
X464432Y455494D01*
X464487Y455521D01*
X464621Y455616D01*
X464759Y455706D01*
X464817Y455757D01*
X464853Y455783D01*
X464895Y455826D01*
X464993Y455912D01*
X471996Y462916D01*
X483044Y462916D01*
X490856Y455104D01*
X490856Y445200D01*
X490870Y445036D01*
X490877Y444872D01*
X490890Y444812D01*
X490896Y444751D01*
X490939Y444592D01*
X490975Y444432D01*
X490998Y444376D01*
X491014Y444317D01*
X491085Y444169D01*
X491148Y444017D01*
X491181Y443965D01*
X491208Y443910D01*
X491303Y443777D01*
X491393Y443638D01*
X491444Y443581D01*
X491470Y443544D01*
X491513Y443502D01*
X491599Y443404D01*
X505118Y429886D01*
X505969Y427832D01*
X505969Y358967D01*
X505983Y358803D01*
X505990Y358639D01*
X506003Y358579D01*
X506009Y358518D01*
X506052Y358359D01*
X506088Y358199D01*
X506111Y358143D01*
X506127Y358084D01*
X506198Y357936D01*
X506261Y357784D01*
X506294Y357732D01*
X506321Y357677D01*
X506416Y357544D01*
X506506Y357405D01*
X506557Y357348D01*
X506583Y357311D01*
X506626Y357269D01*
X506712Y357171D01*
X512738Y351146D01*
X513589Y349092D01*
X513589Y329503D01*
X513600Y329373D01*
X513602Y329243D01*
X513620Y329150D01*
X513629Y329054D01*
X513663Y328929D01*
X513688Y328801D01*
X513722Y328712D01*
X513747Y328620D01*
X513803Y328503D01*
X513850Y328381D01*
X513900Y328299D01*
X513941Y328213D01*
X514016Y328108D01*
X514084Y327996D01*
X514147Y327925D01*
X514203Y327847D01*
X514296Y327756D01*
X514382Y327659D01*
X514457Y327600D01*
X514525Y327533D01*
X514633Y327460D01*
X514735Y327380D01*
X514819Y327335D01*
X514898Y327281D01*
X515017Y327228D01*
X515132Y327167D01*
X515223Y327137D01*
X515310Y327099D01*
X515437Y327068D01*
X515560Y327028D01*
X515655Y327015D01*
X515748Y326992D01*
X515877Y326984D01*
X516006Y326966D01*
X516102Y326970D01*
X516197Y326964D01*
X516326Y326979D01*
X516456Y326985D01*
X516549Y327005D01*
X516644Y327016D01*
X516769Y327054D01*
X516896Y327082D01*
X516984Y327119D01*
X517075Y327147D01*
X517191Y327206D01*
X517311Y327256D01*
X517391Y327308D01*
X517477Y327351D01*
X517580Y327430D01*
X517689Y327500D01*
X517787Y327586D01*
X517835Y327623D01*
X517866Y327656D01*
X517924Y327707D01*
X521801Y331584D01*
X521937Y331747D01*
X522074Y331908D01*
X522081Y331919D01*
X522089Y331930D01*
X522194Y332113D01*
X522302Y332297D01*
X522306Y332309D01*
X522313Y332321D01*
X522383Y332519D01*
X522457Y332719D01*
X522459Y332732D01*
X522464Y332745D01*
X522498Y332954D01*
X522535Y333163D01*
X522535Y333176D01*
X522537Y333189D01*
X522534Y333401D01*
X522533Y333613D01*
X522531Y333626D01*
X522531Y333639D01*
X522491Y333846D01*
X522453Y334056D01*
X522447Y334071D01*
X522445Y334081D01*
X522431Y334118D01*
X522351Y334351D01*
X520699Y338339D01*
X520699Y342381D01*
X522246Y346116D01*
X525104Y348974D01*
X528839Y350521D01*
X548121Y350521D01*
X551856Y348974D01*
X553956Y346873D01*
X554056Y346790D01*
X554149Y346699D01*
X554229Y346645D01*
X554302Y346584D01*
X554415Y346520D01*
X554522Y346447D01*
X554610Y346408D01*
X554693Y346361D01*
X554815Y346317D01*
X554934Y346264D01*
X555027Y346242D01*
X555117Y346210D01*
X555245Y346189D01*
X555372Y346158D01*
X555467Y346152D01*
X555561Y346136D01*
X555691Y346138D01*
X555821Y346130D01*
X555916Y346141D01*
X556012Y346142D01*
X556139Y346167D01*
X556268Y346182D01*
X556360Y346210D01*
X556454Y346228D01*
X556575Y346275D01*
X556699Y346313D01*
X556785Y346356D01*
X556874Y346390D01*
X556985Y346458D01*
X557101Y346517D01*
X557177Y346575D01*
X557258Y346624D01*
X557356Y346710D01*
X557459Y346789D01*
X557524Y346859D01*
X557596Y346922D01*
X557676Y347024D01*
X557765Y347120D01*
X557816Y347201D01*
X557875Y347276D01*
X557936Y347390D01*
X558006Y347500D01*
X558043Y347588D01*
X558088Y347672D01*
X558128Y347796D01*
X558177Y347916D01*
X558197Y348010D01*
X558227Y348101D01*
X558245Y348229D01*
X558272Y348357D01*
X558280Y348486D01*
X558288Y348547D01*
X558287Y348592D01*
X558291Y348668D01*
X558291Y349693D01*
X558277Y349857D01*
X558270Y350021D01*
X558257Y350081D01*
X558251Y350142D01*
X558208Y350301D01*
X558172Y350461D01*
X558149Y350517D01*
X558133Y350576D01*
X558062Y350724D01*
X557999Y350876D01*
X557966Y350928D01*
X557939Y350983D01*
X557844Y351116D01*
X557754Y351255D01*
X557703Y351312D01*
X557677Y351349D01*
X557634Y351391D01*
X557548Y351489D01*
X553080Y355957D01*
X552919Y356091D01*
X552756Y356230D01*
X552744Y356237D01*
X552734Y356245D01*
X552552Y356349D01*
X552367Y356458D01*
X552355Y356462D01*
X552343Y356469D01*
X552144Y356540D01*
X551945Y356613D01*
X551932Y356615D01*
X551919Y356620D01*
X551711Y356654D01*
X551501Y356691D01*
X551488Y356691D01*
X551475Y356693D01*
X551263Y356690D01*
X551051Y356690D01*
X551038Y356687D01*
X551025Y356687D01*
X550816Y356647D01*
X550608Y356609D01*
X550593Y356603D01*
X550583Y356601D01*
X550546Y356587D01*
X550313Y356507D01*
X548121Y355599D01*
X528839Y355599D01*
X525104Y357146D01*
X522246Y360004D01*
X520699Y363739D01*
X520699Y367781D01*
X522246Y371516D01*
X525104Y374374D01*
X528839Y375921D01*
X530352Y375921D01*
X530387Y375924D01*
X530421Y375922D01*
X530610Y375944D01*
X530801Y375961D01*
X530834Y375970D01*
X530868Y375974D01*
X531051Y376029D01*
X531235Y376079D01*
X531266Y376094D01*
X531299Y376104D01*
X531470Y376191D01*
X531642Y376273D01*
X531670Y376293D01*
X531701Y376308D01*
X531853Y376424D01*
X532008Y376535D01*
X532032Y376560D01*
X532059Y376580D01*
X532188Y376720D01*
X532322Y376857D01*
X532341Y376886D01*
X532365Y376912D01*
X532467Y377073D01*
X532574Y377230D01*
X532588Y377262D01*
X532606Y377291D01*
X532679Y377468D01*
X532756Y377642D01*
X532764Y377676D01*
X532777Y377708D01*
X532817Y377895D01*
X532863Y378080D01*
X532865Y378114D01*
X532872Y378148D01*
X532891Y378460D01*
X532891Y471613D01*
X532877Y471777D01*
X532870Y471941D01*
X532857Y472001D01*
X532851Y472062D01*
X532808Y472221D01*
X532772Y472381D01*
X532749Y472437D01*
X532733Y472496D01*
X532662Y472644D01*
X532599Y472796D01*
X532566Y472848D01*
X532539Y472903D01*
X532444Y473036D01*
X532354Y473175D01*
X532303Y473232D01*
X532277Y473269D01*
X532234Y473311D01*
X532148Y473409D01*
X486109Y519448D01*
X485982Y519553D01*
X485862Y519665D01*
X485810Y519697D01*
X485763Y519736D01*
X485621Y519818D01*
X485482Y519906D01*
X485425Y519930D01*
X485372Y519960D01*
X485218Y520015D01*
X485065Y520077D01*
X485006Y520090D01*
X484948Y520111D01*
X484786Y520137D01*
X484625Y520172D01*
X484548Y520177D01*
X484504Y520184D01*
X484443Y520183D01*
X484313Y520191D01*
X347585Y520191D01*
X347421Y520177D01*
X347257Y520170D01*
X347197Y520157D01*
X347137Y520151D01*
X346978Y520108D01*
X346817Y520072D01*
X346761Y520049D01*
X346702Y520033D01*
X346554Y519962D01*
X346402Y519899D01*
X346351Y519866D01*
X346296Y519839D01*
X346162Y519744D01*
X346024Y519654D01*
X345966Y519603D01*
X345930Y519577D01*
X345887Y519534D01*
X345790Y519448D01*
X344424Y518082D01*
X341086Y516699D01*
X324394Y516699D01*
X321056Y518082D01*
X318502Y520636D01*
X317119Y523974D01*
X317119Y527586D01*
X318502Y530924D01*
X321056Y533478D01*
X324394Y534861D01*
X341086Y534861D01*
X344424Y533478D01*
X345790Y532112D01*
X345916Y532007D01*
X346037Y531895D01*
X346088Y531863D01*
X346135Y531824D01*
X346278Y531742D01*
X346416Y531654D01*
X346473Y531630D01*
X346526Y531600D01*
X346681Y531545D01*
X346833Y531483D01*
X346893Y531470D01*
X346950Y531449D01*
X347112Y531423D01*
X347273Y531388D01*
X347350Y531383D01*
X347394Y531376D01*
X347455Y531377D01*
X347585Y531369D01*
X488792Y531369D01*
X490846Y530518D01*
X514840Y506523D01*
X514940Y506440D01*
X515033Y506349D01*
X515113Y506296D01*
X515186Y506234D01*
X515299Y506170D01*
X515406Y506097D01*
X515494Y506058D01*
X515577Y506011D01*
X515699Y505967D01*
X515818Y505915D01*
X515911Y505892D01*
X516001Y505860D01*
X516130Y505839D01*
X516256Y505808D01*
X516351Y505802D01*
X516445Y505787D01*
X516576Y505788D01*
X516705Y505780D01*
X516800Y505791D01*
X516896Y505793D01*
X517023Y505817D01*
X517152Y505832D01*
X517244Y505860D01*
X517338Y505878D01*
X517459Y505925D01*
X517583Y505963D01*
X517668Y506006D01*
X517758Y506041D01*
X517869Y506108D01*
X517985Y506167D01*
X518061Y506225D01*
X518142Y506274D01*
X518240Y506361D01*
X518343Y506439D01*
X518408Y506509D01*
X518480Y506573D01*
X518560Y506674D01*
X518649Y506770D01*
X518700Y506851D01*
X518759Y506926D01*
X518820Y507040D01*
X518890Y507150D01*
X518927Y507238D01*
X518972Y507323D01*
X519012Y507446D01*
X519061Y507567D01*
X519081Y507660D01*
X519111Y507751D01*
X519129Y507880D01*
X519156Y508007D01*
X519164Y508136D01*
X519172Y508197D01*
X519171Y508242D01*
X519175Y508319D01*
X519175Y510541D01*
X525781Y510541D01*
X525781Y503935D01*
X523559Y503935D01*
X523429Y503924D01*
X523299Y503922D01*
X523205Y503904D01*
X523110Y503895D01*
X522985Y503861D01*
X522857Y503836D01*
X522768Y503802D01*
X522676Y503777D01*
X522559Y503721D01*
X522437Y503674D01*
X522355Y503624D01*
X522269Y503583D01*
X522164Y503508D01*
X522052Y503440D01*
X521981Y503377D01*
X521903Y503321D01*
X521812Y503228D01*
X521715Y503142D01*
X521656Y503067D01*
X521589Y502999D01*
X521516Y502891D01*
X521436Y502789D01*
X521391Y502705D01*
X521337Y502626D01*
X521284Y502507D01*
X521223Y502392D01*
X521193Y502301D01*
X521155Y502214D01*
X521124Y502087D01*
X521084Y501964D01*
X521071Y501869D01*
X521048Y501776D01*
X521040Y501647D01*
X521022Y501518D01*
X521026Y501422D01*
X521020Y501327D01*
X521035Y501198D01*
X521041Y501068D01*
X521061Y500975D01*
X521072Y500880D01*
X521110Y500755D01*
X521138Y500628D01*
X521175Y500540D01*
X521203Y500449D01*
X521262Y500333D01*
X521312Y500213D01*
X521364Y500132D01*
X521407Y500047D01*
X521486Y499944D01*
X521556Y499835D01*
X521642Y499737D01*
X521679Y499689D01*
X521712Y499658D01*
X521763Y499600D01*
X541289Y480075D01*
X543218Y478146D01*
X544069Y476092D01*
X544069Y378460D01*
X544072Y378425D01*
X544070Y378391D01*
X544092Y378202D01*
X544109Y378011D01*
X544118Y377978D01*
X544122Y377944D01*
X544177Y377761D01*
X544227Y377577D01*
X544242Y377546D01*
X544252Y377513D01*
X544339Y377342D01*
X544421Y377170D01*
X544441Y377142D01*
X544456Y377111D01*
X544572Y376959D01*
X544683Y376804D01*
X544708Y376780D01*
X544728Y376753D01*
X544868Y376624D01*
X545005Y376490D01*
X545034Y376471D01*
X545060Y376447D01*
X545221Y376345D01*
X545378Y376238D01*
X545410Y376224D01*
X545439Y376206D01*
X545616Y376133D01*
X545790Y376056D01*
X545824Y376048D01*
X545856Y376035D01*
X546043Y375995D01*
X546228Y375949D01*
X546262Y375947D01*
X546296Y375940D01*
X546608Y375921D01*
X548121Y375921D01*
X551856Y374374D01*
X554714Y371516D01*
X555500Y369617D01*
X555555Y369513D01*
X555600Y369405D01*
X555659Y369314D01*
X555709Y369218D01*
X555781Y369125D01*
X555844Y369027D01*
X555946Y368911D01*
X555985Y368862D01*
X556011Y368837D01*
X556051Y368793D01*
X566964Y357879D01*
X567064Y357796D01*
X567157Y357705D01*
X567237Y357652D01*
X567310Y357590D01*
X567423Y357526D01*
X567530Y357453D01*
X567618Y357414D01*
X567701Y357367D01*
X567823Y357323D01*
X567942Y357271D01*
X568035Y357248D01*
X568125Y357216D01*
X568254Y357195D01*
X568380Y357164D01*
X568475Y357158D01*
X568569Y357143D01*
X568700Y357144D01*
X568829Y357136D01*
X568924Y357147D01*
X569020Y357149D01*
X569147Y357173D01*
X569276Y357188D01*
X569368Y357216D01*
X569462Y357234D01*
X569583Y357281D01*
X569707Y357319D01*
X569792Y357362D01*
X569882Y357397D01*
X569993Y357464D01*
X570109Y357523D01*
X570185Y357581D01*
X570266Y357630D01*
X570364Y357717D01*
X570467Y357795D01*
X570532Y357865D01*
X570604Y357929D01*
X570684Y358030D01*
X570773Y358126D01*
X570824Y358207D01*
X570883Y358282D01*
X570944Y358396D01*
X571014Y358506D01*
X571051Y358594D01*
X571096Y358679D01*
X571136Y358802D01*
X571185Y358923D01*
X571205Y359016D01*
X571235Y359107D01*
X571253Y359236D01*
X571280Y359363D01*
X571288Y359492D01*
X571296Y359553D01*
X571295Y359598D01*
X571299Y359675D01*
X571299Y751080D01*
X571296Y751115D01*
X571298Y751149D01*
X571276Y751338D01*
X571259Y751529D01*
X571250Y751562D01*
X571246Y751596D01*
X571191Y751779D01*
X571141Y751963D01*
X571126Y751994D01*
X571116Y752027D01*
X571029Y752198D01*
X570947Y752370D01*
X570927Y752398D01*
X570912Y752429D01*
X570796Y752581D01*
X570685Y752736D01*
X570660Y752760D01*
X570640Y752787D01*
X570500Y752916D01*
X570363Y753050D01*
X570334Y753069D01*
X570308Y753093D01*
X570147Y753195D01*
X569990Y753302D01*
X569958Y753316D01*
X569929Y753334D01*
X569752Y753407D01*
X569578Y753484D01*
X569544Y753492D01*
X569512Y753505D01*
X569325Y753545D01*
X569140Y753591D01*
X569106Y753593D01*
X569072Y753600D01*
X568760Y753619D01*
X12700Y753619D01*
X12665Y753616D01*
X12631Y753618D01*
X12442Y753596D01*
X12251Y753579D01*
X12218Y753570D01*
X12184Y753566D01*
X12001Y753511D01*
X11817Y753461D01*
X11786Y753446D01*
X11753Y753436D01*
X11582Y753349D01*
X11410Y753267D01*
X11382Y753247D01*
X11351Y753232D01*
X11199Y753116D01*
X11044Y753005D01*
X11020Y752980D01*
X10993Y752960D01*
X10864Y752820D01*
X10730Y752683D01*
X10711Y752654D01*
X10687Y752628D01*
X10585Y752467D01*
X10478Y752310D01*
X10464Y752278D01*
X10446Y752249D01*
X10373Y752072D01*
X10296Y751898D01*
X10288Y751864D01*
X10275Y751832D01*
X10235Y751645D01*
X10189Y751460D01*
X10187Y751426D01*
X10180Y751392D01*
X10161Y751080D01*
X10161Y12700D01*
X10164Y12665D01*
X10162Y12631D01*
X10184Y12442D01*
X10201Y12251D01*
X10210Y12218D01*
X10214Y12184D01*
X10269Y12001D01*
X10319Y11817D01*
X10334Y11786D01*
X10344Y11753D01*
X10431Y11582D01*
X10513Y11410D01*
X10533Y11382D01*
X10548Y11351D01*
X10664Y11199D01*
X10775Y11044D01*
X10800Y11020D01*
X10820Y10993D01*
X10960Y10864D01*
X11097Y10730D01*
X11126Y10711D01*
X11152Y10687D01*
X11313Y10585D01*
X11470Y10478D01*
X11502Y10464D01*
X11531Y10446D01*
X11708Y10373D01*
X11882Y10296D01*
X11916Y10288D01*
X11948Y10275D01*
X12135Y10235D01*
X12320Y10189D01*
X12354Y10187D01*
X12388Y10180D01*
X12700Y10161D01*
X568760Y10161D01*
X568795Y10164D01*
G37*
%LPC*%
G36*
X318792Y199135D02*
X318792Y199135D01*
X315472Y202456D01*
X315346Y202561D01*
X315225Y202673D01*
X315173Y202705D01*
X315126Y202744D01*
X314984Y202826D01*
X314845Y202914D01*
X314788Y202938D01*
X314736Y202968D01*
X314581Y203023D01*
X314428Y203085D01*
X314369Y203098D01*
X314311Y203119D01*
X314149Y203145D01*
X313988Y203180D01*
X313911Y203185D01*
X313867Y203192D01*
X313806Y203191D01*
X313676Y203199D01*
X273309Y203199D01*
X271442Y203973D01*
X229373Y246042D01*
X228599Y247909D01*
X228599Y494684D01*
X228585Y494847D01*
X228578Y495012D01*
X228565Y495071D01*
X228559Y495132D01*
X228516Y495291D01*
X228480Y495451D01*
X228457Y495508D01*
X228441Y495567D01*
X228370Y495715D01*
X228307Y495867D01*
X228274Y495918D01*
X228247Y495973D01*
X228152Y496107D01*
X228062Y496245D01*
X228011Y496303D01*
X227985Y496339D01*
X227942Y496382D01*
X227856Y496479D01*
X204379Y519956D01*
X204253Y520061D01*
X204132Y520173D01*
X204081Y520205D01*
X204034Y520244D01*
X203891Y520326D01*
X203752Y520414D01*
X203696Y520438D01*
X203643Y520468D01*
X203488Y520523D01*
X203336Y520585D01*
X203276Y520598D01*
X203219Y520619D01*
X203056Y520645D01*
X202896Y520680D01*
X202819Y520685D01*
X202774Y520692D01*
X202713Y520691D01*
X202584Y520699D01*
X195693Y520699D01*
X195529Y520685D01*
X195365Y520678D01*
X195306Y520665D01*
X195245Y520659D01*
X195086Y520616D01*
X194925Y520580D01*
X194869Y520557D01*
X194810Y520541D01*
X194662Y520470D01*
X194510Y520407D01*
X194459Y520374D01*
X194404Y520347D01*
X194270Y520252D01*
X194132Y520162D01*
X194074Y520111D01*
X194038Y520085D01*
X193995Y520042D01*
X193898Y519956D01*
X192024Y518082D01*
X188686Y516699D01*
X171994Y516699D01*
X168656Y518082D01*
X166102Y520636D01*
X164719Y523974D01*
X164719Y527586D01*
X166102Y530924D01*
X168656Y533478D01*
X171994Y534861D01*
X188686Y534861D01*
X192024Y533478D01*
X193898Y531604D01*
X194024Y531499D01*
X194145Y531387D01*
X194196Y531355D01*
X194243Y531316D01*
X194386Y531234D01*
X194525Y531146D01*
X194581Y531122D01*
X194634Y531092D01*
X194789Y531037D01*
X194941Y530975D01*
X195001Y530962D01*
X195058Y530941D01*
X195221Y530915D01*
X195381Y530880D01*
X195458Y530875D01*
X195502Y530868D01*
X195564Y530869D01*
X195693Y530861D01*
X206751Y530861D01*
X208618Y530087D01*
X237987Y500718D01*
X238761Y498851D01*
X238761Y252076D01*
X238775Y251913D01*
X238782Y251748D01*
X238795Y251689D01*
X238801Y251628D01*
X238844Y251469D01*
X238880Y251309D01*
X238903Y251252D01*
X238919Y251193D01*
X238990Y251045D01*
X239053Y250893D01*
X239086Y250842D01*
X239113Y250787D01*
X239208Y250653D01*
X239298Y250515D01*
X239349Y250457D01*
X239375Y250421D01*
X239418Y250378D01*
X239504Y250281D01*
X275681Y214104D01*
X275807Y213999D01*
X275928Y213887D01*
X275979Y213855D01*
X276026Y213816D01*
X276169Y213734D01*
X276308Y213646D01*
X276364Y213622D01*
X276417Y213592D01*
X276572Y213537D01*
X276724Y213475D01*
X276784Y213462D01*
X276841Y213441D01*
X277004Y213415D01*
X277164Y213380D01*
X277241Y213375D01*
X277286Y213368D01*
X277347Y213369D01*
X277476Y213361D01*
X313676Y213361D01*
X313840Y213375D01*
X314004Y213382D01*
X314064Y213395D01*
X314125Y213401D01*
X314284Y213444D01*
X314444Y213480D01*
X314500Y213503D01*
X314559Y213519D01*
X314707Y213590D01*
X314859Y213653D01*
X314911Y213686D01*
X314966Y213713D01*
X315099Y213808D01*
X315238Y213898D01*
X315295Y213949D01*
X315332Y213975D01*
X315374Y214018D01*
X315472Y214104D01*
X318792Y217425D01*
X326368Y217425D01*
X329688Y214104D01*
X329814Y213999D01*
X329935Y213887D01*
X329987Y213855D01*
X330034Y213816D01*
X330176Y213734D01*
X330315Y213646D01*
X330372Y213622D01*
X330424Y213592D01*
X330579Y213537D01*
X330732Y213475D01*
X330791Y213462D01*
X330849Y213441D01*
X331011Y213415D01*
X331172Y213380D01*
X331249Y213375D01*
X331293Y213368D01*
X331354Y213369D01*
X331484Y213361D01*
X364476Y213361D01*
X364640Y213375D01*
X364804Y213382D01*
X364864Y213395D01*
X364925Y213401D01*
X365084Y213444D01*
X365244Y213480D01*
X365300Y213503D01*
X365359Y213519D01*
X365507Y213590D01*
X365659Y213653D01*
X365711Y213686D01*
X365766Y213713D01*
X365899Y213808D01*
X366038Y213898D01*
X366095Y213949D01*
X366132Y213975D01*
X366174Y214018D01*
X366272Y214104D01*
X369592Y217425D01*
X377168Y217425D01*
X380488Y214104D01*
X380614Y213999D01*
X380735Y213887D01*
X380787Y213855D01*
X380834Y213816D01*
X380976Y213734D01*
X381115Y213646D01*
X381172Y213622D01*
X381224Y213592D01*
X381379Y213537D01*
X381532Y213475D01*
X381591Y213462D01*
X381649Y213441D01*
X381811Y213415D01*
X381972Y213380D01*
X382049Y213375D01*
X382093Y213368D01*
X382154Y213369D01*
X382284Y213361D01*
X398164Y213361D01*
X398327Y213375D01*
X398492Y213382D01*
X398551Y213395D01*
X398612Y213401D01*
X398771Y213444D01*
X398931Y213480D01*
X398988Y213503D01*
X399047Y213519D01*
X399195Y213590D01*
X399347Y213653D01*
X399398Y213686D01*
X399453Y213713D01*
X399587Y213808D01*
X399725Y213898D01*
X399783Y213949D01*
X399819Y213975D01*
X399862Y214018D01*
X399959Y214104D01*
X415181Y229326D01*
X415272Y229435D01*
X415309Y229473D01*
X415318Y229487D01*
X415398Y229573D01*
X415430Y229624D01*
X415469Y229671D01*
X415551Y229814D01*
X415639Y229953D01*
X415663Y230009D01*
X415693Y230062D01*
X415748Y230217D01*
X415810Y230369D01*
X415823Y230429D01*
X415844Y230486D01*
X415870Y230649D01*
X415905Y230809D01*
X415910Y230886D01*
X415917Y230931D01*
X415916Y230992D01*
X415924Y231121D01*
X415924Y241744D01*
X423736Y249556D01*
X434784Y249556D01*
X442596Y241744D01*
X442596Y230696D01*
X434784Y222884D01*
X424161Y222884D01*
X423998Y222870D01*
X423833Y222863D01*
X423774Y222850D01*
X423713Y222844D01*
X423554Y222801D01*
X423394Y222765D01*
X423337Y222742D01*
X423278Y222726D01*
X423130Y222655D01*
X422978Y222592D01*
X422927Y222559D01*
X422872Y222532D01*
X422738Y222437D01*
X422600Y222347D01*
X422542Y222296D01*
X422506Y222270D01*
X422463Y222227D01*
X422366Y222141D01*
X405984Y205759D01*
X404198Y203973D01*
X402331Y203199D01*
X382284Y203199D01*
X382120Y203185D01*
X381956Y203178D01*
X381896Y203165D01*
X381835Y203159D01*
X381676Y203116D01*
X381516Y203080D01*
X381460Y203057D01*
X381401Y203041D01*
X381253Y202970D01*
X381101Y202907D01*
X381049Y202874D01*
X380994Y202847D01*
X380861Y202752D01*
X380722Y202662D01*
X380665Y202611D01*
X380628Y202585D01*
X380586Y202542D01*
X380488Y202456D01*
X377168Y199135D01*
X369592Y199135D01*
X366272Y202456D01*
X366146Y202561D01*
X366025Y202673D01*
X365973Y202705D01*
X365926Y202744D01*
X365784Y202826D01*
X365645Y202914D01*
X365588Y202938D01*
X365536Y202968D01*
X365381Y203023D01*
X365228Y203085D01*
X365169Y203098D01*
X365111Y203119D01*
X364949Y203145D01*
X364788Y203180D01*
X364711Y203185D01*
X364667Y203192D01*
X364606Y203191D01*
X364476Y203199D01*
X331484Y203199D01*
X331320Y203185D01*
X331156Y203178D01*
X331096Y203165D01*
X331035Y203159D01*
X330876Y203116D01*
X330716Y203080D01*
X330660Y203057D01*
X330601Y203041D01*
X330453Y202970D01*
X330301Y202907D01*
X330249Y202874D01*
X330194Y202847D01*
X330061Y202752D01*
X329922Y202662D01*
X329865Y202611D01*
X329828Y202585D01*
X329786Y202542D01*
X329688Y202456D01*
X326368Y199135D01*
X318792Y199135D01*
G37*
%LPD*%
%LPC*%
G36*
X339548Y48499D02*
X339548Y48499D01*
X338059Y49988D01*
X338059Y82092D01*
X339548Y83581D01*
X371652Y83581D01*
X373141Y82092D01*
X373141Y74168D01*
X373144Y74133D01*
X373142Y74099D01*
X373164Y73910D01*
X373181Y73719D01*
X373190Y73686D01*
X373194Y73652D01*
X373249Y73469D01*
X373299Y73285D01*
X373314Y73254D01*
X373324Y73221D01*
X373411Y73050D01*
X373493Y72878D01*
X373513Y72850D01*
X373528Y72819D01*
X373644Y72667D01*
X373755Y72512D01*
X373780Y72488D01*
X373800Y72461D01*
X373940Y72332D01*
X374077Y72198D01*
X374106Y72179D01*
X374132Y72155D01*
X374293Y72053D01*
X374450Y71946D01*
X374482Y71932D01*
X374511Y71914D01*
X374688Y71841D01*
X374862Y71764D01*
X374896Y71756D01*
X374928Y71743D01*
X375115Y71703D01*
X375300Y71657D01*
X375334Y71655D01*
X375368Y71648D01*
X375680Y71629D01*
X415733Y71629D01*
X415897Y71643D01*
X416061Y71650D01*
X416121Y71663D01*
X416182Y71669D01*
X416341Y71712D01*
X416501Y71748D01*
X416557Y71771D01*
X416616Y71787D01*
X416764Y71858D01*
X416916Y71921D01*
X416968Y71954D01*
X417023Y71981D01*
X417156Y72076D01*
X417295Y72166D01*
X417352Y72217D01*
X417389Y72243D01*
X417431Y72286D01*
X417529Y72372D01*
X419372Y74215D01*
X419477Y74342D01*
X419589Y74462D01*
X419621Y74514D01*
X419660Y74561D01*
X419742Y74703D01*
X419830Y74842D01*
X419854Y74899D01*
X419884Y74952D01*
X419939Y75106D01*
X420001Y75259D01*
X420014Y75318D01*
X420035Y75376D01*
X420061Y75538D01*
X420096Y75699D01*
X420101Y75776D01*
X420108Y75820D01*
X420107Y75881D01*
X420115Y76011D01*
X420115Y79988D01*
X422928Y82800D01*
X423033Y82926D01*
X423145Y83047D01*
X423177Y83099D01*
X423216Y83145D01*
X423298Y83288D01*
X423386Y83427D01*
X423410Y83483D01*
X423440Y83536D01*
X423495Y83691D01*
X423557Y83844D01*
X423570Y83903D01*
X423591Y83961D01*
X423617Y84123D01*
X423652Y84284D01*
X423657Y84361D01*
X423664Y84405D01*
X423663Y84466D01*
X423671Y84596D01*
X423671Y110236D01*
X423668Y110271D01*
X423670Y110305D01*
X423648Y110494D01*
X423631Y110685D01*
X423622Y110718D01*
X423618Y110752D01*
X423563Y110935D01*
X423513Y111119D01*
X423498Y111150D01*
X423488Y111183D01*
X423401Y111354D01*
X423319Y111526D01*
X423299Y111554D01*
X423284Y111585D01*
X423168Y111737D01*
X423057Y111892D01*
X423032Y111916D01*
X423012Y111943D01*
X422872Y112072D01*
X422735Y112206D01*
X422706Y112225D01*
X422680Y112249D01*
X422519Y112351D01*
X422362Y112458D01*
X422330Y112472D01*
X422301Y112490D01*
X422125Y112563D01*
X421950Y112640D01*
X421916Y112648D01*
X421884Y112661D01*
X421697Y112701D01*
X421512Y112747D01*
X421478Y112749D01*
X421444Y112756D01*
X421132Y112775D01*
X417852Y112775D01*
X412495Y118132D01*
X412495Y125708D01*
X417852Y131065D01*
X425428Y131065D01*
X428240Y128252D01*
X428366Y128147D01*
X428487Y128035D01*
X428539Y128003D01*
X428586Y127964D01*
X428728Y127882D01*
X428867Y127794D01*
X428924Y127770D01*
X428976Y127740D01*
X429131Y127685D01*
X429284Y127623D01*
X429343Y127610D01*
X429401Y127589D01*
X429563Y127563D01*
X429724Y127528D01*
X429801Y127523D01*
X429845Y127516D01*
X429906Y127517D01*
X430036Y127509D01*
X430973Y127509D01*
X431137Y127523D01*
X431301Y127530D01*
X431361Y127543D01*
X431422Y127549D01*
X431581Y127592D01*
X431741Y127628D01*
X431797Y127651D01*
X431856Y127667D01*
X432004Y127738D01*
X432156Y127801D01*
X432208Y127834D01*
X432263Y127861D01*
X432396Y127956D01*
X432535Y128046D01*
X432592Y128097D01*
X432629Y128123D01*
X432671Y128166D01*
X432769Y128252D01*
X448328Y143811D01*
X448433Y143938D01*
X448545Y144058D01*
X448577Y144110D01*
X448616Y144157D01*
X448698Y144299D01*
X448786Y144438D01*
X448810Y144495D01*
X448840Y144548D01*
X448895Y144702D01*
X448957Y144855D01*
X448970Y144914D01*
X448991Y144972D01*
X449017Y145134D01*
X449052Y145295D01*
X449057Y145372D01*
X449064Y145416D01*
X449063Y145477D01*
X449071Y145607D01*
X449071Y280779D01*
X449097Y280963D01*
X449096Y280976D01*
X449098Y280989D01*
X449087Y281200D01*
X449078Y281413D01*
X449075Y281426D01*
X449075Y281439D01*
X449027Y281646D01*
X448981Y281853D01*
X448976Y281865D01*
X448973Y281877D01*
X448889Y282072D01*
X448807Y282268D01*
X448800Y282279D01*
X448795Y282291D01*
X448678Y282467D01*
X448563Y282646D01*
X448552Y282658D01*
X448547Y282667D01*
X448520Y282695D01*
X448356Y282881D01*
X432261Y298976D01*
X432134Y299081D01*
X432014Y299193D01*
X431962Y299225D01*
X431915Y299264D01*
X431773Y299346D01*
X431634Y299434D01*
X431577Y299458D01*
X431524Y299488D01*
X431370Y299543D01*
X431217Y299605D01*
X431158Y299618D01*
X431100Y299639D01*
X430938Y299665D01*
X430777Y299700D01*
X430700Y299705D01*
X430656Y299712D01*
X430595Y299711D01*
X430465Y299719D01*
X419619Y299719D01*
X415884Y301266D01*
X413026Y304124D01*
X411479Y307859D01*
X411479Y311901D01*
X413026Y315636D01*
X415884Y318494D01*
X419619Y320041D01*
X438901Y320041D01*
X442636Y318494D01*
X445494Y315636D01*
X447041Y311901D01*
X447041Y307859D01*
X445389Y303871D01*
X445325Y303668D01*
X445260Y303468D01*
X445258Y303455D01*
X445254Y303442D01*
X445227Y303231D01*
X445199Y303021D01*
X445199Y303008D01*
X445198Y302995D01*
X445208Y302784D01*
X445217Y302572D01*
X445220Y302559D01*
X445221Y302545D01*
X445268Y302340D01*
X445315Y302132D01*
X445320Y302120D01*
X445323Y302107D01*
X445406Y301913D01*
X445488Y301717D01*
X445495Y301705D01*
X445501Y301693D01*
X445617Y301517D01*
X445733Y301338D01*
X445743Y301326D01*
X445749Y301318D01*
X445776Y301289D01*
X445939Y301104D01*
X456231Y290812D01*
X456358Y290707D01*
X456478Y290595D01*
X456530Y290563D01*
X456577Y290524D01*
X456719Y290442D01*
X456858Y290354D01*
X456915Y290330D01*
X456968Y290300D01*
X457122Y290245D01*
X457275Y290183D01*
X457334Y290170D01*
X457392Y290149D01*
X457554Y290123D01*
X457715Y290088D01*
X457792Y290083D01*
X457836Y290076D01*
X457897Y290077D01*
X458027Y290069D01*
X463197Y290069D01*
X463361Y290083D01*
X463526Y290090D01*
X463585Y290103D01*
X463646Y290109D01*
X463805Y290152D01*
X463965Y290188D01*
X464021Y290211D01*
X464080Y290227D01*
X464229Y290298D01*
X464381Y290361D01*
X464432Y290394D01*
X464487Y290421D01*
X464621Y290516D01*
X464759Y290606D01*
X464817Y290657D01*
X464853Y290683D01*
X464895Y290726D01*
X464993Y290812D01*
X471996Y297816D01*
X483044Y297816D01*
X490856Y290004D01*
X490856Y278956D01*
X483044Y271144D01*
X471996Y271144D01*
X470073Y273068D01*
X469947Y273173D01*
X469826Y273285D01*
X469774Y273317D01*
X469728Y273356D01*
X469585Y273438D01*
X469446Y273526D01*
X469390Y273550D01*
X469337Y273580D01*
X469182Y273635D01*
X469029Y273697D01*
X468970Y273710D01*
X468912Y273731D01*
X468750Y273757D01*
X468589Y273792D01*
X468512Y273797D01*
X468468Y273804D01*
X468407Y273803D01*
X468277Y273811D01*
X462788Y273811D01*
X462753Y273808D01*
X462719Y273810D01*
X462530Y273788D01*
X462339Y273771D01*
X462306Y273762D01*
X462272Y273758D01*
X462089Y273703D01*
X461905Y273653D01*
X461874Y273638D01*
X461841Y273628D01*
X461670Y273541D01*
X461498Y273459D01*
X461470Y273439D01*
X461439Y273424D01*
X461287Y273308D01*
X461132Y273197D01*
X461108Y273172D01*
X461081Y273152D01*
X460952Y273012D01*
X460818Y272875D01*
X460799Y272846D01*
X460775Y272820D01*
X460673Y272659D01*
X460566Y272502D01*
X460552Y272470D01*
X460534Y272441D01*
X460461Y272264D01*
X460384Y272090D01*
X460376Y272056D01*
X460363Y272024D01*
X460323Y271837D01*
X460277Y271652D01*
X460275Y271618D01*
X460268Y271584D01*
X460249Y271272D01*
X460249Y141128D01*
X459398Y139074D01*
X439435Y119111D01*
X437506Y117182D01*
X436416Y116731D01*
X436228Y116632D01*
X436039Y116536D01*
X436029Y116528D01*
X436017Y116522D01*
X435849Y116392D01*
X435681Y116264D01*
X435672Y116255D01*
X435661Y116247D01*
X435519Y116089D01*
X435375Y115933D01*
X435368Y115922D01*
X435360Y115912D01*
X435248Y115733D01*
X435134Y115554D01*
X435129Y115541D01*
X435122Y115530D01*
X435044Y115334D01*
X434963Y115137D01*
X434960Y115124D01*
X434955Y115112D01*
X434913Y114905D01*
X434868Y114697D01*
X434867Y114681D01*
X434865Y114671D01*
X434864Y114631D01*
X434849Y114385D01*
X434849Y84596D01*
X434863Y84432D01*
X434870Y84267D01*
X434883Y84208D01*
X434889Y84147D01*
X434932Y83988D01*
X434968Y83828D01*
X434991Y83772D01*
X435007Y83713D01*
X435078Y83564D01*
X435141Y83412D01*
X435174Y83361D01*
X435201Y83306D01*
X435296Y83173D01*
X435386Y83034D01*
X435437Y82977D01*
X435463Y82940D01*
X435506Y82897D01*
X435592Y82800D01*
X438405Y79988D01*
X438405Y72412D01*
X433048Y67055D01*
X429071Y67055D01*
X428907Y67041D01*
X428743Y67034D01*
X428683Y67021D01*
X428622Y67015D01*
X428463Y66972D01*
X428303Y66936D01*
X428247Y66913D01*
X428188Y66897D01*
X428040Y66826D01*
X427888Y66763D01*
X427836Y66730D01*
X427781Y66703D01*
X427648Y66608D01*
X427509Y66518D01*
X427452Y66467D01*
X427415Y66441D01*
X427373Y66398D01*
X427275Y66312D01*
X422266Y61302D01*
X420212Y60451D01*
X375680Y60451D01*
X375645Y60448D01*
X375611Y60450D01*
X375422Y60428D01*
X375231Y60411D01*
X375198Y60402D01*
X375164Y60398D01*
X374981Y60343D01*
X374797Y60293D01*
X374766Y60278D01*
X374733Y60268D01*
X374562Y60181D01*
X374390Y60099D01*
X374362Y60079D01*
X374331Y60064D01*
X374179Y59948D01*
X374024Y59837D01*
X374000Y59812D01*
X373973Y59792D01*
X373844Y59652D01*
X373710Y59515D01*
X373691Y59486D01*
X373667Y59460D01*
X373565Y59299D01*
X373458Y59142D01*
X373444Y59110D01*
X373426Y59081D01*
X373353Y58904D01*
X373276Y58730D01*
X373268Y58696D01*
X373255Y58664D01*
X373215Y58477D01*
X373169Y58292D01*
X373167Y58258D01*
X373160Y58224D01*
X373141Y57912D01*
X373141Y49988D01*
X371652Y48499D01*
X339548Y48499D01*
G37*
%LPD*%
%LPC*%
G36*
X74179Y299719D02*
X74179Y299719D01*
X70444Y301266D01*
X67586Y304124D01*
X66039Y307859D01*
X66039Y311901D01*
X67586Y315636D01*
X70444Y318494D01*
X74179Y320041D01*
X93461Y320041D01*
X97196Y318494D01*
X99985Y315704D01*
X100111Y315599D01*
X100232Y315487D01*
X100284Y315455D01*
X100330Y315416D01*
X100473Y315334D01*
X100612Y315246D01*
X100668Y315222D01*
X100721Y315192D01*
X100876Y315137D01*
X101028Y315075D01*
X101088Y315062D01*
X101146Y315041D01*
X101308Y315015D01*
X101469Y314980D01*
X101546Y314975D01*
X101590Y314968D01*
X101651Y314969D01*
X101781Y314961D01*
X113684Y314961D01*
X113847Y314975D01*
X114012Y314982D01*
X114071Y314995D01*
X114132Y315001D01*
X114291Y315044D01*
X114451Y315080D01*
X114508Y315103D01*
X114567Y315119D01*
X114715Y315190D01*
X114867Y315253D01*
X114918Y315286D01*
X114973Y315313D01*
X115107Y315408D01*
X115245Y315498D01*
X115303Y315549D01*
X115339Y315575D01*
X115382Y315618D01*
X115479Y315704D01*
X133876Y334101D01*
X133981Y334227D01*
X134093Y334348D01*
X134125Y334399D01*
X134164Y334446D01*
X134246Y334589D01*
X134334Y334728D01*
X134358Y334784D01*
X134388Y334837D01*
X134443Y334992D01*
X134505Y335144D01*
X134518Y335204D01*
X134539Y335261D01*
X134565Y335424D01*
X134600Y335584D01*
X134605Y335661D01*
X134612Y335706D01*
X134611Y335767D01*
X134619Y335896D01*
X134619Y557271D01*
X135393Y559138D01*
X157142Y580887D01*
X159009Y581661D01*
X164987Y581661D01*
X165151Y581675D01*
X165315Y581682D01*
X165374Y581695D01*
X165435Y581701D01*
X165594Y581744D01*
X165755Y581780D01*
X165811Y581803D01*
X165870Y581819D01*
X166018Y581890D01*
X166170Y581953D01*
X166221Y581986D01*
X166276Y582013D01*
X166410Y582108D01*
X166548Y582198D01*
X166606Y582249D01*
X166642Y582275D01*
X166685Y582318D01*
X166782Y582404D01*
X168656Y584278D01*
X171994Y585661D01*
X188686Y585661D01*
X192024Y584278D01*
X194578Y581724D01*
X195961Y578386D01*
X195961Y574774D01*
X194578Y571436D01*
X192024Y568882D01*
X188686Y567499D01*
X171994Y567499D01*
X168656Y568882D01*
X166782Y570756D01*
X166656Y570861D01*
X166535Y570973D01*
X166484Y571005D01*
X166437Y571044D01*
X166294Y571126D01*
X166155Y571214D01*
X166099Y571238D01*
X166046Y571268D01*
X165891Y571323D01*
X165739Y571385D01*
X165679Y571398D01*
X165622Y571419D01*
X165459Y571445D01*
X165299Y571480D01*
X165222Y571485D01*
X165178Y571492D01*
X165116Y571491D01*
X164987Y571499D01*
X163176Y571499D01*
X163013Y571485D01*
X162848Y571478D01*
X162789Y571465D01*
X162728Y571459D01*
X162569Y571416D01*
X162409Y571380D01*
X162352Y571357D01*
X162293Y571341D01*
X162145Y571270D01*
X161993Y571207D01*
X161942Y571174D01*
X161887Y571147D01*
X161753Y571052D01*
X161615Y570962D01*
X161557Y570911D01*
X161521Y570885D01*
X161478Y570842D01*
X161381Y570756D01*
X145524Y554899D01*
X145419Y554773D01*
X145307Y554652D01*
X145275Y554601D01*
X145236Y554554D01*
X145154Y554411D01*
X145066Y554272D01*
X145042Y554216D01*
X145012Y554163D01*
X144957Y554008D01*
X144895Y553856D01*
X144882Y553796D01*
X144861Y553739D01*
X144835Y553576D01*
X144800Y553416D01*
X144795Y553339D01*
X144788Y553294D01*
X144789Y553233D01*
X144781Y553104D01*
X144781Y331729D01*
X144007Y329862D01*
X119718Y305573D01*
X117851Y304799D01*
X101781Y304799D01*
X101617Y304785D01*
X101452Y304778D01*
X101393Y304765D01*
X101332Y304759D01*
X101173Y304716D01*
X101013Y304680D01*
X100956Y304657D01*
X100898Y304641D01*
X100750Y304570D01*
X100597Y304507D01*
X100546Y304474D01*
X100491Y304447D01*
X100358Y304352D01*
X100219Y304262D01*
X100161Y304211D01*
X100125Y304185D01*
X100082Y304142D01*
X99985Y304056D01*
X97196Y301266D01*
X93461Y299719D01*
X74179Y299719D01*
G37*
%LPD*%
%LPC*%
G36*
X324394Y542099D02*
X324394Y542099D01*
X321056Y543482D01*
X318502Y546036D01*
X317119Y549374D01*
X317119Y552986D01*
X318502Y556324D01*
X321056Y558878D01*
X324394Y560261D01*
X341086Y560261D01*
X344424Y558878D01*
X345790Y557512D01*
X345916Y557407D01*
X346037Y557295D01*
X346088Y557263D01*
X346135Y557224D01*
X346278Y557142D01*
X346416Y557054D01*
X346473Y557030D01*
X346526Y557000D01*
X346681Y556945D01*
X346833Y556883D01*
X346893Y556870D01*
X346950Y556849D01*
X347112Y556823D01*
X347273Y556788D01*
X347350Y556783D01*
X347394Y556776D01*
X347455Y556777D01*
X347585Y556769D01*
X507173Y556769D01*
X507337Y556783D01*
X507501Y556790D01*
X507561Y556803D01*
X507622Y556809D01*
X507781Y556852D01*
X507941Y556888D01*
X507997Y556911D01*
X508056Y556927D01*
X508204Y556998D01*
X508356Y557061D01*
X508408Y557094D01*
X508463Y557121D01*
X508596Y557216D01*
X508735Y557306D01*
X508792Y557357D01*
X508829Y557383D01*
X508871Y557426D01*
X508969Y557512D01*
X521988Y570531D01*
X522093Y570658D01*
X522205Y570778D01*
X522237Y570830D01*
X522276Y570877D01*
X522358Y571019D01*
X522446Y571158D01*
X522470Y571215D01*
X522500Y571268D01*
X522555Y571422D01*
X522617Y571575D01*
X522630Y571634D01*
X522651Y571692D01*
X522677Y571854D01*
X522712Y572015D01*
X522717Y572092D01*
X522724Y572136D01*
X522723Y572197D01*
X522731Y572327D01*
X522731Y606284D01*
X522717Y606448D01*
X522710Y606613D01*
X522697Y606672D01*
X522691Y606733D01*
X522648Y606892D01*
X522612Y607052D01*
X522589Y607108D01*
X522573Y607167D01*
X522502Y607316D01*
X522439Y607468D01*
X522406Y607519D01*
X522379Y607574D01*
X522284Y607707D01*
X522194Y607846D01*
X522143Y607903D01*
X522117Y607940D01*
X522074Y607983D01*
X521988Y608080D01*
X519175Y610892D01*
X519175Y618468D01*
X524528Y623820D01*
X524633Y623946D01*
X524745Y624067D01*
X524777Y624119D01*
X524816Y624165D01*
X524898Y624308D01*
X524986Y624447D01*
X525010Y624503D01*
X525040Y624556D01*
X525095Y624711D01*
X525157Y624864D01*
X525170Y624923D01*
X525191Y624981D01*
X525217Y625143D01*
X525252Y625304D01*
X525257Y625381D01*
X525264Y625425D01*
X525263Y625486D01*
X525271Y625616D01*
X525271Y632460D01*
X525268Y632495D01*
X525270Y632529D01*
X525248Y632718D01*
X525231Y632909D01*
X525222Y632942D01*
X525218Y632976D01*
X525163Y633159D01*
X525113Y633343D01*
X525098Y633374D01*
X525088Y633407D01*
X525001Y633578D01*
X524919Y633750D01*
X524899Y633778D01*
X524884Y633809D01*
X524768Y633961D01*
X524657Y634116D01*
X524632Y634140D01*
X524612Y634167D01*
X524472Y634296D01*
X524335Y634430D01*
X524306Y634449D01*
X524280Y634473D01*
X524119Y634575D01*
X523962Y634682D01*
X523930Y634696D01*
X523901Y634714D01*
X523724Y634787D01*
X523550Y634864D01*
X523516Y634872D01*
X523484Y634885D01*
X523297Y634925D01*
X523112Y634971D01*
X523078Y634973D01*
X523044Y634980D01*
X522732Y634999D01*
X521219Y634999D01*
X517484Y636546D01*
X514626Y639404D01*
X513079Y643139D01*
X513079Y647181D01*
X514626Y650916D01*
X517484Y653774D01*
X521219Y655321D01*
X540501Y655321D01*
X544236Y653774D01*
X547094Y650916D01*
X548641Y647181D01*
X548641Y643139D01*
X547094Y639404D01*
X544236Y636546D01*
X540501Y634999D01*
X538988Y634999D01*
X538953Y634996D01*
X538919Y634998D01*
X538730Y634976D01*
X538539Y634959D01*
X538506Y634950D01*
X538472Y634946D01*
X538289Y634891D01*
X538105Y634841D01*
X538074Y634826D01*
X538041Y634816D01*
X537870Y634729D01*
X537698Y634647D01*
X537670Y634627D01*
X537639Y634612D01*
X537487Y634496D01*
X537332Y634385D01*
X537308Y634360D01*
X537281Y634340D01*
X537152Y634199D01*
X537018Y634063D01*
X536999Y634034D01*
X536975Y634008D01*
X536873Y633847D01*
X536766Y633690D01*
X536752Y633658D01*
X536734Y633629D01*
X536661Y633452D01*
X536584Y633278D01*
X536576Y633244D01*
X536563Y633212D01*
X536523Y633025D01*
X536477Y632840D01*
X536475Y632806D01*
X536468Y632772D01*
X536449Y632460D01*
X536449Y620536D01*
X536463Y620372D01*
X536470Y620207D01*
X536483Y620148D01*
X536489Y620087D01*
X536532Y619928D01*
X536568Y619768D01*
X536591Y619712D01*
X536607Y619653D01*
X536678Y619505D01*
X536741Y619352D01*
X536774Y619301D01*
X536801Y619246D01*
X536896Y619113D01*
X536986Y618974D01*
X537037Y618916D01*
X537063Y618880D01*
X537106Y618838D01*
X537192Y618740D01*
X537465Y618468D01*
X537465Y610892D01*
X534652Y608080D01*
X534547Y607954D01*
X534435Y607833D01*
X534403Y607781D01*
X534364Y607735D01*
X534282Y607592D01*
X534194Y607453D01*
X534170Y607397D01*
X534140Y607344D01*
X534085Y607189D01*
X534023Y607036D01*
X534010Y606977D01*
X533989Y606919D01*
X533963Y606757D01*
X533928Y606596D01*
X533923Y606519D01*
X533916Y606475D01*
X533917Y606414D01*
X533909Y606284D01*
X533909Y567848D01*
X533058Y565794D01*
X513706Y546442D01*
X511652Y545591D01*
X347585Y545591D01*
X347421Y545577D01*
X347257Y545570D01*
X347197Y545557D01*
X347137Y545551D01*
X346978Y545508D01*
X346817Y545472D01*
X346761Y545449D01*
X346702Y545433D01*
X346554Y545362D01*
X346402Y545299D01*
X346351Y545266D01*
X346296Y545239D01*
X346162Y545144D01*
X346024Y545054D01*
X345966Y545003D01*
X345930Y544977D01*
X345887Y544934D01*
X345790Y544848D01*
X344424Y543482D01*
X341086Y542099D01*
X324394Y542099D01*
G37*
%LPD*%
%LPC*%
G36*
X324394Y618299D02*
X324394Y618299D01*
X321056Y619682D01*
X318502Y622236D01*
X317119Y625574D01*
X317119Y629186D01*
X318502Y632524D01*
X321056Y635078D01*
X324394Y636461D01*
X341086Y636461D01*
X344424Y635078D01*
X346298Y633204D01*
X346424Y633099D01*
X346545Y632987D01*
X346596Y632955D01*
X346643Y632916D01*
X346786Y632834D01*
X346925Y632746D01*
X346981Y632722D01*
X347034Y632692D01*
X347189Y632637D01*
X347341Y632575D01*
X347401Y632562D01*
X347458Y632541D01*
X347621Y632515D01*
X347781Y632480D01*
X347858Y632475D01*
X347902Y632468D01*
X347964Y632469D01*
X348093Y632461D01*
X352444Y632461D01*
X352607Y632475D01*
X352772Y632482D01*
X352831Y632495D01*
X352892Y632501D01*
X353051Y632544D01*
X353211Y632580D01*
X353268Y632603D01*
X353327Y632619D01*
X353475Y632690D01*
X353627Y632753D01*
X353678Y632786D01*
X353733Y632813D01*
X353867Y632908D01*
X354005Y632998D01*
X354063Y633049D01*
X354099Y633075D01*
X354142Y633118D01*
X354239Y633204D01*
X365016Y643981D01*
X365121Y644107D01*
X365233Y644228D01*
X365265Y644279D01*
X365304Y644326D01*
X365386Y644469D01*
X365474Y644608D01*
X365498Y644664D01*
X365528Y644717D01*
X365583Y644872D01*
X365645Y645024D01*
X365658Y645084D01*
X365679Y645141D01*
X365705Y645304D01*
X365740Y645464D01*
X365745Y645541D01*
X365752Y645586D01*
X365751Y645647D01*
X365759Y645776D01*
X365759Y694676D01*
X365745Y694840D01*
X365738Y695004D01*
X365725Y695064D01*
X365719Y695125D01*
X365676Y695284D01*
X365640Y695444D01*
X365617Y695500D01*
X365601Y695559D01*
X365530Y695707D01*
X365467Y695859D01*
X365434Y695911D01*
X365407Y695966D01*
X365312Y696099D01*
X365222Y696238D01*
X365171Y696295D01*
X365145Y696332D01*
X365102Y696374D01*
X365016Y696472D01*
X361695Y699792D01*
X361695Y707368D01*
X367052Y712725D01*
X374628Y712725D01*
X377948Y709404D01*
X378074Y709299D01*
X378195Y709187D01*
X378247Y709155D01*
X378294Y709116D01*
X378436Y709034D01*
X378575Y708946D01*
X378632Y708922D01*
X378684Y708892D01*
X378839Y708837D01*
X378992Y708775D01*
X379051Y708762D01*
X379109Y708741D01*
X379271Y708715D01*
X379432Y708680D01*
X379509Y708675D01*
X379553Y708668D01*
X379614Y708669D01*
X379744Y708661D01*
X404871Y708661D01*
X406738Y707887D01*
X408524Y706101D01*
X433567Y681058D01*
X434341Y679191D01*
X434341Y660400D01*
X434344Y660365D01*
X434342Y660331D01*
X434364Y660142D01*
X434381Y659951D01*
X434390Y659918D01*
X434394Y659884D01*
X434449Y659701D01*
X434499Y659517D01*
X434514Y659486D01*
X434524Y659453D01*
X434611Y659282D01*
X434693Y659110D01*
X434713Y659082D01*
X434728Y659051D01*
X434844Y658899D01*
X434955Y658744D01*
X434980Y658720D01*
X435000Y658693D01*
X435140Y658564D01*
X435277Y658430D01*
X435306Y658411D01*
X435332Y658387D01*
X435493Y658285D01*
X435650Y658178D01*
X435682Y658164D01*
X435711Y658146D01*
X435888Y658073D01*
X436062Y657996D01*
X436096Y657988D01*
X436128Y657975D01*
X436315Y657935D01*
X436500Y657889D01*
X436534Y657887D01*
X436568Y657880D01*
X436880Y657861D01*
X438901Y657861D01*
X442636Y656314D01*
X445494Y653456D01*
X447041Y649721D01*
X447041Y645679D01*
X445494Y641944D01*
X442636Y639086D01*
X438901Y637539D01*
X419619Y637539D01*
X415884Y639086D01*
X413026Y641944D01*
X411479Y645679D01*
X411479Y649721D01*
X413026Y653456D01*
X415884Y656314D01*
X419619Y657861D01*
X421640Y657861D01*
X421675Y657864D01*
X421709Y657862D01*
X421898Y657884D01*
X422089Y657901D01*
X422122Y657910D01*
X422156Y657914D01*
X422339Y657969D01*
X422523Y658019D01*
X422554Y658034D01*
X422587Y658044D01*
X422758Y658131D01*
X422930Y658213D01*
X422958Y658233D01*
X422989Y658248D01*
X423141Y658364D01*
X423296Y658475D01*
X423320Y658500D01*
X423347Y658520D01*
X423476Y658660D01*
X423610Y658797D01*
X423629Y658826D01*
X423653Y658852D01*
X423755Y659013D01*
X423862Y659170D01*
X423876Y659202D01*
X423894Y659231D01*
X423967Y659408D01*
X424044Y659582D01*
X424052Y659616D01*
X424065Y659648D01*
X424105Y659835D01*
X424151Y660020D01*
X424153Y660054D01*
X424160Y660088D01*
X424179Y660400D01*
X424179Y675024D01*
X424165Y675187D01*
X424158Y675352D01*
X424145Y675411D01*
X424139Y675472D01*
X424096Y675631D01*
X424060Y675791D01*
X424037Y675848D01*
X424021Y675907D01*
X423950Y676055D01*
X423887Y676207D01*
X423854Y676258D01*
X423827Y676313D01*
X423732Y676447D01*
X423642Y676585D01*
X423591Y676643D01*
X423565Y676679D01*
X423522Y676722D01*
X423436Y676819D01*
X402499Y697756D01*
X402373Y697861D01*
X402252Y697973D01*
X402201Y698005D01*
X402154Y698044D01*
X402011Y698126D01*
X401872Y698214D01*
X401816Y698238D01*
X401763Y698268D01*
X401608Y698323D01*
X401456Y698385D01*
X401396Y698398D01*
X401339Y698419D01*
X401176Y698445D01*
X401016Y698480D01*
X400939Y698485D01*
X400894Y698492D01*
X400833Y698491D01*
X400704Y698499D01*
X379744Y698499D01*
X379580Y698485D01*
X379416Y698478D01*
X379356Y698465D01*
X379295Y698459D01*
X379136Y698416D01*
X378976Y698380D01*
X378920Y698357D01*
X378861Y698341D01*
X378713Y698270D01*
X378561Y698207D01*
X378509Y698174D01*
X378454Y698147D01*
X378321Y698052D01*
X378182Y697962D01*
X378125Y697911D01*
X378088Y697885D01*
X378046Y697842D01*
X377948Y697756D01*
X376664Y696472D01*
X376559Y696346D01*
X376447Y696225D01*
X376415Y696173D01*
X376376Y696126D01*
X376294Y695984D01*
X376206Y695845D01*
X376182Y695788D01*
X376152Y695736D01*
X376097Y695581D01*
X376035Y695428D01*
X376022Y695369D01*
X376001Y695311D01*
X375975Y695149D01*
X375940Y694988D01*
X375935Y694911D01*
X375928Y694867D01*
X375929Y694806D01*
X375921Y694676D01*
X375921Y641609D01*
X375147Y639742D01*
X358478Y623073D01*
X356611Y622299D01*
X348093Y622299D01*
X347929Y622285D01*
X347765Y622278D01*
X347706Y622265D01*
X347645Y622259D01*
X347486Y622216D01*
X347325Y622180D01*
X347269Y622157D01*
X347210Y622141D01*
X347062Y622070D01*
X346910Y622007D01*
X346859Y621974D01*
X346804Y621947D01*
X346670Y621852D01*
X346532Y621762D01*
X346474Y621711D01*
X346438Y621685D01*
X346395Y621642D01*
X346298Y621556D01*
X344424Y619682D01*
X341086Y618299D01*
X324394Y618299D01*
G37*
%LPD*%
%LPC*%
G36*
X71639Y439419D02*
X71639Y439419D01*
X67904Y440966D01*
X65046Y443824D01*
X63499Y447559D01*
X63499Y451601D01*
X65046Y455336D01*
X67904Y458194D01*
X71639Y459741D01*
X90921Y459741D01*
X94656Y458194D01*
X97047Y455803D01*
X97073Y455781D01*
X97096Y455755D01*
X97245Y455637D01*
X97392Y455514D01*
X97422Y455497D01*
X97449Y455475D01*
X97617Y455385D01*
X97783Y455291D01*
X97815Y455279D01*
X97846Y455263D01*
X98027Y455204D01*
X98207Y455140D01*
X98241Y455134D01*
X98274Y455123D01*
X98463Y455098D01*
X98651Y455066D01*
X98686Y455067D01*
X98720Y455062D01*
X98911Y455070D01*
X99102Y455072D01*
X99136Y455079D01*
X99170Y455080D01*
X99356Y455122D01*
X99544Y455158D01*
X99576Y455170D01*
X99610Y455178D01*
X99786Y455252D01*
X99964Y455320D01*
X99993Y455338D01*
X100025Y455352D01*
X100186Y455455D01*
X100348Y455554D01*
X100374Y455577D01*
X100403Y455596D01*
X100638Y455803D01*
X116096Y471261D01*
X116201Y471387D01*
X116313Y471508D01*
X116345Y471559D01*
X116384Y471606D01*
X116466Y471749D01*
X116554Y471888D01*
X116578Y471944D01*
X116608Y471997D01*
X116663Y472152D01*
X116725Y472304D01*
X116738Y472364D01*
X116759Y472421D01*
X116785Y472584D01*
X116820Y472744D01*
X116825Y472821D01*
X116832Y472866D01*
X116831Y472927D01*
X116839Y473056D01*
X116839Y562351D01*
X117613Y564218D01*
X159682Y606287D01*
X161549Y607061D01*
X164987Y607061D01*
X165151Y607075D01*
X165315Y607082D01*
X165374Y607095D01*
X165435Y607101D01*
X165594Y607144D01*
X165755Y607180D01*
X165811Y607203D01*
X165870Y607219D01*
X166018Y607290D01*
X166170Y607353D01*
X166221Y607386D01*
X166276Y607413D01*
X166410Y607508D01*
X166548Y607598D01*
X166606Y607649D01*
X166642Y607675D01*
X166685Y607718D01*
X166782Y607804D01*
X168656Y609678D01*
X171994Y611061D01*
X188686Y611061D01*
X192024Y609678D01*
X194578Y607124D01*
X195961Y603786D01*
X195961Y600174D01*
X194578Y596836D01*
X192024Y594282D01*
X188686Y592899D01*
X171994Y592899D01*
X168656Y594282D01*
X167147Y595791D01*
X167120Y595813D01*
X167098Y595839D01*
X166948Y595957D01*
X166802Y596080D01*
X166772Y596097D01*
X166744Y596118D01*
X166577Y596208D01*
X166411Y596303D01*
X166378Y596315D01*
X166348Y596331D01*
X166167Y596390D01*
X165987Y596454D01*
X165952Y596460D01*
X165919Y596470D01*
X165730Y596496D01*
X165542Y596527D01*
X165508Y596527D01*
X165473Y596532D01*
X165282Y596524D01*
X165092Y596521D01*
X165058Y596515D01*
X165023Y596513D01*
X164837Y596472D01*
X164650Y596436D01*
X164618Y596423D01*
X164584Y596416D01*
X164408Y596342D01*
X164230Y596273D01*
X164201Y596255D01*
X164168Y596242D01*
X164008Y596138D01*
X163845Y596040D01*
X163819Y596017D01*
X163790Y595998D01*
X163556Y595791D01*
X127744Y559979D01*
X127639Y559853D01*
X127527Y559732D01*
X127495Y559681D01*
X127456Y559634D01*
X127374Y559491D01*
X127286Y559352D01*
X127262Y559296D01*
X127232Y559243D01*
X127177Y559088D01*
X127115Y558936D01*
X127102Y558876D01*
X127081Y558819D01*
X127055Y558656D01*
X127020Y558496D01*
X127015Y558419D01*
X127008Y558374D01*
X127009Y558313D01*
X127001Y558184D01*
X127001Y468889D01*
X126227Y467022D01*
X104478Y445273D01*
X102611Y444499D01*
X99241Y444499D01*
X99077Y444485D01*
X98912Y444478D01*
X98853Y444465D01*
X98792Y444459D01*
X98633Y444416D01*
X98473Y444380D01*
X98416Y444357D01*
X98358Y444341D01*
X98210Y444270D01*
X98057Y444207D01*
X98006Y444174D01*
X97951Y444147D01*
X97818Y444052D01*
X97679Y443962D01*
X97621Y443911D01*
X97585Y443885D01*
X97542Y443842D01*
X97445Y443756D01*
X94656Y440966D01*
X90921Y439419D01*
X71639Y439419D01*
G37*
%LPD*%
%LPC*%
G36*
X324394Y669099D02*
X324394Y669099D01*
X321056Y670482D01*
X318502Y673036D01*
X317119Y676374D01*
X317119Y679986D01*
X318502Y683324D01*
X320483Y685305D01*
X320505Y685331D01*
X320531Y685354D01*
X320649Y685504D01*
X320771Y685650D01*
X320789Y685680D01*
X320810Y685707D01*
X320900Y685875D01*
X320995Y686041D01*
X321006Y686074D01*
X321023Y686104D01*
X321082Y686285D01*
X321146Y686465D01*
X321151Y686499D01*
X321162Y686532D01*
X321188Y686721D01*
X321219Y686909D01*
X321219Y686944D01*
X321223Y686978D01*
X321216Y687169D01*
X321213Y687360D01*
X321206Y687394D01*
X321205Y687428D01*
X321164Y687615D01*
X321127Y687802D01*
X321115Y687834D01*
X321107Y687868D01*
X321034Y688044D01*
X320965Y688222D01*
X320947Y688251D01*
X320934Y688283D01*
X320830Y688443D01*
X320731Y688606D01*
X320708Y688632D01*
X320689Y688662D01*
X320483Y688896D01*
X316590Y692789D01*
X313689Y699791D01*
X313689Y707369D01*
X316590Y714371D01*
X321949Y719730D01*
X328951Y722631D01*
X336529Y722631D01*
X343531Y719730D01*
X348890Y714371D01*
X351791Y707369D01*
X351791Y699791D01*
X348890Y692789D01*
X344997Y688896D01*
X344975Y688869D01*
X344949Y688846D01*
X344830Y688696D01*
X344709Y688550D01*
X344691Y688520D01*
X344670Y688493D01*
X344580Y688325D01*
X344485Y688159D01*
X344474Y688127D01*
X344457Y688096D01*
X344398Y687915D01*
X344334Y687735D01*
X344329Y687701D01*
X344318Y687668D01*
X344292Y687479D01*
X344261Y687291D01*
X344261Y687256D01*
X344257Y687222D01*
X344264Y687031D01*
X344267Y686841D01*
X344274Y686807D01*
X344275Y686772D01*
X344316Y686586D01*
X344353Y686399D01*
X344365Y686366D01*
X344373Y686332D01*
X344446Y686157D01*
X344515Y685979D01*
X344533Y685949D01*
X344546Y685917D01*
X344650Y685757D01*
X344749Y685594D01*
X344772Y685568D01*
X344791Y685539D01*
X344997Y685305D01*
X346978Y683324D01*
X348361Y679986D01*
X348361Y676374D01*
X346978Y673036D01*
X344424Y670482D01*
X341086Y669099D01*
X324394Y669099D01*
G37*
%LPD*%
%LPC*%
G36*
X324394Y643699D02*
X324394Y643699D01*
X321056Y645082D01*
X318502Y647636D01*
X317119Y650974D01*
X317119Y654586D01*
X318502Y657924D01*
X321056Y660478D01*
X324394Y661861D01*
X341086Y661861D01*
X344424Y660478D01*
X346978Y657924D01*
X348361Y654586D01*
X348361Y650974D01*
X346978Y647636D01*
X344424Y645082D01*
X341086Y643699D01*
X324394Y643699D01*
G37*
%LPD*%
%LPC*%
G36*
X171994Y643699D02*
X171994Y643699D01*
X168656Y645082D01*
X166102Y647636D01*
X164719Y650974D01*
X164719Y654586D01*
X166102Y657924D01*
X168656Y660478D01*
X171994Y661861D01*
X188686Y661861D01*
X192024Y660478D01*
X194578Y657924D01*
X195961Y654586D01*
X195961Y650974D01*
X194578Y647636D01*
X192024Y645082D01*
X188686Y643699D01*
X171994Y643699D01*
G37*
%LPD*%
%LPC*%
G36*
X171994Y618299D02*
X171994Y618299D01*
X168656Y619682D01*
X166102Y622236D01*
X164719Y625574D01*
X164719Y629186D01*
X166102Y632524D01*
X168656Y635078D01*
X171994Y636461D01*
X188686Y636461D01*
X192024Y635078D01*
X194578Y632524D01*
X195961Y629186D01*
X195961Y625574D01*
X194578Y622236D01*
X192024Y619682D01*
X188686Y618299D01*
X171994Y618299D01*
G37*
%LPD*%
%LPC*%
G36*
X171994Y440499D02*
X171994Y440499D01*
X168656Y441882D01*
X166102Y444436D01*
X164719Y447774D01*
X164719Y451386D01*
X166102Y454724D01*
X168656Y457278D01*
X171994Y458661D01*
X188686Y458661D01*
X192024Y457278D01*
X194578Y454724D01*
X195961Y451386D01*
X195961Y447774D01*
X194578Y444436D01*
X192024Y441882D01*
X188686Y440499D01*
X171994Y440499D01*
G37*
%LPD*%
%LPC*%
G36*
X324394Y491299D02*
X324394Y491299D01*
X321056Y492682D01*
X318502Y495236D01*
X317119Y498574D01*
X317119Y502186D01*
X318502Y505524D01*
X321056Y508078D01*
X324394Y509461D01*
X341086Y509461D01*
X344424Y508078D01*
X346978Y505524D01*
X348361Y502186D01*
X348361Y498574D01*
X346978Y495236D01*
X344424Y492682D01*
X341086Y491299D01*
X324394Y491299D01*
G37*
%LPD*%
%LPC*%
G36*
X324394Y338899D02*
X324394Y338899D01*
X321056Y340282D01*
X318502Y342836D01*
X317119Y346174D01*
X317119Y349786D01*
X318502Y353124D01*
X321056Y355678D01*
X324394Y357061D01*
X341086Y357061D01*
X344424Y355678D01*
X346978Y353124D01*
X348361Y349786D01*
X348361Y346174D01*
X346978Y342836D01*
X344424Y340282D01*
X341086Y338899D01*
X324394Y338899D01*
G37*
%LPD*%
%LPC*%
G36*
X324394Y440499D02*
X324394Y440499D01*
X321056Y441882D01*
X318502Y444436D01*
X317119Y447774D01*
X317119Y451386D01*
X318502Y454724D01*
X321056Y457278D01*
X324394Y458661D01*
X341086Y458661D01*
X344424Y457278D01*
X346978Y454724D01*
X348361Y451386D01*
X348361Y447774D01*
X346978Y444436D01*
X344424Y441882D01*
X341086Y440499D01*
X324394Y440499D01*
G37*
%LPD*%
%LPC*%
G36*
X171994Y491299D02*
X171994Y491299D01*
X168656Y492682D01*
X166102Y495236D01*
X164719Y498574D01*
X164719Y502186D01*
X166102Y505524D01*
X168656Y508078D01*
X171994Y509461D01*
X188686Y509461D01*
X192024Y508078D01*
X194578Y505524D01*
X195961Y502186D01*
X195961Y498574D01*
X194578Y495236D01*
X192024Y492682D01*
X188686Y491299D01*
X171994Y491299D01*
G37*
%LPD*%
%LPC*%
G36*
X171994Y415099D02*
X171994Y415099D01*
X168656Y416482D01*
X166102Y419036D01*
X164719Y422374D01*
X164719Y425986D01*
X166102Y429324D01*
X168656Y431878D01*
X171994Y433261D01*
X188686Y433261D01*
X192024Y431878D01*
X194578Y429324D01*
X195961Y425986D01*
X195961Y422374D01*
X194578Y419036D01*
X192024Y416482D01*
X188686Y415099D01*
X171994Y415099D01*
G37*
%LPD*%
%LPC*%
G36*
X324394Y415099D02*
X324394Y415099D01*
X321056Y416482D01*
X318502Y419036D01*
X317119Y422374D01*
X317119Y425986D01*
X318502Y429324D01*
X321056Y431878D01*
X324394Y433261D01*
X341086Y433261D01*
X344424Y431878D01*
X346978Y429324D01*
X348361Y425986D01*
X348361Y422374D01*
X346978Y419036D01*
X344424Y416482D01*
X341086Y415099D01*
X324394Y415099D01*
G37*
%LPD*%
%LPC*%
G36*
X171994Y465899D02*
X171994Y465899D01*
X168656Y467282D01*
X166102Y469836D01*
X164719Y473174D01*
X164719Y476786D01*
X166102Y480124D01*
X168656Y482678D01*
X171994Y484061D01*
X188686Y484061D01*
X192024Y482678D01*
X194578Y480124D01*
X195961Y476786D01*
X195961Y473174D01*
X194578Y469836D01*
X192024Y467282D01*
X188686Y465899D01*
X171994Y465899D01*
G37*
%LPD*%
%LPC*%
G36*
X324394Y567499D02*
X324394Y567499D01*
X321056Y568882D01*
X318502Y571436D01*
X317119Y574774D01*
X317119Y578386D01*
X318502Y581724D01*
X321056Y584278D01*
X324394Y585661D01*
X341086Y585661D01*
X344424Y584278D01*
X346978Y581724D01*
X348361Y578386D01*
X348361Y574774D01*
X346978Y571436D01*
X344424Y568882D01*
X341086Y567499D01*
X324394Y567499D01*
G37*
%LPD*%
%LPC*%
G36*
X324394Y465899D02*
X324394Y465899D01*
X321056Y467282D01*
X318502Y469836D01*
X317119Y473174D01*
X317119Y476786D01*
X318502Y480124D01*
X321056Y482678D01*
X324394Y484061D01*
X341086Y484061D01*
X344424Y482678D01*
X346978Y480124D01*
X348361Y476786D01*
X348361Y473174D01*
X346978Y469836D01*
X344424Y467282D01*
X341086Y465899D01*
X324394Y465899D01*
G37*
%LPD*%
%LPC*%
G36*
X324394Y364299D02*
X324394Y364299D01*
X321056Y365682D01*
X318502Y368236D01*
X317119Y371574D01*
X317119Y375186D01*
X318502Y378524D01*
X321056Y381078D01*
X324394Y382461D01*
X341086Y382461D01*
X344424Y381078D01*
X346978Y378524D01*
X348361Y375186D01*
X348361Y371574D01*
X346978Y368236D01*
X344424Y365682D01*
X341086Y364299D01*
X324394Y364299D01*
G37*
%LPD*%
%LPC*%
G36*
X171994Y364299D02*
X171994Y364299D01*
X168656Y365682D01*
X166102Y368236D01*
X164719Y371574D01*
X164719Y375186D01*
X166102Y378524D01*
X168656Y381078D01*
X171994Y382461D01*
X188686Y382461D01*
X192024Y381078D01*
X194578Y378524D01*
X195961Y375186D01*
X195961Y371574D01*
X194578Y368236D01*
X192024Y365682D01*
X188686Y364299D01*
X171994Y364299D01*
G37*
%LPD*%
%LPC*%
G36*
X515619Y53339D02*
X515619Y53339D01*
X515619Y77033D01*
X517646Y76629D01*
X520393Y75796D01*
X523044Y74698D01*
X525575Y73345D01*
X527962Y71751D01*
X530180Y69930D01*
X532210Y67900D01*
X534031Y65682D01*
X535625Y63295D01*
X536978Y60764D01*
X538076Y58113D01*
X538909Y55366D01*
X539313Y53339D01*
X515619Y53339D01*
G37*
%LPD*%
%LPC*%
G36*
X515619Y43181D02*
X515619Y43181D01*
X539313Y43181D01*
X538909Y41154D01*
X538076Y38407D01*
X536978Y35756D01*
X535625Y33225D01*
X534031Y30838D01*
X532210Y28620D01*
X530180Y26590D01*
X527962Y24769D01*
X525575Y23175D01*
X523044Y21822D01*
X520393Y20724D01*
X517646Y19891D01*
X515619Y19487D01*
X515619Y43181D01*
G37*
%LPD*%
%LPC*%
G36*
X481767Y53339D02*
X481767Y53339D01*
X482171Y55366D01*
X483004Y58113D01*
X484102Y60764D01*
X485455Y63295D01*
X487049Y65682D01*
X488870Y67900D01*
X490900Y69930D01*
X493118Y71751D01*
X495505Y73345D01*
X498036Y74698D01*
X500687Y75796D01*
X503434Y76629D01*
X505461Y77033D01*
X505461Y53339D01*
X481767Y53339D01*
G37*
%LPD*%
%LPC*%
G36*
X503434Y19891D02*
X503434Y19891D01*
X500687Y20724D01*
X498036Y21822D01*
X495505Y23175D01*
X493118Y24769D01*
X490900Y26590D01*
X488870Y28620D01*
X487049Y30838D01*
X485455Y33225D01*
X484102Y35756D01*
X483004Y38407D01*
X482171Y41154D01*
X481767Y43181D01*
X505461Y43181D01*
X505461Y19487D01*
X503434Y19891D01*
G37*
%LPD*%
%LPC*%
G36*
X360599Y147239D02*
X360599Y147239D01*
X360599Y159781D01*
X370935Y159781D01*
X371581Y159608D01*
X372160Y159273D01*
X372633Y158800D01*
X372968Y158221D01*
X373141Y157575D01*
X373141Y147239D01*
X360599Y147239D01*
G37*
%LPD*%
%LPC*%
G36*
X55799Y147239D02*
X55799Y147239D01*
X55799Y159781D01*
X66135Y159781D01*
X66781Y159608D01*
X67360Y159273D01*
X67833Y158800D01*
X68168Y158221D01*
X68341Y157575D01*
X68341Y147239D01*
X55799Y147239D01*
G37*
%LPD*%
%LPC*%
G36*
X33259Y147239D02*
X33259Y147239D01*
X33259Y157575D01*
X33432Y158221D01*
X33767Y158800D01*
X34240Y159273D01*
X34819Y159608D01*
X35465Y159781D01*
X45801Y159781D01*
X45801Y147239D01*
X33259Y147239D01*
G37*
%LPD*%
%LPC*%
G36*
X338059Y147239D02*
X338059Y147239D01*
X338059Y157575D01*
X338232Y158221D01*
X338567Y158800D01*
X339040Y159273D01*
X339619Y159608D01*
X340265Y159781D01*
X350601Y159781D01*
X350601Y147239D01*
X338059Y147239D01*
G37*
%LPD*%
%LPC*%
G36*
X360599Y124699D02*
X360599Y124699D01*
X360599Y137241D01*
X373141Y137241D01*
X373141Y126905D01*
X372968Y126259D01*
X372633Y125680D01*
X372160Y125207D01*
X371581Y124872D01*
X370935Y124699D01*
X360599Y124699D01*
G37*
%LPD*%
%LPC*%
G36*
X55799Y124699D02*
X55799Y124699D01*
X55799Y137241D01*
X68341Y137241D01*
X68341Y126905D01*
X68168Y126259D01*
X67833Y125680D01*
X67360Y125207D01*
X66781Y124872D01*
X66135Y124699D01*
X55799Y124699D01*
G37*
%LPD*%
%LPC*%
G36*
X35465Y124699D02*
X35465Y124699D01*
X34819Y124872D01*
X34240Y125207D01*
X33767Y125680D01*
X33432Y126259D01*
X33259Y126905D01*
X33259Y137241D01*
X45801Y137241D01*
X45801Y124699D01*
X35465Y124699D01*
G37*
%LPD*%
%LPC*%
G36*
X340265Y124699D02*
X340265Y124699D01*
X339619Y124872D01*
X339040Y125207D01*
X338567Y125680D01*
X338232Y126259D01*
X338059Y126905D01*
X338059Y137241D01*
X350601Y137241D01*
X350601Y124699D01*
X340265Y124699D01*
G37*
%LPD*%
%LPC*%
G36*
X431799Y624839D02*
X431799Y624839D01*
X431799Y632461D01*
X437680Y632461D01*
X439259Y632211D01*
X440780Y631716D01*
X442205Y630990D01*
X443499Y630050D01*
X444630Y628919D01*
X445570Y627625D01*
X446296Y626200D01*
X446739Y624839D01*
X431799Y624839D01*
G37*
%LPD*%
%LPC*%
G36*
X83819Y619759D02*
X83819Y619759D01*
X83819Y627381D01*
X89700Y627381D01*
X91279Y627131D01*
X92800Y626636D01*
X94225Y625910D01*
X95519Y624970D01*
X96650Y623839D01*
X97590Y622545D01*
X98316Y621120D01*
X98759Y619759D01*
X83819Y619759D01*
G37*
%LPD*%
%LPC*%
G36*
X86359Y337819D02*
X86359Y337819D01*
X86359Y345441D01*
X92240Y345441D01*
X93819Y345191D01*
X95340Y344696D01*
X96765Y343970D01*
X98059Y343030D01*
X99190Y341899D01*
X100130Y340605D01*
X100856Y339180D01*
X101299Y337819D01*
X86359Y337819D01*
G37*
%LPD*%
%LPC*%
G36*
X431799Y337819D02*
X431799Y337819D01*
X431799Y345441D01*
X437680Y345441D01*
X439259Y345191D01*
X440780Y344696D01*
X442205Y343970D01*
X443499Y343030D01*
X444630Y341899D01*
X445570Y340605D01*
X446296Y339180D01*
X446739Y337819D01*
X431799Y337819D01*
G37*
%LPD*%
%LPC*%
G36*
X431799Y477519D02*
X431799Y477519D01*
X431799Y485141D01*
X437680Y485141D01*
X439259Y484891D01*
X440780Y484396D01*
X442205Y483670D01*
X443499Y482730D01*
X444630Y481599D01*
X445570Y480305D01*
X446296Y478880D01*
X446739Y477519D01*
X431799Y477519D01*
G37*
%LPD*%
%LPC*%
G36*
X83819Y477519D02*
X83819Y477519D01*
X83819Y485141D01*
X89700Y485141D01*
X91279Y484891D01*
X92800Y484396D01*
X94225Y483670D01*
X95519Y482730D01*
X96650Y481599D01*
X97590Y480305D01*
X98316Y478880D01*
X98759Y477519D01*
X83819Y477519D01*
G37*
%LPD*%
%LPC*%
G36*
X411781Y624839D02*
X411781Y624839D01*
X412224Y626200D01*
X412950Y627625D01*
X413890Y628919D01*
X415021Y630050D01*
X416315Y630990D01*
X417740Y631716D01*
X419261Y632211D01*
X420840Y632461D01*
X426721Y632461D01*
X426721Y624839D01*
X411781Y624839D01*
G37*
%LPD*%
%LPC*%
G36*
X63801Y619759D02*
X63801Y619759D01*
X64244Y621120D01*
X64970Y622545D01*
X65910Y623839D01*
X67041Y624970D01*
X68335Y625910D01*
X69760Y626636D01*
X71281Y627131D01*
X72860Y627381D01*
X78741Y627381D01*
X78741Y619759D01*
X63801Y619759D01*
G37*
%LPD*%
%LPC*%
G36*
X63801Y477519D02*
X63801Y477519D01*
X64244Y478880D01*
X64970Y480305D01*
X65910Y481599D01*
X67041Y482730D01*
X68335Y483670D01*
X69760Y484396D01*
X71281Y484891D01*
X72860Y485141D01*
X78741Y485141D01*
X78741Y477519D01*
X63801Y477519D01*
G37*
%LPD*%
%LPC*%
G36*
X411781Y477519D02*
X411781Y477519D01*
X412224Y478880D01*
X412950Y480305D01*
X413890Y481599D01*
X415021Y482730D01*
X416315Y483670D01*
X417740Y484396D01*
X419261Y484891D01*
X420840Y485141D01*
X426721Y485141D01*
X426721Y477519D01*
X411781Y477519D01*
G37*
%LPD*%
%LPC*%
G36*
X411781Y337819D02*
X411781Y337819D01*
X412224Y339180D01*
X412950Y340605D01*
X413890Y341899D01*
X415021Y343030D01*
X416315Y343970D01*
X417740Y344696D01*
X419261Y345191D01*
X420840Y345441D01*
X426721Y345441D01*
X426721Y337819D01*
X411781Y337819D01*
G37*
%LPD*%
%LPC*%
G36*
X66341Y337819D02*
X66341Y337819D01*
X66784Y339180D01*
X67510Y340605D01*
X68450Y341899D01*
X69581Y343030D01*
X70875Y343970D01*
X72300Y344696D01*
X73821Y345191D01*
X75400Y345441D01*
X81281Y345441D01*
X81281Y337819D01*
X66341Y337819D01*
G37*
%LPD*%
%LPC*%
G36*
X431799Y619761D02*
X431799Y619761D01*
X446739Y619761D01*
X446296Y618400D01*
X445570Y616975D01*
X444630Y615681D01*
X443499Y614550D01*
X442205Y613610D01*
X440780Y612884D01*
X439259Y612389D01*
X437680Y612139D01*
X431799Y612139D01*
X431799Y619761D01*
G37*
%LPD*%
%LPC*%
G36*
X431799Y472441D02*
X431799Y472441D01*
X446739Y472441D01*
X446296Y471080D01*
X445570Y469655D01*
X444630Y468361D01*
X443499Y467230D01*
X442205Y466290D01*
X440780Y465564D01*
X439259Y465069D01*
X437680Y464819D01*
X431799Y464819D01*
X431799Y472441D01*
G37*
%LPD*%
%LPC*%
G36*
X83819Y472441D02*
X83819Y472441D01*
X98759Y472441D01*
X98316Y471080D01*
X97590Y469655D01*
X96650Y468361D01*
X95519Y467230D01*
X94225Y466290D01*
X92800Y465564D01*
X91279Y465069D01*
X89700Y464819D01*
X83819Y464819D01*
X83819Y472441D01*
G37*
%LPD*%
%LPC*%
G36*
X431799Y332741D02*
X431799Y332741D01*
X446739Y332741D01*
X446296Y331380D01*
X445570Y329955D01*
X444630Y328661D01*
X443499Y327530D01*
X442205Y326590D01*
X440780Y325864D01*
X439259Y325369D01*
X437680Y325119D01*
X431799Y325119D01*
X431799Y332741D01*
G37*
%LPD*%
%LPC*%
G36*
X86359Y332741D02*
X86359Y332741D01*
X101299Y332741D01*
X100856Y331380D01*
X100130Y329955D01*
X99190Y328661D01*
X98059Y327530D01*
X96765Y326590D01*
X95340Y325864D01*
X93819Y325369D01*
X92240Y325119D01*
X86359Y325119D01*
X86359Y332741D01*
G37*
%LPD*%
%LPC*%
G36*
X83819Y614681D02*
X83819Y614681D01*
X98759Y614681D01*
X98316Y613320D01*
X97590Y611895D01*
X96650Y610601D01*
X95519Y609470D01*
X94225Y608530D01*
X92800Y607804D01*
X91279Y607309D01*
X89700Y607059D01*
X83819Y607059D01*
X83819Y614681D01*
G37*
%LPD*%
%LPC*%
G36*
X72860Y464819D02*
X72860Y464819D01*
X71281Y465069D01*
X69760Y465564D01*
X68335Y466290D01*
X67041Y467230D01*
X65910Y468361D01*
X64970Y469655D01*
X64244Y471080D01*
X63801Y472441D01*
X78741Y472441D01*
X78741Y464819D01*
X72860Y464819D01*
G37*
%LPD*%
%LPC*%
G36*
X75400Y325119D02*
X75400Y325119D01*
X73821Y325369D01*
X72300Y325864D01*
X70875Y326590D01*
X69581Y327530D01*
X68450Y328661D01*
X67510Y329955D01*
X66784Y331380D01*
X66341Y332741D01*
X81281Y332741D01*
X81281Y325119D01*
X75400Y325119D01*
G37*
%LPD*%
%LPC*%
G36*
X420840Y612139D02*
X420840Y612139D01*
X419261Y612389D01*
X417740Y612884D01*
X416315Y613610D01*
X415021Y614550D01*
X413890Y615681D01*
X412950Y616975D01*
X412224Y618400D01*
X411781Y619761D01*
X426721Y619761D01*
X426721Y612139D01*
X420840Y612139D01*
G37*
%LPD*%
%LPC*%
G36*
X420840Y325119D02*
X420840Y325119D01*
X419261Y325369D01*
X417740Y325864D01*
X416315Y326590D01*
X415021Y327530D01*
X413890Y328661D01*
X412950Y329955D01*
X412224Y331380D01*
X411781Y332741D01*
X426721Y332741D01*
X426721Y325119D01*
X420840Y325119D01*
G37*
%LPD*%
%LPC*%
G36*
X72860Y607059D02*
X72860Y607059D01*
X71281Y607309D01*
X69760Y607804D01*
X68335Y608530D01*
X67041Y609470D01*
X65910Y610601D01*
X64970Y611895D01*
X64244Y613320D01*
X63801Y614681D01*
X78741Y614681D01*
X78741Y607059D01*
X72860Y607059D01*
G37*
%LPD*%
%LPC*%
G36*
X420840Y464819D02*
X420840Y464819D01*
X419261Y465069D01*
X417740Y465564D01*
X416315Y466290D01*
X415021Y467230D01*
X413890Y468361D01*
X412950Y469655D01*
X412224Y471080D01*
X411781Y472441D01*
X426721Y472441D01*
X426721Y464819D01*
X420840Y464819D01*
G37*
%LPD*%
%LPC*%
G36*
X182879Y350519D02*
X182879Y350519D01*
X182879Y357061D01*
X187595Y357061D01*
X189007Y356837D01*
X190366Y356395D01*
X191639Y355747D01*
X192796Y354906D01*
X193806Y353896D01*
X194647Y352739D01*
X195295Y351466D01*
X195603Y350519D01*
X182879Y350519D01*
G37*
%LPD*%
%LPC*%
G36*
X335279Y401319D02*
X335279Y401319D01*
X335279Y407861D01*
X339995Y407861D01*
X341407Y407637D01*
X342766Y407195D01*
X344039Y406547D01*
X345196Y405706D01*
X346206Y404696D01*
X347047Y403539D01*
X347695Y402266D01*
X348003Y401319D01*
X335279Y401319D01*
G37*
%LPD*%
%LPC*%
G36*
X165077Y350519D02*
X165077Y350519D01*
X165385Y351466D01*
X166033Y352739D01*
X166874Y353896D01*
X167884Y354906D01*
X169041Y355747D01*
X170314Y356395D01*
X171673Y356837D01*
X173085Y357061D01*
X177801Y357061D01*
X177801Y350519D01*
X165077Y350519D01*
G37*
%LPD*%
%LPC*%
G36*
X317477Y401319D02*
X317477Y401319D01*
X317785Y402266D01*
X318433Y403539D01*
X319274Y404696D01*
X320284Y405706D01*
X321441Y406547D01*
X322714Y407195D01*
X324073Y407637D01*
X325485Y407861D01*
X330201Y407861D01*
X330201Y401319D01*
X317477Y401319D01*
G37*
%LPD*%
%LPC*%
G36*
X182879Y338899D02*
X182879Y338899D01*
X182879Y345441D01*
X195603Y345441D01*
X195295Y344494D01*
X194647Y343221D01*
X193806Y342064D01*
X192796Y341054D01*
X191639Y340213D01*
X190366Y339565D01*
X189007Y339123D01*
X187595Y338899D01*
X182879Y338899D01*
G37*
%LPD*%
%LPC*%
G36*
X335279Y389699D02*
X335279Y389699D01*
X335279Y396241D01*
X348003Y396241D01*
X347695Y395294D01*
X347047Y394021D01*
X346206Y392864D01*
X345196Y391854D01*
X344039Y391013D01*
X342766Y390365D01*
X341407Y389923D01*
X339995Y389699D01*
X335279Y389699D01*
G37*
%LPD*%
%LPC*%
G36*
X173085Y338899D02*
X173085Y338899D01*
X171673Y339123D01*
X170314Y339565D01*
X169041Y340213D01*
X167884Y341054D01*
X166874Y342064D01*
X166033Y343221D01*
X165385Y344494D01*
X165077Y345441D01*
X177801Y345441D01*
X177801Y338899D01*
X173085Y338899D01*
G37*
%LPD*%
%LPC*%
G36*
X325485Y389699D02*
X325485Y389699D01*
X324073Y389923D01*
X322714Y390365D01*
X321441Y391013D01*
X320284Y391854D01*
X319274Y392864D01*
X318433Y394021D01*
X317785Y395294D01*
X317477Y396241D01*
X330201Y396241D01*
X330201Y389699D01*
X325485Y389699D01*
G37*
%LPD*%
%LPC*%
G36*
X195579Y238759D02*
X195579Y238759D01*
X195579Y245365D01*
X196828Y245365D01*
X202185Y240008D01*
X202185Y238759D01*
X195579Y238759D01*
G37*
%LPD*%
%LPC*%
G36*
X48259Y238759D02*
X48259Y238759D01*
X48259Y245365D01*
X49508Y245365D01*
X54865Y240008D01*
X54865Y238759D01*
X48259Y238759D01*
G37*
%LPD*%
%LPC*%
G36*
X548639Y185419D02*
X548639Y185419D01*
X548639Y192025D01*
X549888Y192025D01*
X555245Y186668D01*
X555245Y185419D01*
X548639Y185419D01*
G37*
%LPD*%
%LPC*%
G36*
X424179Y175259D02*
X424179Y175259D01*
X424179Y181865D01*
X425428Y181865D01*
X430785Y176508D01*
X430785Y175259D01*
X424179Y175259D01*
G37*
%LPD*%
%LPC*%
G36*
X530859Y515619D02*
X530859Y515619D01*
X530859Y522225D01*
X532108Y522225D01*
X537465Y516868D01*
X537465Y515619D01*
X530859Y515619D01*
G37*
%LPD*%
%LPC*%
G36*
X431799Y27939D02*
X431799Y27939D01*
X431799Y34545D01*
X433048Y34545D01*
X438405Y29188D01*
X438405Y27939D01*
X431799Y27939D01*
G37*
%LPD*%
%LPC*%
G36*
X183895Y238759D02*
X183895Y238759D01*
X183895Y240008D01*
X189252Y245365D01*
X190501Y245365D01*
X190501Y238759D01*
X183895Y238759D01*
G37*
%LPD*%
%LPC*%
G36*
X195579Y227075D02*
X195579Y227075D01*
X195579Y233681D01*
X202185Y233681D01*
X202185Y232432D01*
X196828Y227075D01*
X195579Y227075D01*
G37*
%LPD*%
%LPC*%
G36*
X48259Y227075D02*
X48259Y227075D01*
X48259Y233681D01*
X54865Y233681D01*
X54865Y232432D01*
X49508Y227075D01*
X48259Y227075D01*
G37*
%LPD*%
%LPC*%
G36*
X412495Y175259D02*
X412495Y175259D01*
X412495Y176508D01*
X417852Y181865D01*
X419101Y181865D01*
X419101Y175259D01*
X412495Y175259D01*
G37*
%LPD*%
%LPC*%
G36*
X548639Y173735D02*
X548639Y173735D01*
X548639Y180341D01*
X555245Y180341D01*
X555245Y179092D01*
X549888Y173735D01*
X548639Y173735D01*
G37*
%LPD*%
%LPC*%
G36*
X536955Y185419D02*
X536955Y185419D01*
X536955Y186668D01*
X542312Y192025D01*
X543561Y192025D01*
X543561Y185419D01*
X536955Y185419D01*
G37*
%LPD*%
%LPC*%
G36*
X519175Y515619D02*
X519175Y515619D01*
X519175Y516868D01*
X524532Y522225D01*
X525781Y522225D01*
X525781Y515619D01*
X519175Y515619D01*
G37*
%LPD*%
%LPC*%
G36*
X530859Y503935D02*
X530859Y503935D01*
X530859Y510541D01*
X537465Y510541D01*
X537465Y509292D01*
X532108Y503935D01*
X530859Y503935D01*
G37*
%LPD*%
%LPC*%
G36*
X424179Y163575D02*
X424179Y163575D01*
X424179Y170181D01*
X430785Y170181D01*
X430785Y168932D01*
X425428Y163575D01*
X424179Y163575D01*
G37*
%LPD*%
%LPC*%
G36*
X325119Y249935D02*
X325119Y249935D01*
X325119Y256541D01*
X331725Y256541D01*
X331725Y255292D01*
X326368Y249935D01*
X325119Y249935D01*
G37*
%LPD*%
%LPC*%
G36*
X36575Y238759D02*
X36575Y238759D01*
X36575Y240008D01*
X41932Y245365D01*
X43181Y245365D01*
X43181Y238759D01*
X36575Y238759D01*
G37*
%LPD*%
%LPC*%
G36*
X431799Y16255D02*
X431799Y16255D01*
X431799Y22861D01*
X438405Y22861D01*
X438405Y21612D01*
X433048Y16255D01*
X431799Y16255D01*
G37*
%LPD*%
%LPC*%
G36*
X41932Y227075D02*
X41932Y227075D01*
X36575Y232432D01*
X36575Y233681D01*
X43181Y233681D01*
X43181Y227075D01*
X41932Y227075D01*
G37*
%LPD*%
%LPC*%
G36*
X189252Y227075D02*
X189252Y227075D01*
X183895Y232432D01*
X183895Y233681D01*
X190501Y233681D01*
X190501Y227075D01*
X189252Y227075D01*
G37*
%LPD*%
%LPC*%
G36*
X542312Y173735D02*
X542312Y173735D01*
X536955Y179092D01*
X536955Y180341D01*
X543561Y180341D01*
X543561Y173735D01*
X542312Y173735D01*
G37*
%LPD*%
%LPC*%
G36*
X417852Y163575D02*
X417852Y163575D01*
X412495Y168932D01*
X412495Y170181D01*
X419101Y170181D01*
X419101Y163575D01*
X417852Y163575D01*
G37*
%LPD*%
%LPC*%
G36*
X318792Y249935D02*
X318792Y249935D01*
X313435Y255292D01*
X313435Y256541D01*
X320041Y256541D01*
X320041Y249935D01*
X318792Y249935D01*
G37*
%LPD*%
%LPC*%
G36*
X425472Y16255D02*
X425472Y16255D01*
X420115Y21612D01*
X420115Y22861D01*
X426721Y22861D01*
X426721Y16255D01*
X425472Y16255D01*
G37*
%LPD*%
%LPC*%
G36*
X510539Y48259D02*
X510539Y48259D01*
X510539Y48261D01*
X510541Y48261D01*
X510541Y48259D01*
X510539Y48259D01*
G37*
%LPD*%
D10*
X436880Y500380D02*
X421640Y500380D01*
X421640Y474980D02*
X436880Y474980D01*
X436880Y449580D02*
X421640Y449580D01*
D11*
X186880Y678180D02*
X173800Y678180D01*
X173800Y652780D02*
X186880Y652780D01*
X186880Y627380D02*
X173800Y627380D01*
X173800Y601980D02*
X186880Y601980D01*
X186880Y576580D02*
X173800Y576580D01*
X173800Y551180D02*
X186880Y551180D01*
X186880Y525780D02*
X173800Y525780D01*
X173800Y500380D02*
X186880Y500380D01*
X186880Y474980D02*
X173800Y474980D01*
X173800Y449580D02*
X186880Y449580D01*
X186880Y424180D02*
X173800Y424180D01*
X173800Y398780D02*
X186880Y398780D01*
X186880Y373380D02*
X173800Y373380D01*
X173800Y347980D02*
X186880Y347980D01*
X186880Y322580D02*
X173800Y322580D01*
X326200Y322580D02*
X339280Y322580D01*
X339280Y347980D02*
X326200Y347980D01*
X326200Y373380D02*
X339280Y373380D01*
X339280Y398780D02*
X326200Y398780D01*
X326200Y424180D02*
X339280Y424180D01*
X339280Y449580D02*
X326200Y449580D01*
X326200Y474980D02*
X339280Y474980D01*
X339280Y500380D02*
X326200Y500380D01*
X326200Y525780D02*
X339280Y525780D01*
X339280Y551180D02*
X326200Y551180D01*
X326200Y576580D02*
X339280Y576580D01*
X339280Y601980D02*
X326200Y601980D01*
X326200Y627380D02*
X339280Y627380D01*
X339280Y652780D02*
X326200Y652780D01*
X326200Y678180D02*
X339280Y678180D01*
D12*
X322580Y208280D03*
X322580Y259080D03*
D10*
X91440Y309880D02*
X76200Y309880D01*
X76200Y335280D02*
X91440Y335280D01*
X91440Y360680D02*
X76200Y360680D01*
D13*
X508000Y134620D03*
X510540Y48260D03*
D10*
X436880Y360680D02*
X421640Y360680D01*
X421640Y335280D02*
X436880Y335280D01*
X436880Y309880D02*
X421640Y309880D01*
D14*
X35560Y703580D03*
X137160Y703580D03*
D10*
X88900Y591820D02*
X73660Y591820D01*
X73660Y617220D02*
X88900Y617220D01*
X88900Y642620D02*
X73660Y642620D01*
X421640Y647700D02*
X436880Y647700D01*
X436880Y622300D02*
X421640Y622300D01*
X421640Y596900D02*
X436880Y596900D01*
X88900Y449580D02*
X73660Y449580D01*
X73660Y474980D02*
X88900Y474980D01*
X88900Y500380D02*
X73660Y500380D01*
D15*
X429260Y236220D03*
D16*
X50800Y66040D03*
X50800Y142240D03*
X355600Y142240D03*
X355600Y66040D03*
D15*
X477520Y284480D03*
X477520Y449580D03*
D12*
X373380Y208280D03*
X373380Y309880D03*
D17*
X472440Y703580D03*
X370840Y703580D03*
D15*
X477520Y368300D03*
D12*
X421640Y121920D03*
X421640Y172720D03*
D18*
X429260Y76200D03*
X429260Y25400D03*
D14*
X142240Y236220D03*
X193040Y236220D03*
D17*
X96520Y236220D03*
X45720Y236220D03*
D10*
X523240Y670560D02*
X538480Y670560D01*
X538480Y645160D02*
X523240Y645160D01*
D12*
X528320Y513080D03*
X528320Y614680D03*
D10*
X530860Y340360D02*
X546100Y340360D01*
X546100Y365760D02*
X530860Y365760D01*
D12*
X546100Y182880D03*
X546100Y284480D03*
D19*
X83820Y360680D02*
X27940Y360680D01*
X27940Y695960D02*
X35560Y703580D01*
X27940Y695960D02*
X27940Y642620D01*
X27940Y500380D01*
X27940Y360680D01*
X27940Y642620D02*
X81280Y642620D01*
X81280Y500380D02*
X27940Y500380D01*
X436880Y739140D02*
X472440Y703580D01*
X436880Y739140D02*
X71120Y739140D01*
X35560Y703580D01*
X472440Y703580D02*
X472440Y670560D01*
X472440Y596900D01*
X472440Y454660D02*
X476250Y450850D01*
X477520Y449580D01*
X474980Y449580D02*
X429260Y449580D01*
X474980Y449580D02*
X476250Y450850D01*
X472440Y596900D02*
X429260Y596900D01*
D20*
X60960Y68580D02*
X58420Y66040D01*
X50800Y66040D01*
D19*
X180340Y398780D02*
X205740Y398780D01*
X210820Y393700D01*
X210820Y284480D01*
X201422Y275082D01*
X111760Y275082D01*
X53340Y275082D01*
X27940Y300482D01*
X27940Y360680D01*
X96520Y236220D02*
X142240Y236220D01*
X96520Y236220D02*
X96520Y259842D01*
X111760Y275082D01*
X83820Y66040D02*
X50800Y66040D01*
X96520Y78740D02*
X96520Y236220D01*
X96520Y78740D02*
X83820Y66040D01*
X114300Y35560D01*
X426720Y48260D02*
X462280Y48260D01*
X414020Y35560D02*
X114300Y35560D01*
X414020Y35560D02*
X426720Y48260D01*
X472440Y670560D02*
X530860Y670560D01*
X477520Y449580D02*
X500380Y426720D01*
X500380Y355600D01*
X508000Y137160D02*
X508000Y134620D01*
X508000Y137160D02*
X508000Y309880D01*
X508000Y347980D01*
X500380Y355600D01*
X508000Y137160D02*
X462280Y91440D01*
X462280Y48260D01*
X508000Y309880D02*
X538480Y340360D01*
X454660Y284480D02*
X429260Y309880D01*
X419100Y66040D02*
X355600Y66040D01*
X419100Y66040D02*
X429260Y76200D01*
X429260Y114300D02*
X421640Y121920D01*
X429260Y114300D02*
X429260Y76200D01*
X454660Y284480D02*
X477520Y284480D01*
X472440Y279400D01*
X454660Y279400D01*
X454660Y142240D01*
X434340Y121920D01*
X421640Y121920D01*
X429260Y360680D02*
X469900Y360680D01*
X477520Y368300D01*
D20*
X429260Y360680D02*
X408940Y360680D01*
X373380Y325120D02*
X373380Y309880D01*
X373380Y325120D02*
X408940Y360680D01*
X180340Y601980D02*
X162560Y601980D01*
X121920Y561340D01*
X101600Y449580D02*
X81280Y449580D01*
X101600Y449580D02*
X121920Y469900D01*
X121920Y561340D01*
X172720Y576580D02*
X180340Y576580D01*
X160020Y576580D01*
X139700Y556260D01*
X139700Y332740D01*
X116840Y309880D01*
X83820Y309880D01*
X373380Y500380D02*
X429260Y500380D01*
X373380Y500380D02*
X360680Y487680D01*
X360680Y292100D01*
X345440Y276860D01*
X269240Y276860D01*
X254000Y292100D01*
X254000Y510540D01*
X213360Y551180D01*
X180340Y551180D01*
X314960Y601980D02*
X332740Y601980D01*
X314960Y601980D02*
X297180Y619760D01*
X297180Y711200D01*
X281940Y726440D01*
X160020Y726440D01*
X137160Y703580D01*
X116840Y591820D02*
X81280Y591820D01*
X116840Y591820D02*
X137160Y612140D01*
X137160Y703580D01*
X429260Y678180D02*
X429260Y647700D01*
X429260Y678180D02*
X403860Y703580D01*
X370840Y703580D01*
X355600Y627380D02*
X332740Y627380D01*
X355600Y627380D02*
X370840Y642620D01*
X370840Y703580D01*
X429260Y236220D02*
X401320Y208280D01*
X373380Y208280D01*
X322580Y208280D01*
X274320Y208280D01*
X233680Y248920D01*
X233680Y497840D01*
X205740Y525780D01*
X180340Y525780D01*
D19*
X530860Y617220D02*
X530860Y645160D01*
X530860Y617220D02*
X528320Y614680D01*
X510540Y551180D02*
X332740Y551180D01*
X510540Y551180D02*
X528320Y568960D01*
X528320Y614680D01*
X546100Y287020D02*
X546100Y284480D01*
X487680Y525780D02*
X332740Y525780D01*
X487680Y525780D02*
X538480Y474980D01*
X546100Y299720D02*
X546100Y284480D01*
X546100Y299720D02*
X563880Y317500D01*
X563880Y353060D01*
X538480Y365760D02*
X538480Y474980D01*
X538480Y365760D02*
X551180Y365760D01*
X563880Y353060D01*
M02*
