M48
;GenerationSoftware,Autodesk,EAGLE,9.0.0*%
;CreationDate,2022-05-13T19:47:05Z*%
FMAT,2
ICI,OFF
METRIC,TZ,000.000
T7C0.800
T6C0.813
T5C1.016
T4C1.321
T3C1.778
T2C2.000
T1C2.800
%
G90
M71
T1
X51054Y4826
X50800Y13462
T2
X35560Y14224
X35560Y6604
X5080Y6604
X5080Y14224
T3
X18034Y70358
X33274Y70358
X33274Y29718
X18034Y29718
T4
X47752Y44958
X47752Y28448
X42926Y23622
X47752Y36830
T5
X42926Y50038
X42926Y47498
X42926Y44958
X42926Y36068
X8382Y36068
X42926Y62230
X8382Y30988
X53086Y64516
X53848Y34036
X53848Y36576
X53086Y67056
X8128Y50038
X8128Y47498
X8128Y44958
X42926Y59690
X42926Y64770
X8128Y64262
X8128Y61722
X8128Y59182
X8382Y33528
X42926Y30988
X42926Y33528
T6
X4572Y23622
X52832Y51308
X52832Y61468
X54610Y18288
X54610Y28448
X32258Y20828
X32258Y25908
X19304Y23622
X3556Y70358
X13716Y70358
X37338Y20828
X37338Y30988
X47244Y70358
X37084Y70358
X42164Y12192
X42164Y17272
X42926Y7620
X42926Y2540
X14224Y23622
X9652Y23622
T7
X18034Y67818
X18034Y65278
X18034Y62738
X18034Y57658
X18034Y55118
X18034Y32258
X18034Y34798
X18034Y37338
X18034Y39878
X33274Y62738
X33274Y67818
X33274Y65278
X33274Y57658
X18034Y42418
X33274Y55118
X33274Y52578
X33274Y50038
X33274Y60198
X33274Y47498
X18034Y60198
X33274Y44958
X33274Y42418
X18034Y44958
X18034Y47498
X33274Y39878
X33274Y37338
X18034Y50038
X18034Y52578
X33274Y34798
X33274Y32258
M30