G04 EAGLE Gerber X2 export*
%TF.Part,Single*%
%TF.FileFunction,Profile,NP*%
%TF.FilePolarity,Positive*%
%TF.GenerationSoftware,Autodesk,EAGLE,9.0.0*%
%TF.CreationDate,2022-05-13T19:47:05Z*%
G75*
%MOMM*%
%FSLAX34Y34*%
%LPD*%
%AMOC8*
5,1,8,0,0,1.08239X$1,22.5*%
G01*
%ADD10C,0.254000*%


D10*
X0Y0D02*
X581460Y0D01*
X581460Y763780D01*
X0Y763780D01*
X0Y0D01*
X179952Y694690D02*
X179179Y694758D01*
X178414Y694892D01*
X177664Y695093D01*
X176935Y695359D01*
X176231Y695687D01*
X175559Y696075D01*
X174923Y696520D01*
X174328Y697019D01*
X173779Y697568D01*
X173280Y698163D01*
X172835Y698799D01*
X172447Y699471D01*
X172119Y700175D01*
X171853Y700904D01*
X171652Y701654D01*
X171518Y702419D01*
X171450Y703192D01*
X171450Y703968D01*
X171518Y704741D01*
X171652Y705506D01*
X171853Y706256D01*
X172119Y706985D01*
X172447Y707689D01*
X172835Y708361D01*
X173280Y708997D01*
X173779Y709592D01*
X174328Y710141D01*
X174923Y710640D01*
X175559Y711085D01*
X176231Y711473D01*
X176935Y711801D01*
X177664Y712067D01*
X178414Y712268D01*
X179179Y712402D01*
X179952Y712470D01*
X180728Y712470D01*
X181501Y712402D01*
X182266Y712268D01*
X183016Y712067D01*
X183745Y711801D01*
X184449Y711473D01*
X185121Y711085D01*
X185757Y710640D01*
X186352Y710141D01*
X186901Y709592D01*
X187400Y708997D01*
X187845Y708361D01*
X188233Y707689D01*
X188561Y706985D01*
X188827Y706256D01*
X189028Y705506D01*
X189162Y704741D01*
X189230Y703968D01*
X189230Y703192D01*
X189162Y702419D01*
X189028Y701654D01*
X188827Y700904D01*
X188561Y700175D01*
X188233Y699471D01*
X187845Y698799D01*
X187400Y698163D01*
X186901Y697568D01*
X186352Y697019D01*
X185757Y696520D01*
X185121Y696075D01*
X184449Y695687D01*
X183745Y695359D01*
X183016Y695093D01*
X182266Y694892D01*
X181501Y694758D01*
X180728Y694690D01*
X179952Y694690D01*
X332352Y694690D02*
X331579Y694758D01*
X330814Y694892D01*
X330064Y695093D01*
X329335Y695359D01*
X328631Y695687D01*
X327959Y696075D01*
X327323Y696520D01*
X326728Y697019D01*
X326179Y697568D01*
X325680Y698163D01*
X325235Y698799D01*
X324847Y699471D01*
X324519Y700175D01*
X324253Y700904D01*
X324052Y701654D01*
X323918Y702419D01*
X323850Y703192D01*
X323850Y703968D01*
X323918Y704741D01*
X324052Y705506D01*
X324253Y706256D01*
X324519Y706985D01*
X324847Y707689D01*
X325235Y708361D01*
X325680Y708997D01*
X326179Y709592D01*
X326728Y710141D01*
X327323Y710640D01*
X327959Y711085D01*
X328631Y711473D01*
X329335Y711801D01*
X330064Y712067D01*
X330814Y712268D01*
X331579Y712402D01*
X332352Y712470D01*
X333128Y712470D01*
X333901Y712402D01*
X334666Y712268D01*
X335416Y712067D01*
X336145Y711801D01*
X336849Y711473D01*
X337521Y711085D01*
X338157Y710640D01*
X338752Y710141D01*
X339301Y709592D01*
X339800Y708997D01*
X340245Y708361D01*
X340633Y707689D01*
X340961Y706985D01*
X341227Y706256D01*
X341428Y705506D01*
X341562Y704741D01*
X341630Y703968D01*
X341630Y703192D01*
X341562Y702419D01*
X341428Y701654D01*
X341227Y700904D01*
X340961Y700175D01*
X340633Y699471D01*
X340245Y698799D01*
X339800Y698163D01*
X339301Y697568D01*
X338752Y697019D01*
X338157Y696520D01*
X337521Y696075D01*
X336849Y695687D01*
X336145Y695359D01*
X335416Y695093D01*
X334666Y694892D01*
X333901Y694758D01*
X333128Y694690D01*
X332352Y694690D01*
X332352Y288290D02*
X331579Y288358D01*
X330814Y288492D01*
X330064Y288693D01*
X329335Y288959D01*
X328631Y289287D01*
X327959Y289675D01*
X327323Y290120D01*
X326728Y290619D01*
X326179Y291168D01*
X325680Y291763D01*
X325235Y292399D01*
X324847Y293071D01*
X324519Y293775D01*
X324253Y294504D01*
X324052Y295254D01*
X323918Y296019D01*
X323850Y296792D01*
X323850Y297568D01*
X323918Y298341D01*
X324052Y299106D01*
X324253Y299856D01*
X324519Y300585D01*
X324847Y301289D01*
X325235Y301961D01*
X325680Y302597D01*
X326179Y303192D01*
X326728Y303741D01*
X327323Y304240D01*
X327959Y304685D01*
X328631Y305073D01*
X329335Y305401D01*
X330064Y305667D01*
X330814Y305868D01*
X331579Y306002D01*
X332352Y306070D01*
X333128Y306070D01*
X333901Y306002D01*
X334666Y305868D01*
X335416Y305667D01*
X336145Y305401D01*
X336849Y305073D01*
X337521Y304685D01*
X338157Y304240D01*
X338752Y303741D01*
X339301Y303192D01*
X339800Y302597D01*
X340245Y301961D01*
X340633Y301289D01*
X340961Y300585D01*
X341227Y299856D01*
X341428Y299106D01*
X341562Y298341D01*
X341630Y297568D01*
X341630Y296792D01*
X341562Y296019D01*
X341428Y295254D01*
X341227Y294504D01*
X340961Y293775D01*
X340633Y293071D01*
X340245Y292399D01*
X339800Y291763D01*
X339301Y291168D01*
X338752Y290619D01*
X338157Y290120D01*
X337521Y289675D01*
X336849Y289287D01*
X336145Y288959D01*
X335416Y288693D01*
X334666Y288492D01*
X333901Y288358D01*
X333128Y288290D01*
X332352Y288290D01*
X179952Y288290D02*
X179179Y288358D01*
X178414Y288492D01*
X177664Y288693D01*
X176935Y288959D01*
X176231Y289287D01*
X175559Y289675D01*
X174923Y290120D01*
X174328Y290619D01*
X173779Y291168D01*
X173280Y291763D01*
X172835Y292399D01*
X172447Y293071D01*
X172119Y293775D01*
X171853Y294504D01*
X171652Y295254D01*
X171518Y296019D01*
X171450Y296792D01*
X171450Y297568D01*
X171518Y298341D01*
X171652Y299106D01*
X171853Y299856D01*
X172119Y300585D01*
X172447Y301289D01*
X172835Y301961D01*
X173280Y302597D01*
X173779Y303192D01*
X174328Y303741D01*
X174923Y304240D01*
X175559Y304685D01*
X176231Y305073D01*
X176935Y305401D01*
X177664Y305667D01*
X178414Y305868D01*
X179179Y306002D01*
X179952Y306070D01*
X180728Y306070D01*
X181501Y306002D01*
X182266Y305868D01*
X183016Y305667D01*
X183745Y305401D01*
X184449Y305073D01*
X185121Y304685D01*
X185757Y304240D01*
X186352Y303741D01*
X186901Y303192D01*
X187400Y302597D01*
X187845Y301961D01*
X188233Y301289D01*
X188561Y300585D01*
X188827Y299856D01*
X189028Y299106D01*
X189162Y298341D01*
X189230Y297568D01*
X189230Y296792D01*
X189162Y296019D01*
X189028Y295254D01*
X188827Y294504D01*
X188561Y293775D01*
X188233Y293071D01*
X187845Y292399D01*
X187400Y291763D01*
X186901Y291168D01*
X186352Y290619D01*
X185757Y290120D01*
X185121Y289675D01*
X184449Y289287D01*
X183745Y288959D01*
X183016Y288693D01*
X182266Y288492D01*
X181501Y288358D01*
X180728Y288290D01*
X179952Y288290D01*
M02*
