G04 EAGLE Gerber X2 export*
%TF.Part,Single*%
%TF.FileFunction,Legend,Bot,1*%
%TF.FilePolarity,Positive*%
%TF.GenerationSoftware,Autodesk,EAGLE,9.0.0*%
%TF.CreationDate,2022-05-13T19:47:05Z*%
G75*
%MOMM*%
%FSLAX34Y34*%
%LPD*%
%AMOC8*
5,1,8,0,0,1.08239X$1,22.5*%
G01*
%ADD10C,0.152400*%
%ADD11C,0.127000*%


D10*
X541020Y520700D02*
X541120Y520702D01*
X541219Y520708D01*
X541319Y520718D01*
X541417Y520731D01*
X541516Y520749D01*
X541613Y520770D01*
X541709Y520795D01*
X541805Y520824D01*
X541899Y520857D01*
X541992Y520893D01*
X542083Y520933D01*
X542173Y520977D01*
X542261Y521024D01*
X542347Y521074D01*
X542431Y521128D01*
X542513Y521185D01*
X542592Y521245D01*
X542670Y521309D01*
X542744Y521375D01*
X542816Y521444D01*
X542885Y521516D01*
X542951Y521590D01*
X543015Y521668D01*
X543075Y521747D01*
X543132Y521829D01*
X543186Y521913D01*
X543236Y521999D01*
X543283Y522087D01*
X543327Y522177D01*
X543367Y522268D01*
X543403Y522361D01*
X543436Y522455D01*
X543465Y522551D01*
X543490Y522647D01*
X543511Y522744D01*
X543529Y522843D01*
X543542Y522941D01*
X543552Y523041D01*
X543558Y523140D01*
X543560Y523240D01*
X515620Y520700D02*
X515520Y520702D01*
X515421Y520708D01*
X515321Y520718D01*
X515223Y520731D01*
X515124Y520749D01*
X515027Y520770D01*
X514931Y520795D01*
X514835Y520824D01*
X514741Y520857D01*
X514648Y520893D01*
X514557Y520933D01*
X514467Y520977D01*
X514379Y521024D01*
X514293Y521074D01*
X514209Y521128D01*
X514127Y521185D01*
X514048Y521245D01*
X513970Y521309D01*
X513896Y521375D01*
X513824Y521444D01*
X513755Y521516D01*
X513689Y521590D01*
X513625Y521668D01*
X513565Y521747D01*
X513508Y521829D01*
X513454Y521913D01*
X513404Y521999D01*
X513357Y522087D01*
X513313Y522177D01*
X513273Y522268D01*
X513237Y522361D01*
X513204Y522455D01*
X513175Y522551D01*
X513150Y522647D01*
X513129Y522744D01*
X513111Y522843D01*
X513098Y522941D01*
X513088Y523041D01*
X513082Y523140D01*
X513080Y523240D01*
X513080Y604520D02*
X513082Y604620D01*
X513088Y604719D01*
X513098Y604819D01*
X513111Y604917D01*
X513129Y605016D01*
X513150Y605113D01*
X513175Y605209D01*
X513204Y605305D01*
X513237Y605399D01*
X513273Y605492D01*
X513313Y605583D01*
X513357Y605673D01*
X513404Y605761D01*
X513454Y605847D01*
X513508Y605931D01*
X513565Y606013D01*
X513625Y606092D01*
X513689Y606170D01*
X513755Y606244D01*
X513824Y606316D01*
X513896Y606385D01*
X513970Y606451D01*
X514048Y606515D01*
X514127Y606575D01*
X514209Y606632D01*
X514293Y606686D01*
X514379Y606736D01*
X514467Y606783D01*
X514557Y606827D01*
X514648Y606867D01*
X514741Y606903D01*
X514835Y606936D01*
X514931Y606965D01*
X515027Y606990D01*
X515124Y607011D01*
X515223Y607029D01*
X515321Y607042D01*
X515421Y607052D01*
X515520Y607058D01*
X515620Y607060D01*
X541020Y607060D02*
X541120Y607058D01*
X541219Y607052D01*
X541319Y607042D01*
X541417Y607029D01*
X541516Y607011D01*
X541613Y606990D01*
X541709Y606965D01*
X541805Y606936D01*
X541899Y606903D01*
X541992Y606867D01*
X542083Y606827D01*
X542173Y606783D01*
X542261Y606736D01*
X542347Y606686D01*
X542431Y606632D01*
X542513Y606575D01*
X542592Y606515D01*
X542670Y606451D01*
X542744Y606385D01*
X542816Y606316D01*
X542885Y606244D01*
X542951Y606170D01*
X543015Y606092D01*
X543075Y606013D01*
X543132Y605931D01*
X543186Y605847D01*
X543236Y605761D01*
X543283Y605673D01*
X543327Y605583D01*
X543367Y605492D01*
X543403Y605399D01*
X543436Y605305D01*
X543465Y605209D01*
X543490Y605113D01*
X543511Y605016D01*
X543529Y604917D01*
X543542Y604819D01*
X543552Y604719D01*
X543558Y604620D01*
X543560Y604520D01*
X543560Y529590D02*
X543560Y523240D01*
X543560Y529590D02*
X542290Y530860D01*
X513080Y529590D02*
X513080Y523240D01*
X513080Y529590D02*
X514350Y530860D01*
X542290Y596900D02*
X543560Y598170D01*
X542290Y596900D02*
X542290Y530860D01*
X514350Y596900D02*
X513080Y598170D01*
X514350Y596900D02*
X514350Y530860D01*
X543560Y598170D02*
X543560Y604520D01*
X513080Y604520D02*
X513080Y598170D01*
D11*
X548005Y522605D02*
X559435Y522605D01*
X559435Y525780D01*
X559433Y525891D01*
X559427Y526001D01*
X559418Y526112D01*
X559404Y526222D01*
X559387Y526331D01*
X559366Y526440D01*
X559341Y526548D01*
X559312Y526655D01*
X559280Y526761D01*
X559244Y526866D01*
X559204Y526969D01*
X559161Y527071D01*
X559114Y527172D01*
X559063Y527271D01*
X559010Y527368D01*
X558953Y527462D01*
X558892Y527555D01*
X558829Y527646D01*
X558762Y527735D01*
X558692Y527821D01*
X558619Y527904D01*
X558544Y527986D01*
X558466Y528064D01*
X558384Y528139D01*
X558301Y528212D01*
X558215Y528282D01*
X558126Y528349D01*
X558035Y528412D01*
X557942Y528473D01*
X557848Y528530D01*
X557751Y528583D01*
X557652Y528634D01*
X557551Y528681D01*
X557449Y528724D01*
X557346Y528764D01*
X557241Y528800D01*
X557135Y528832D01*
X557028Y528861D01*
X556920Y528886D01*
X556811Y528907D01*
X556702Y528924D01*
X556592Y528938D01*
X556481Y528947D01*
X556371Y528953D01*
X556260Y528955D01*
X556149Y528953D01*
X556039Y528947D01*
X555928Y528938D01*
X555818Y528924D01*
X555709Y528907D01*
X555600Y528886D01*
X555492Y528861D01*
X555385Y528832D01*
X555279Y528800D01*
X555174Y528764D01*
X555071Y528724D01*
X554969Y528681D01*
X554868Y528634D01*
X554769Y528583D01*
X554673Y528530D01*
X554578Y528473D01*
X554485Y528412D01*
X554394Y528349D01*
X554305Y528282D01*
X554219Y528212D01*
X554136Y528139D01*
X554054Y528064D01*
X553976Y527986D01*
X553901Y527904D01*
X553828Y527821D01*
X553758Y527735D01*
X553691Y527646D01*
X553628Y527555D01*
X553567Y527462D01*
X553510Y527368D01*
X553457Y527271D01*
X553406Y527172D01*
X553359Y527071D01*
X553316Y526969D01*
X553276Y526866D01*
X553240Y526761D01*
X553208Y526655D01*
X553179Y526548D01*
X553154Y526440D01*
X553133Y526331D01*
X553116Y526222D01*
X553102Y526112D01*
X553093Y526001D01*
X553087Y525891D01*
X553085Y525780D01*
X553085Y522605D01*
X553085Y526415D02*
X548005Y528955D01*
X550545Y533952D02*
X559435Y536492D01*
X550545Y533952D02*
X550545Y540302D01*
X553085Y538397D02*
X548005Y538397D01*
M02*
