G04 EAGLE Gerber X2 export*
%TF.Part,Single*%
%TF.FileFunction,Soldermask,Bot,1*%
%TF.FilePolarity,Negative*%
%TF.GenerationSoftware,Autodesk,EAGLE,9.0.0*%
%TF.CreationDate,2022-05-13T19:47:05Z*%
G75*
%MOMM*%
%FSLAX34Y34*%
%LPD*%
%AMOC8*
5,1,8,0,0,1.08239X$1,22.5*%
G01*
%ADD10C,1.727200*%
%ADD11C,1.981200*%
%ADD12C,1.511200*%
%ADD13P,1.649562X8X112.500000*%
%ADD14C,5.537200*%
%ADD15P,1.649562X8X22.500000*%
%ADD16P,2.556822X8X22.500000*%
%ADD17R,3.203200X3.203200*%
%ADD18P,1.649562X8X202.500000*%
%ADD19P,1.649562X8X292.500000*%


D10*
X436880Y500380D02*
X421640Y500380D01*
X421640Y474980D02*
X436880Y474980D01*
X436880Y449580D02*
X421640Y449580D01*
D11*
X180340Y703580D03*
D12*
X173800Y678180D02*
X186880Y678180D01*
X186880Y652780D02*
X173800Y652780D01*
X173800Y627380D02*
X186880Y627380D01*
X186880Y601980D02*
X173800Y601980D01*
X173800Y576580D02*
X186880Y576580D01*
X186880Y551180D02*
X173800Y551180D01*
X173800Y525780D02*
X186880Y525780D01*
X186880Y500380D02*
X173800Y500380D01*
X173800Y474980D02*
X186880Y474980D01*
X186880Y449580D02*
X173800Y449580D01*
X173800Y424180D02*
X186880Y424180D01*
X186880Y398780D02*
X173800Y398780D01*
X173800Y373380D02*
X186880Y373380D01*
X186880Y347980D02*
X173800Y347980D01*
X173800Y322580D02*
X186880Y322580D01*
X326200Y322580D02*
X339280Y322580D01*
X339280Y347980D02*
X326200Y347980D01*
X326200Y373380D02*
X339280Y373380D01*
X339280Y398780D02*
X326200Y398780D01*
X326200Y424180D02*
X339280Y424180D01*
X339280Y449580D02*
X326200Y449580D01*
X326200Y474980D02*
X339280Y474980D01*
X339280Y500380D02*
X326200Y500380D01*
X326200Y525780D02*
X339280Y525780D01*
X339280Y551180D02*
X326200Y551180D01*
X326200Y576580D02*
X339280Y576580D01*
X339280Y601980D02*
X326200Y601980D01*
X326200Y627380D02*
X339280Y627380D01*
X339280Y652780D02*
X326200Y652780D01*
X326200Y678180D02*
X339280Y678180D01*
D11*
X332740Y703580D03*
X332740Y297180D03*
X180340Y297180D03*
D13*
X322580Y208280D03*
X322580Y259080D03*
D10*
X91440Y309880D02*
X76200Y309880D01*
X76200Y335280D02*
X91440Y335280D01*
X91440Y360680D02*
X76200Y360680D01*
D14*
X508000Y134620D03*
X510540Y48260D03*
D10*
X436880Y360680D02*
X421640Y360680D01*
X421640Y335280D02*
X436880Y335280D01*
X436880Y309880D02*
X421640Y309880D01*
D15*
X35560Y703580D03*
X137160Y703580D03*
D10*
X88900Y591820D02*
X73660Y591820D01*
X73660Y617220D02*
X88900Y617220D01*
X88900Y642620D02*
X73660Y642620D01*
X421640Y647700D02*
X436880Y647700D01*
X436880Y622300D02*
X421640Y622300D01*
X421640Y596900D02*
X436880Y596900D01*
X88900Y449580D02*
X73660Y449580D01*
X73660Y474980D02*
X88900Y474980D01*
X88900Y500380D02*
X73660Y500380D01*
D16*
X429260Y236220D03*
D17*
X50800Y66040D03*
X50800Y142240D03*
X355600Y142240D03*
X355600Y66040D03*
D16*
X477520Y284480D03*
X477520Y449580D03*
D13*
X373380Y208280D03*
X373380Y309880D03*
D18*
X472440Y703580D03*
X370840Y703580D03*
D16*
X477520Y368300D03*
D13*
X421640Y121920D03*
X421640Y172720D03*
D19*
X429260Y76200D03*
X429260Y25400D03*
D15*
X142240Y236220D03*
X193040Y236220D03*
D18*
X96520Y236220D03*
X45720Y236220D03*
D10*
X523240Y670560D02*
X538480Y670560D01*
X538480Y645160D02*
X523240Y645160D01*
D13*
X528320Y513080D03*
X528320Y614680D03*
D10*
X530860Y340360D02*
X546100Y340360D01*
X546100Y365760D02*
X530860Y365760D01*
D13*
X546100Y182880D03*
X546100Y284480D03*
M02*
